<?xml version="1.0" standalone="no"?>
<!DOCTYPE svg PUBLIC "-//W3C//DTD SVG 1.1//EN" "http://www.w3.org/Graphics/SVG/1.1/DTD/svg11.dtd" >
<svg>
<metadata>
Created by FontForge 20090622 at Wed Feb 22 12:48:31 2017
 By deploy user
Copyright (c) 2011-2016 The Montserrat Project Authors (julieta.ulanovsky@gmail.com)
</metadata>
<defs>
<font id="Montserrat-ExtraBold" horiz-adv-x="683" >
  <font-face 
    font-family="Montserrat ExtraBold"
    font-weight="800"
    font-stretch="normal"
    units-per-em="1000"
    panose-1="0 0 9 0 0 0 0 0 0 0"
    ascent="800"
    descent="-200"
    x-height="544"
    cap-height="701"
    bbox="-274 -320 1476 978"
    underline-thickness="50"
    underline-position="-50"
    unicode-range="U+0020-U+FB02"
  />
<missing-glyph horiz-adv-x="468" 
d="M384 742v-936h-297v936h297zM312 679h-155v-31h61v-34h-62v-31h156v31h-62v34h62v31zM250 559h-94v-98h156v32h-62v66zM218 527v-34h-31v34h31zM312 436h-156v-31h62v-35h-62v-30h94v65h62v31zM312 380h-31v-62h-125v-32h156v94zM312 266h-94v-53h32v22h31v-44h-94v75
h-31v-106h156v106zM312 104h-156v-106h156v106zM281 73v-44h-94v44h94zM312 -24h-156v-31h66l-66 -44v-30h156v30h-96l66 44h30v31z" />
    <glyph glyph-name="fi" unicode="fi" horiz-adv-x="733" 
d="M572 595q-46 0 -75 29t-29 75t29 75t75 29t75 -29t29 -75t-29 -75t-75 -29zM98 566q0 86 60 136t157 49q63 0 109 -18l-7 -160q-31 20 -62 20q-26 1 -41.5 -12.5t-15.5 -38.5v-18h113v-130h-113v-394h-200v394h-74v130h74v42zM470 0v544h202v-544h-202z" />
    <glyph glyph-name="fl" unicode="fl" horiz-adv-x="746" 
d="M98 569q0 83 59.5 133.5t158.5 49.5q60 0 108 -17l-6 -160q-28 20 -59 20q-28 1 -44.5 -14.5t-16.5 -42.5v-22h114l-1 -129h-113v-387h-200v387h-74v129h74v53zM477 742h202v-742h-202v742z" />
    <glyph glyph-name=".notdef" horiz-adv-x="468" 
d="M384 742v-936h-297v936h297zM312 679h-155v-31h61v-34h-62v-31h156v31h-62v34h62v31zM250 559h-94v-98h156v32h-62v66zM218 527v-34h-31v34h31zM312 436h-156v-31h62v-35h-62v-30h94v65h62v31zM312 380h-31v-62h-125v-32h156v94zM312 266h-94v-53h32v22h31v-44h-94v75
h-31v-106h156v106zM312 104h-156v-106h156v106zM281 73v-44h-94v44h94zM312 -24h-156v-31h66l-66 -44v-30h156v30h-96l66 44h30v31z" />
    <glyph glyph-name=".null" horiz-adv-x="0" 
 />
    <glyph glyph-name="nonmarkingreturn" horiz-adv-x="333" 
 />
    <glyph glyph-name="space" unicode=" " horiz-adv-x="219" 
 />
    <glyph glyph-name="exclam" unicode="!" horiz-adv-x="276" 
d="M45 699h192v-182l-35 -267h-121l-36 267v182zM137 180q42 0 68.5 -26t26.5 -67q0 -42 -26.5 -68.5t-68.5 -26.5q-41 0 -67.5 26.5t-26.5 68.5q0 41 26.5 67t67.5 26z" />
    <glyph glyph-name="quotedbl" unicode="&#x22;" horiz-adv-x="478" 
d="M60 701h151v-290h-151v290zM267 701h151v-290h-151v290z" />
    <glyph glyph-name="numbersign" unicode="#" horiz-adv-x="741" 
d="M716 409h-133l-16 -125h132l-17 -138h-132l-18 -146h-145l18 146h-120l-18 -146h-144l18 146h-132l17 138h132l16 125h-131l15 138h133l19 154h144l-19 -154h120l19 154h145l-19 -154h132zM422 284l16 125h-120l-16 -125h120z" />
    <glyph glyph-name="dollar" unicode="$" horiz-adv-x="655" 
d="M272 509q0 -24 27 -40.5t68 -25.5t88 -25.5t88 -37.5t68 -64t27 -102q0 -92 -61.5 -147t-161.5 -69v-158h-149v160q-150 24 -254 105l78 158q53 -45 129.5 -76t131.5 -31q72 0 72 47q0 24 -27 41t-68 25.5t-88 24t-88 35t-68 61t-27 99.5q0 84 55.5 140.5t153.5 73.5v154
h149v-151q130 -16 225 -77l-77 -160q-56 32 -123 55t-110 23q-58 0 -58 -38z" />
    <glyph glyph-name="percent" unicode="%" horiz-adv-x="1047" 
d="M229 704q92 0 146 -57.5t54 -154.5q0 -98 -54.5 -156.5t-145.5 -58.5q-92 0 -146.5 58.5t-54.5 156.5q0 97 54.5 154.5t146.5 57.5zM675 701h188l-492 -701h-189zM229 598q-34 0 -54 -28.5t-20 -77.5q0 -50 20 -78.5t54 -28.5t53.5 29t19.5 78t-19.5 77.5t-53.5 28.5z
M820 423q92 0 146 -58t54 -155q0 -98 -54 -156t-146 -58t-146.5 58t-54.5 156t54.5 155.5t146.5 57.5zM820 316q-34 0 -54 -28.5t-20 -77.5q0 -50 20 -78.5t54 -28.5t53.5 29t19.5 78t-19.5 77.5t-53.5 28.5z" />
    <glyph glyph-name="ampersand" unicode="&#x26;" horiz-adv-x="697" 
d="M690 63l-102 -98l-94 90q-89 -64 -193 -64q-107 0 -177 58t-70 149q0 63 35.5 106t97.5 78q-55 80 -55 153q0 80 56.5 127.5t152.5 47.5q93 0 152.5 -46t59.5 -117q0 -66 -43 -109.5t-118 -82.5l90 -94q26 48 41 104l127 -91q-25 -67 -60 -118zM289 536q0 -40 29 -86
q77 44 77 95q0 24 -14.5 38t-37.5 14q-25 0 -39.5 -17t-14.5 -44zM309 131q41 0 82 25q-81 81 -126 130q-47 -32 -47 -73q0 -37 25.5 -59.5t65.5 -22.5z" />
    <glyph glyph-name="quotesingle" unicode="'" horiz-adv-x="271" 
d="M60 701h151v-290h-151v290z" />
    <glyph glyph-name="parenleft" unicode="(" horiz-adv-x="359" 
d="M365 742q-122 -199 -122 -433t122 -433h-181q-131 186 -131 433t131 433h181z" />
    <glyph glyph-name="parenright" unicode=")" horiz-adv-x="365" 
d="M16 742h181q131 -186 131 -433t-131 -433h-181q122 199 122 433t-122 433z" />
    <glyph glyph-name="asterisk" unicode="*" horiz-adv-x="394" 
d="M147 719h100l-2 -92l78 47l50 -86l-82 -43l82 -45l-50 -87l-79 48l3 -91h-100l3 92l-79 -47l-50 85l81 45l-81 43l50 88l78 -49z" />
    <glyph glyph-name="plus" unicode="+" horiz-adv-x="515" 
d="M484 391v-126h-163v-164h-126v164h-164v126h164v164h126v-164h163z" />
    <glyph glyph-name="comma" unicode="," horiz-adv-x="254" 
d="M129 180q39 0 66 -25t27 -68q0 -37 -25 -74l-81 -117h-94l49 118q-37 25 -37 72q0 41 27 67.5t68 26.5z" />
    <glyph glyph-name="hyphen" unicode="-" horiz-adv-x="377" 
d="M52 371h273v-126h-273v126z" />
    <glyph glyph-name="period" unicode="." horiz-adv-x="255" 
d="M127 180q42 0 68.5 -26t26.5 -67q0 -42 -26.5 -68.5t-68.5 -26.5q-41 0 -67.5 26.5t-26.5 68.5q0 41 26.5 67t67.5 26z" />
    <glyph glyph-name="slash" unicode="/" horiz-adv-x="364" 
d="M283 808h169l-327 -915h-169z" />
    <glyph glyph-name="zero" unicode="0" horiz-adv-x="617" 
d="M309 707q134 0 206.5 -92t72.5 -264t-72.5 -264t-206.5 -92q-136 0 -208 91.5t-72 264.5q0 172 72 264t208 92zM309 565q-45 0 -63.5 -48.5t-18.5 -165.5q0 -116 18.5 -165.5t63.5 -49.5q44 0 62.5 49.5t18.5 165.5t-18.5 165t-62.5 49z" />
    <glyph glyph-name="one" unicode="1" horiz-adv-x="617" 
d="M87 701h336v-701h-208v535h-128v166z" />
    <glyph glyph-name="two" unicode="2" horiz-adv-x="617" 
d="M292 391q61 63 61 102q0 49 -64 49q-85 0 -192 -89l-78 150q153 108 302 108q108 0 179 -52t71 -135q0 -97 -137 -236l-126 -126h278v-162h-543v133z" />
    <glyph glyph-name="three" unicode="3" horiz-adv-x="617" 
d="M402 415q79 -14 127.5 -64.5t48.5 -128.5q0 -103 -78.5 -167t-208.5 -64q-78 0 -155 24.5t-130 64.5l83 158q84 -92 185 -92t101 74t-101 74h-125v109l148 143h-254v154h501v-117l-176 -162z" />
    <glyph glyph-name="four" unicode="4" horiz-adv-x="617" 
d="M220 702h196l-181 -406h99v142h190v-142h85v-152h-85v-144h-190v144h-308v136z" />
    <glyph glyph-name="five" unicode="5" horiz-adv-x="617" 
d="M264 449h47q126 0 201 -58t75 -154q0 -112 -79.5 -179t-212.5 -67q-72 0 -149.5 25t-135.5 66l83 158q79 -93 177 -93q93 0 93 76q0 71 -93 71q-113 0 -197 -2v410h482v-162h-291v-91z" />
    <glyph glyph-name="six" unicode="6" horiz-adv-x="617" 
d="M511 511q-58 46 -141 46q-73 0 -110.5 -41.5t-36.5 -118.5q52 67 153 67t161.5 -63t60.5 -166q0 -111 -72 -177.5t-190 -66.5q-141 0 -222 94t-81 256q0 168 88.5 268.5t236.5 100.5q132 0 229 -59zM331 319q-42 0 -65 -23t-23 -62q0 -38 21.5 -61t64.5 -23q40 0 62 22
t22 64q0 39 -21.5 61t-60.5 22z" />
    <glyph glyph-name="seven" unicode="7" horiz-adv-x="617" 
d="M33 702h569v-141l-252 -561h-220l243 540h-157v-98h-183v260z" />
    <glyph glyph-name="eight" unicode="8" horiz-adv-x="617" 
d="M307 711q115 0 184 -52.5t69 -140.5q0 -42 -21 -80.5t-56 -61.5q52 -26 83 -73.5t31 -103.5q0 -95 -78.5 -151.5t-210.5 -56.5q-131 0 -209 55.5t-78 148.5q0 58 33.5 106.5t89.5 74.5q-40 26 -63.5 66t-23.5 82q0 85 68 136t182 51zM308 575q-78 0 -78 -68q0 -65 78 -65
q79 0 79 65q0 68 -79 68zM309 294q-94 0 -94 -78q0 -76 93 -76q46 0 70.5 19.5t24.5 56.5t-24.5 57.5t-69.5 20.5z" />
    <glyph glyph-name="nine" unicode="9" horiz-adv-x="617" 
d="M107 190q57 -45 140 -45q73 0 110.5 41t36.5 118q-52 -67 -153 -67q-100 0 -160.5 63t-60.5 167q0 111 72 177t190 66q141 0 221.5 -93.5t80.5 -255.5q0 -168 -88.5 -269t-236.5 -101q-132 0 -228 60zM289 552q-40 0 -61.5 -22t-21.5 -64q0 -83 81 -83q42 0 65 23t22 62
q1 38 -21 61t-64 23z" />
    <glyph glyph-name="colon" unicode=":" horiz-adv-x="255" 
d="M127 477q42 0 68.5 -26t26.5 -67q0 -42 -26.5 -68.5t-68.5 -26.5q-41 0 -67.5 26.5t-26.5 68.5q0 41 26.5 67t67.5 26zM127 180q42 0 68.5 -26t26.5 -67q0 -42 -26.5 -68.5t-68.5 -26.5q-41 0 -67.5 26.5t-26.5 68.5q0 41 26.5 67t67.5 26z" />
    <glyph glyph-name="semicolon" unicode=";" horiz-adv-x="255" 
d="M127 289q-41 0 -67.5 26.5t-26.5 68.5q0 41 26.5 67t67.5 26q42 0 68.5 -26t26.5 -67q0 -42 -26.5 -68.5t-68.5 -26.5zM129 180q39 0 66 -25t27 -68q0 -37 -25 -74l-81 -117h-94l49 118q-37 25 -37 72q0 41 27 67.5t68 26.5z" />
    <glyph glyph-name="less" unicode="&#x3c;" horiz-adv-x="515" 
d="M484 589v-141l-323 -124l323 -125v-141l-453 185v161z" />
    <glyph glyph-name="equal" unicode="=" horiz-adv-x="515" 
d="M31 500h453v-126h-453v126zM31 282h453v-126h-453v126z" />
    <glyph glyph-name="greater" unicode="&#x3e;" horiz-adv-x="515" 
d="M31 67v141l323 124l-323 125v141l453 -185v-161z" />
    <glyph glyph-name="question" unicode="?" horiz-adv-x="486" 
d="M2 464q1 115 64 179t175 64q105 0 164 -46.5t59 -131.5q0 -41 -15.5 -75t-38 -57.5l-44.5 -45t-37.5 -48.5t-15.5 -58h-151q0 51 18 90.5t40 59.5t40 46.5t18 54.5q0 52 -56 52q-65 0 -65 -84h-155zM234 180q42 0 68.5 -26t26.5 -67q0 -42 -26.5 -68.5t-68.5 -26.5
q-41 0 -67.5 26.5t-26.5 68.5q0 41 26.5 67t67.5 26z" />
    <glyph glyph-name="at" unicode="@" horiz-adv-x="888" 
d="M656 162q0 -46 34 -46q30 0 53 44.5t23 111.5q0 144 -84.5 238t-231.5 94q-136 0 -232 -98.5t-96 -237.5q0 -137 90.5 -228t225.5 -91q105 0 186 62l49 -83q-43 -34 -109 -54.5t-126 -20.5q-179 0 -299 118.5t-120 296.5q0 181 125.5 306t305.5 125t299.5 -120.5
t119.5 -303.5q0 -110 -54 -177t-138 -67q-96 0 -118 75l-2 10q-51 -75 -140 -75q-85 0 -148.5 64.5t-63.5 165.5q0 97 55 165t143 68q34 0 64.5 -14t44 -26.5t15.5 -17.5v46h129v-330zM429 385q-37 0 -59.5 -31.5t-22.5 -77.5q0 -49 23 -84t61 -35q40 0 63.5 34t23.5 84
q0 47 -24 78.5t-65 31.5z" />
    <glyph glyph-name="A" unicode="A" horiz-adv-x="786" 
d="M572 0l-41 112h-283l-42 -112h-214l299 701h214l289 -701h-222zM306 264h170l-84 229z" />
    <glyph glyph-name="B" unicode="B" horiz-adv-x="720" 
d="M403 701q123 0 196 -48t73 -129q0 -53 -32 -94t-87 -57q64 -13 102.5 -61.5t38.5 -115.5q0 -90 -75 -143t-201 -53h-359v701h344zM392 426q31 0 49 16.5t18 44.5q0 27 -18 42.5t-49 15.5h-126v-119h126zM392 155q40 0 63 18t23 49q0 29 -23 45.5t-63 16.5h-126v-129h126z
" />
    <glyph glyph-name="C" unicode="C" horiz-adv-x="690" 
d="M566 441q-33 42 -78.5 67.5t-88.5 25.5q-71 0 -119 -51.5t-48 -128.5t48 -129t119 -52q40 0 85.5 22t81.5 59l120 -128q-57 -62 -137.5 -98.5t-159.5 -36.5q-160 0 -265 103t-105 258q0 153 107 254t270 101q80 0 158.5 -33.5t131.5 -90.5z" />
    <glyph glyph-name="D" unicode="D" horiz-adv-x="762" 
d="M366 701q170 0 273.5 -96t103.5 -254t-105.5 -254.5t-278.5 -96.5h-300v701h307zM372 163q71 0 115 51t44 135t-47 136t-122 52h-95v-374h105z" />
    <glyph glyph-name="E" unicode="E" 
d="M59 701h573v-160h-365v-110h331v-160h-331v-111h375v-160h-583v701z" />
    <glyph glyph-name="F" unicode="F" horiz-adv-x="619" 
d="M59 701h544v-160h-336v-140h312v-160h-312v-241h-208v701z" />
    <glyph glyph-name="G" unicode="G" horiz-adv-x="740" 
d="M517 192v171h179v-282q-57 -39 -141 -64.5t-159 -25.5q-163 0 -270 102t-107 257q0 154 111 255.5t280 101.5q80 0 160.5 -28.5t135.5 -77.5l-118 -143q-36 35 -84.5 55.5t-94.5 20.5q-76 0 -126.5 -52.5t-50.5 -131.5q0 -80 51 -132.5t128 -52.5q46 0 106 27z" />
    <glyph glyph-name="H" unicode="H" horiz-adv-x="783" 
d="M59 701h208v-279h249v279h208v-701h-208v261h-249v-261h-208v701z" />
    <glyph glyph-name="I" unicode="I" horiz-adv-x="326" 
d="M59 701h208v-701h-208v701z" />
    <glyph glyph-name="J" unicode="J" horiz-adv-x="554" 
d="M507 232q0 -114 -68.5 -177.5t-186.5 -63.5q-153 0 -259 117l95 137q78 -79 147 -79q29 0 45.5 18t16.5 53v298h-238v166h448v-469z" />
    <glyph glyph-name="K" unicode="K" horiz-adv-x="761" 
d="M758 0h-249l-163 256l-79 -88v-168h-208v701h208v-270l235 270h240l-254 -285z" />
    <glyph glyph-name="L" unicode="L" horiz-adv-x="574" 
d="M59 701h208v-527h294v-174h-502v701z" />
    <glyph glyph-name="M" unicode="M" horiz-adv-x="902" 
d="M59 701h223l169 -388l169 388h223v-701h-182l-1 415l-141 -346h-136l-141 346v-415h-183v701z" />
    <glyph glyph-name="N" unicode="N" horiz-adv-x="783" 
d="M59 701h178l297 -392v392h190v-701h-177l-297 390v-390h-191v701z" />
    <glyph glyph-name="O" unicode="O" horiz-adv-x="802" 
d="M401 707q165 0 273.5 -101t108.5 -255q0 -155 -108.5 -257.5t-273.5 -102.5t-273.5 102.5t-108.5 257.5q0 154 108.5 255t273.5 101zM404 533q-71 0 -121.5 -52.5t-50.5 -130.5t51 -131.5t121 -53.5t118 53t48 132t-48 131t-118 52z" />
    <glyph glyph-name="P" unicode="P" 
d="M377 701q136 0 210.5 -65t74.5 -184q0 -125 -74.5 -194t-210.5 -69h-110v-189h-208v701h318zM367 349q47 0 72.5 25t25.5 72q0 46 -25.5 70.5t-72.5 24.5h-100v-192h100z" />
    <glyph glyph-name="Q" unicode="Q" horiz-adv-x="805" 
d="M745 31l70 -125q-41 -35 -98 -56.5t-111 -21.5q-76 0 -136 44t-91 120q-157 8 -258.5 108.5t-101.5 250.5q0 154 108.5 255t273.5 101t273.5 -101t108.5 -255q0 -113 -60.5 -201t-163.5 -130q31 -39 70 -39q48 0 116 50zM232 350q0 -78 51 -131.5t121 -53.5t118 53
t48 132t-48 131t-118 52q-71 0 -121.5 -52.5t-50.5 -130.5z" />
    <glyph glyph-name="R" unicode="R" horiz-adv-x="725" 
d="M706 0h-236l-93 189h-110v-189h-208v701h327q141 0 218.5 -65t77.5 -184q0 -156 -118 -223zM267 541v-192h119q47 0 72.5 25t25.5 72q0 46 -25.5 70.5t-72.5 24.5h-119z" />
    <glyph glyph-name="S" unicode="S" horiz-adv-x="655" 
d="M563 469q-56 32 -123 55t-110 23q-58 0 -58 -38q0 -24 27 -40.5t68 -25.5t88 -25.5t88 -37.5t68 -64t27 -102q0 -107 -82 -163.5t-207 -56.5q-90 0 -180.5 30t-156.5 81l78 158q53 -45 129.5 -76t131.5 -31q72 0 72 47q0 24 -27 41t-68 25.5t-88 24t-88 35t-68 61
t-27 99.5q0 101 79 161t211 60q167 0 293 -81z" />
    <glyph glyph-name="T" unicode="T" horiz-adv-x="628" 
d="M6 701h616v-166h-204v-535h-209v535h-203v166z" />
    <glyph glyph-name="U" unicode="U" horiz-adv-x="755" 
d="M256 296q0 -59 35.5 -95t89.5 -36q53 0 85.5 35t32.5 96v405h208v-405q0 -140 -88.5 -222.5t-238.5 -82.5q-151 0 -241.5 83t-90.5 222v405h208v-405z" />
    <glyph glyph-name="V" unicode="V" horiz-adv-x="748" 
d="M-3 701h222l160 -485l160 485h213l-271 -701h-216z" />
    <glyph glyph-name="W" unicode="W" horiz-adv-x="1103" 
d="M-3 701h222l120 -485l117 485h203l120 -485l117 485h213l-230 -701h-214l-112 447l-114 -447h-214z" />
    <glyph glyph-name="X" unicode="X" horiz-adv-x="756" 
d="M15 701h242l116 -183l117 183h245l-229 -335l250 -366h-250l-133 200l-131 -200h-243l248 357z" />
    <glyph glyph-name="Y" unicode="Y" horiz-adv-x="702" 
d="M709 701l-252 -479v-222h-208v218l-257 483h208l153 -286l149 286h207z" />
    <glyph glyph-name="Z" unicode="Z" horiz-adv-x="679" 
d="M36 701h613v-132l-348 -407h355v-162h-632v131l348 408h-336v162z" />
    <glyph glyph-name="bracketleft" unicode="[" horiz-adv-x="370" 
d="M59 742h298v-149h-119v-568h119v-149h-298v866z" />
    <glyph glyph-name="backslash" unicode="\" horiz-adv-x="409" 
d="M122 808l327 -915h-169l-327 915h169z" />
    <glyph glyph-name="bracketright" unicode="]" horiz-adv-x="413" 
d="M354 742v-866h-298v149h119v568h-119v149h298z" />
    <glyph glyph-name="asciicircum" unicode="^" horiz-adv-x="593" 
d="M562 141h-141l-124 273l-125 -273h-141l185 383h161z" />
    <glyph glyph-name="underscore" unicode="_" horiz-adv-x="592" 
d="M0 -95h592v-109h-592v109z" />
    <glyph glyph-name="grave" unicode="`" horiz-adv-x="350" 
d="M208 775l107 -180h-148l-134 122z" />
    <glyph glyph-name="a" unicode="a" horiz-adv-x="607" 
d="M317 552q115 0 179.5 -52.5t64.5 -146.5v-353h-198v60q-52 -69 -159 -69q-86 0 -135 46.5t-49 124.5q0 79 53.5 121.5t156.5 43.5h133v2q0 34 -24 53t-70 19q-74 0 -164 -39l-50 134q138 56 262 56zM271 123q31 0 56 15t36 41v49h-92q-61 0 -61 -51q0 -26 16 -40t45 -14z
" />
    <glyph glyph-name="b" unicode="b" horiz-adv-x="688" 
d="M417 551q114 0 183 -77t69 -205q0 -125 -67.5 -200.5t-179.5 -75.5q-96 0 -154 70v-63h-202v742h202v-261q56 70 149 70zM366 153q45 0 72 33.5t27 87.5t-27 87.5t-72 33.5q-44 0 -71 -33.5t-27 -87.5t27 -87.5t71 -33.5z" />
    <glyph glyph-name="c" unicode="c" horiz-adv-x="562" 
d="M400 333q-30 54 -87 54q-40 0 -65 -32t-25 -84q0 -53 24.5 -85.5t65.5 -32.5q61 0 86 60l157 -79q-31 -67 -97.5 -104t-156.5 -37q-128 0 -205.5 76t-77.5 201q0 127 78 204t207 77q85 0 150.5 -37t100.5 -105z" />
    <glyph glyph-name="d" unicode="d" horiz-adv-x="688" 
d="M420 742h202v-742h-202v62q-56 -69 -149 -69q-114 0 -183 77t-69 205q0 125 67.5 200.5t179.5 75.5q96 0 154 -70v261zM322 148q44 0 71 33.5t27 88.5q0 54 -27 87.5t-71 33.5q-45 0 -72 -33.5t-27 -87.5q0 -55 27 -88.5t72 -33.5z" />
    <glyph glyph-name="e" unicode="e" horiz-adv-x="609" 
d="M306 551q142 0 217 -88.5t66 -239.5h-366q25 -81 106 -81q63 0 120 52l105 -103q-89 -98 -242 -98q-136 0 -214.5 75.5t-78.5 201.5q0 127 79 204t208 77zM390 322q1 40 -22 66t-60 26q-35 0 -58 -25t-31 -67h171z" />
    <glyph glyph-name="f" unicode="f" horiz-adv-x="409" 
d="M355 594q-26 0 -41.5 -14t-15.5 -38v-26h113v-129h-113v-387h-200v387h-74v129h74v50q0 86 60 136t157 49q98 0 167 -39l-69 -139q-29 21 -58 21z" />
    <glyph glyph-name="g" unicode="g" horiz-adv-x="651" 
d="M393 544h200v-497q0 -114 -82.5 -182t-216.5 -68q-144 0 -251 71l67 136q75 -50 167 -50q54 0 85 23.5t31 63.5v55q-54 -65 -146 -65q-100 0 -164 72.5t-64 190.5q0 115 62.5 186t161.5 71q95 0 150 -66v59zM300 176q42 0 67.5 31t25.5 81q0 52 -25.5 83t-67.5 31
q-41 0 -66.5 -31.5t-25.5 -82.5q0 -50 25.5 -81t66.5 -31z" />
    <glyph glyph-name="h" unicode="h" 
d="M441 552q88 0 142 -56.5t54 -150.5v-345h-202v287q0 41 -21 64.5t-57 23.5q-41 -1 -65 -30t-24 -76v-269h-202v742h202v-282q58 92 173 92z" />
    <glyph glyph-name="i" unicode="i" horiz-adv-x="324" 
d="M163 803q46 0 75 -29t29 -75t-29 -75t-75 -29t-75 29t-29 75t29 75t75 29zM61 544h202v-544h-202v544z" />
    <glyph glyph-name="j" unicode="j" horiz-adv-x="335" 
d="M166 803q49 0 80.5 -29t31.5 -75t-31.5 -75t-80.5 -29t-80.5 29t-31.5 75t31.5 75t80.5 29zM267 -17q0 -86 -57.5 -136t-150.5 -49q-85 0 -147 34l47 140q31 -17 58 -17q48 0 48 52v537h202v-561z" />
    <glyph glyph-name="k" unicode="k" horiz-adv-x="648" 
d="M408 0l-99 189l-41 -43v-146h-202v742h202v-361l150 163h228l-199 -210l200 -334h-239z" />
    <glyph glyph-name="l" unicode="l" horiz-adv-x="335" 
d="M66 742h202v-742h-202v742z" />
    <glyph glyph-name="m" unicode="m" horiz-adv-x="1034" 
d="M795 552q87 0 140 -56.5t53 -150.5v-345h-202v287q0 40 -20.5 64t-54.5 24q-39 -1 -62 -30t-23 -76v-269h-202v287q0 40 -20.5 64t-54.5 24q-39 -1 -62.5 -30t-23.5 -76v-269h-202v544h202v-83q57 91 169 91q63 0 110 -31t69 -87q54 118 184 118z" />
    <glyph glyph-name="n" unicode="n" horiz-adv-x="678" 
d="M436 552q88 0 142 -56.5t54 -150.5v-345h-202v287q0 40 -21.5 64t-56.5 24q-41 -1 -65 -30t-24 -76v-269h-202v544h202v-84q58 92 173 92z" />
    <glyph glyph-name="o" unicode="o" horiz-adv-x="643" 
d="M322 551q137 0 219.5 -76t82.5 -203q0 -126 -82.5 -202.5t-219.5 -76.5t-220 76.5t-83 202.5q0 127 83 203t220 76zM322 391q-45 0 -72 -33.5t-27 -87.5q0 -55 27 -88t72 -33q44 0 71 33t27 88q0 54 -27 87.5t-71 33.5z" />
    <glyph glyph-name="p" unicode="p" horiz-adv-x="688" 
d="M417 551q114 0 183 -77t69 -205q0 -125 -67.5 -200.5t-179.5 -75.5q-96 0 -154 70v-257h-202v738h202v-63q56 70 149 70zM366 153q45 0 72 33.5t27 87.5t-27 87.5t-72 33.5q-44 0 -71 -33.5t-27 -87.5t27 -87.5t71 -33.5z" />
    <glyph glyph-name="q" unicode="q" horiz-adv-x="688" 
d="M420 544h202v-738h-202v256q-56 -69 -149 -69q-114 0 -183 77t-69 205q0 125 67.5 200.5t179.5 75.5q96 0 154 -70v63zM322 148q44 0 71 33.5t27 88.5q0 54 -27 87.5t-71 33.5q-45 0 -72 -33.5t-27 -87.5q0 -55 27 -88.5t72 -33.5z" />
    <glyph glyph-name="r" unicode="r" horiz-adv-x="444" 
d="M263 458q60 94 171 94v-182q-78 10 -124.5 -20.5t-46.5 -89.5v-260h-202v544h202v-86z" />
    <glyph glyph-name="s" unicode="s" horiz-adv-x="535" 
d="M444 360q-111 57 -178 57q-41 0 -41 -26q0 -16 29.5 -28t71 -23t83 -28t71 -53t29.5 -88q0 -83 -65.5 -131.5t-173.5 -48.5q-149 0 -256 77l62 127q104 -67 197 -67q45 0 45 25q0 16 -28.5 28t-69.5 23t-82 27.5t-69.5 52t-28.5 87.5q0 84 64 133t168 49q125 0 239 -66z
" />
    <glyph glyph-name="t" unicode="t" horiz-adv-x="449" 
d="M397 165l36 -139q-60 -35 -151 -35q-88 -1 -141 47t-53 132v217h-75v129h75v151h201v-151h134v-129h-134v-186q0 -52 46 -52q19 0 62 16z" />
    <glyph glyph-name="u" unicode="u" horiz-adv-x="668" 
d="M405 544h202v-544h-202v81q-57 -90 -167 -90q-86 0 -139 56.5t-53 151.5v345h202v-288q0 -40 20 -63.5t53 -23.5q39 1 61.5 30t22.5 76v269z" />
    <glyph glyph-name="v" unicode="v" horiz-adv-x="594" 
d="M-8 544h208l100 -360l101 360h202l-203 -544h-206z" />
    <glyph glyph-name="w" unicode="w" horiz-adv-x="959" 
d="M-8 544h205l98 -347l94 347h190l97 -347l96 347h196l-198 -544h-199l-90 312l-92 -312h-199z" />
    <glyph glyph-name="x" unicode="x" horiz-adv-x="633" 
d="M10 544h232l75 -141l84 141h220l-170 -265l182 -279h-232l-84 154l-96 -154h-222l182 278z" />
    <glyph glyph-name="y" unicode="y" horiz-adv-x="605" 
d="M385 -46q-63 -157 -226 -157q-96 0 -175 60l84 135q35 -31 73 -31q41 0 59 35l10 19l-225 529h207l119 -333l101 333h201z" />
    <glyph glyph-name="z" unicode="z" horiz-adv-x="561" 
d="M537 0h-508v119l244 273h-234v152h488v-120l-244 -273h254v-151z" />
    <glyph glyph-name="braceleft" unicode="{" horiz-adv-x="370" 
d="M274 437q0 -58 -20.5 -87.5t-70.5 -40.5q50 -12 70.5 -41.5t20.5 -86.5v-97q0 -35 17 -48t67 -13v-149h-79q-104 0 -144.5 32.5t-40.5 114.5v173q0 21 -7.5 29.5t-25.5 8.5h-42v153h42q18 0 25.5 8.5t7.5 30.5v173q0 82 41 114.5t144 32.5h79v-149q-50 0 -67 -13t-17 -48
v-97z" />
    <glyph glyph-name="bar" unicode="|" horiz-adv-x="314" 
d="M82 799h150v-905h-150v905z" />
    <glyph glyph-name="braceright" unicode="}" horiz-adv-x="385" 
d="M332 385h42v-153h-42q-18 0 -25.5 -8.5t-7.5 -29.5v-173q0 -82 -40.5 -114.5t-144.5 -32.5h-79v149q50 0 67 13t17 48v97q0 57 20.5 86.5t70.5 41.5q-50 11 -70.5 40.5t-20.5 87.5v97q0 35 -17 48t-67 13v149h79q103 0 144 -32.5t41 -114.5v-173q0 -22 7.5 -30.5
t25.5 -8.5z" />
    <glyph glyph-name="asciitilde" unicode="~" horiz-adv-x="515" 
d="M465 418q0 -187 -121 -187q-30 0 -56 11.5t-44.5 23.5t-29.5 12q-28 0 -28 -43h-135q0 187 122 187q38 0 78.5 -23.5t50.5 -23.5q29 0 29 43h134z" />
    <glyph glyph-name="uni00A0" unicode="&#xa0;" horiz-adv-x="219" 
 />
    <glyph glyph-name="exclamdown" unicode="&#xa1;" horiz-adv-x="276" 
d="M145 363q-42 0 -68.5 26t-26.5 67q0 42 26.5 68.5t68.5 26.5q41 0 67.5 -26.5t26.5 -68.5q0 -41 -26.5 -67t-67.5 -26zM237 -156h-192v182l35 267h121l36 -267v-182z" />
    <glyph glyph-name="cent" unicode="&#xa2;" horiz-adv-x="600" 
d="M556 134q-49 -104 -171 -132v-162h-149v159q-100 19 -158.5 91.5t-58.5 179.5q0 109 58.5 182t158.5 93v162h149v-166q117 -28 170 -132l-155 -76q-30 54 -87 54q-40 0 -65 -32t-25 -84q0 -53 24.5 -85.5t65.5 -32.5q61 0 86 60z" />
    <glyph glyph-name="sterling" unicode="&#xa3;" horiz-adv-x="562" 
d="M305 272v-116h247v-156h-528v156h72v116h-72v136h72v60q0 115 66 178.5t185 63.5q131 0 220 -84l-77 -153q-63 63 -120 63q-65 0 -65 -72v-56h163v-136h-163z" />
    <glyph glyph-name="currency" unicode="&#xa4;" horiz-adv-x="697" 
d="M605 322q0 -64 -30 -119l103 -102l-113 -113l-104 104q-52 -26 -113 -26t-113 26l-103 -104l-113 113l102 101q-30 57 -30 120q0 60 27 114l-99 98l113 113l97 -98q55 29 119 29q66 0 119 -29l98 98l113 -113l-99 -99q26 -52 26 -113zM348 224q41 0 71 29t30 69
q0 41 -30 70.5t-71 29.5t-70.5 -29.5t-29.5 -70.5q0 -40 29.5 -69t70.5 -29z" />
    <glyph glyph-name="yen" unicode="&#xa5;" horiz-adv-x="684" 
d="M710 701l-186 -352h98v-74h-137l-28 -54h165v-75h-165v-146h-208v146h-183v75h181l-28 54h-153v74h113l-187 352h208l153 -286l149 286h208z" />
    <glyph glyph-name="brokenbar" unicode="&#xa6;" horiz-adv-x="314" 
d="M82 799h150v-340h-150v340zM82 235h150v-341h-150v341z" />
    <glyph glyph-name="section" unicode="&#xa7;" horiz-adv-x="568" 
d="M474 504q-116 57 -178 57q-47 0 -47 -26q0 -17 30.5 -31t74.5 -27t87.5 -31t74 -53.5t30.5 -84.5q0 -91 -94 -136q29 -20 41.5 -40t12.5 -54q0 -74 -64 -120.5t-172 -46.5q-145 0 -256 78l55 125q109 -68 197 -68q52 0 52 26q0 16 -30 29.5t-73 26t-86 30.5t-73 53.5
t-30 84.5q0 92 98 136q-33 20 -45.5 41.5t-12.5 52.5q0 75 62 121.5t166 46.5q119 0 240 -65zM267 339q-59 0 -59 -30q0 -18 25.5 -29.5t63.5 -11.5q62 0 62 29q0 18 -27 30t-65 12z" />
    <glyph glyph-name="dieresis" unicode="&#xa8;" horiz-adv-x="358" 
d="M74 782q38 0 62 -24t24 -62t-24 -62t-62 -24t-62 24t-24 62t24 62t62 24zM276 782q38 0 62 -24t24 -62t-24 -62t-62 -24t-62 24t-24 62t24 62t62 24z" />
    <glyph glyph-name="copyright" unicode="&#xa9;" horiz-adv-x="715" 
d="M358 689q142 0 240 -99.5t98 -239.5t-99 -240.5t-241 -100.5q-141 0 -239 99.5t-98 239.5t98.5 240.5t240.5 100.5zM358 598q-104 0 -176 -73.5t-72 -176.5t71 -175.5t175 -72.5q105 0 177 73.5t72 176.5t-71.5 175.5t-175.5 72.5zM442 390q-33 43 -76 43
q-33 0 -55 -23.5t-22 -58.5q0 -36 22 -59.5t55 -23.5q40 0 76 36l55 -58q-57 -62 -136 -62q-73 0 -121 47t-48 118t49 117t124 46q36 0 72 -15.5t60 -41.5z" />
    <glyph glyph-name="ordfeminine" unicode="&#xaa;" horiz-adv-x="397" 
d="M207 790q75 0 117 -31.5t41 -88.5v-212h-134v37q-33 -43 -100 -43q-54 0 -84.5 28t-30.5 75q0 97 133 99h82q-2 38 -57 38q-42 0 -105 -21l-31 88q95 31 169 31zM178 536q34 0 53 27v30h-53q-33 0 -33 -27q0 -30 33 -30z" />
    <glyph glyph-name="guillemotleft" unicode="&#xab;" horiz-adv-x="526" 
d="M114 459h162l-106 -189l106 -190h-162l-123 190zM356 459h162l-106 -189l106 -190h-162l-123 190z" />
    <glyph glyph-name="logicalnot" unicode="&#xac;" horiz-adv-x="586" 
d="M529 439v-307h-144v180h-354v127h498z" />
    <glyph glyph-name="uni00AD" unicode="&#xad;" horiz-adv-x="377" 
d="M52 371h273v-126h-273v126z" />
    <glyph glyph-name="registered" unicode="&#xae;" horiz-adv-x="715" 
d="M358 689q142 0 240 -99.5t98 -239.5t-99 -240.5t-241 -100.5q-141 0 -239 99.5t-98 239.5t98.5 240.5t240.5 100.5zM356 100q105 0 177 73.5t72 176.5t-71.5 175.5t-175.5 72.5t-176 -73.5t-72 -176.5t71 -175.5t175 -72.5zM499 407q0 -70 -53 -100l64 -101h-103l-42 84
h-46v-84h-91v310h140q62 0 96.5 -28.5t34.5 -80.5zM319 447v-88h49q44 0 44 44t-44 44h-49z" />
    <glyph glyph-name="macron" unicode="&#xaf;" horiz-adv-x="350" 
d="M30 761h290v-133h-290v133z" />
    <glyph glyph-name="degree" unicode="&#xb0;" horiz-adv-x="389" 
d="M205 821q49 0 84.5 -35.5t35.5 -84.5t-35 -84t-85 -35t-85 35t-35 84t35.5 84.5t84.5 35.5zM205 745q-18 0 -31 -13t-13 -31t13 -30.5t31 -12.5t31 12.5t13 30.5t-13 31t-31 13z" />
    <glyph glyph-name="plusminus" unicode="&#xb1;" horiz-adv-x="515" 
d="M321 467h163v-121h-163v-156h-126v156h-164v121h164v156h126v-156zM31 -8v126h453v-126h-453z" />
    <glyph glyph-name="uni00B2" unicode="&#xb2;" horiz-adv-x="392" 
d="M183 518q33 35 33 56q0 23 -32 23q-51 0 -118 -54l-53 98q98 65 194 65q68 0 112.5 -31.5t44.5 -81.5q0 -59 -85 -141l-69 -66h161v-105h-341v85z" />
    <glyph glyph-name="uni00B3" unicode="&#xb3;" horiz-adv-x="370" 
d="M254 530q44 -9 71 -39.5t27 -76.5q0 -61 -48 -100t-127 -39q-107 0 -175 56l56 103q48 -58 107 -58q48 0 48 38t-48 38h-78v71l85 78h-148v98h308v-76l-97 -88z" />
    <glyph glyph-name="acute" unicode="&#xb4;" horiz-adv-x="350" 
d="M141 775l175 -58l-134 -122h-148z" />
    <glyph glyph-name="paragraph" unicode="&#xb6;" horiz-adv-x="668" 
d="M226 307h-24q-59 0 -102.5 21t-65.5 55t-32 68t-10 69q0 94 62 158t190 64h365v-848h-149v736h-85v-736h-149v413z" />
    <glyph glyph-name="periodcentered" unicode="&#xb7;" horiz-adv-x="254" 
d="M126 383q41 0 67.5 -25.5t26.5 -66.5t-26.5 -67.5t-67.5 -26.5t-67 26.5t-26 67.5t26 66.5t67 25.5z" />
    <glyph glyph-name="cedilla" unicode="&#xb8;" horiz-adv-x="350" 
d="M224 -51q31 -10 49 -32t18 -50q0 -49 -36.5 -79t-97.5 -30q-50 0 -98 33l36 82q20 -20 45 -20q18 0 28.5 9.5t10.5 24.5q0 35 -44 35q-12 0 -36 -4l49 98h111z" />
    <glyph glyph-name="uni00B9" unicode="&#xb9;" horiz-adv-x="281" 
d="M7 701h218v-420h-141v312h-77v108z" />
    <glyph glyph-name="ordmasculine" unicode="&#xba;" horiz-adv-x="416" 
d="M208 789q88 0 140.5 -45.5t52.5 -122.5q0 -76 -52.5 -121.5t-140.5 -45.5t-140 45.5t-52 121.5q0 77 52 122.5t140 45.5zM208 685q-25 0 -39.5 -18t-14.5 -47t14.5 -47t39.5 -18q24 0 39 18t15 47t-15 47t-39 18z" />
    <glyph glyph-name="guillemotright" unicode="&#xbb;" horiz-adv-x="528" 
d="M176 80h-162l106 189l-106 190h162l123 -190zM418 80h-162l106 189l-106 190h162l123 -190z" />
    <glyph glyph-name="onequarter" unicode="&#xbc;" horiz-adv-x="912" 
d="M7 701h218v-420h-141v312h-77v108zM569 701h188l-492 -701h-189zM638 419h135l-121 -241h64v82h131v-82h56v-96h-56v-82h-131v82h-207v89z" />
    <glyph glyph-name="onehalf" unicode="&#xbd;" horiz-adv-x="935" 
d="M7 701h218v-420h-141v312h-77v108zM569 701h188l-492 -701h-189zM726 236q33 35 33 56q0 23 -32 23q-50 0 -118 -53l-53 97q100 66 194 66q68 0 112.5 -31.5t44.5 -81.5q0 -60 -85 -142l-69 -66h161v-104h-341v85z" />
    <glyph glyph-name="threequarters" unicode="&#xbe;" horiz-adv-x="971" 
d="M628 701h188l-492 -701h-189zM254 530q44 -9 71 -39.5t27 -76.5q0 -61 -48 -100t-127 -39q-107 0 -175 56l56 103q48 -58 107 -58q48 0 48 38t-48 38h-78v71l85 78h-148v98h308v-76l-97 -88zM697 419h135l-121 -241h64v82h131v-82h56v-96h-56v-82h-131v82h-207v89z" />
    <glyph glyph-name="questiondown" unicode="&#xbf;" horiz-adv-x="486" 
d="M252 363q-42 0 -68.5 26t-26.5 67q0 42 26.5 68.5t68.5 26.5q41 0 67.5 -26.5t26.5 -68.5q0 -41 -26.5 -67t-67.5 -26zM484 79q-1 -115 -64 -179t-175 -64q-105 0 -164 46.5t-59 131.5q0 41 15.5 75t38 57.5l44.5 45t37.5 48.5t15.5 58h151q0 -51 -18 -90.5t-40 -59.5
t-40 -46.5t-18 -54.5q0 -52 56 -52q65 0 65 84h155z" />
    <glyph glyph-name="Agrave" unicode="&#xc0;" horiz-adv-x="786" 
d="M496 752h-148l-134 122l175 58zM572 0l-41 112h-283l-42 -112h-214l299 701h214l289 -701h-222zM306 264h170l-84 229z" />
    <glyph glyph-name="Aacute" unicode="&#xc1;" horiz-adv-x="786" 
d="M579 874l-134 -122h-148l107 180zM572 0l-41 112h-283l-42 -112h-214l299 701h214l289 -701h-222zM306 264h170l-84 229z" />
    <glyph glyph-name="Acircumflex" unicode="&#xc2;" horiz-adv-x="786" 
d="M394 849l-56 -83h-139l117 157h156l117 -157h-139zM572 0l-41 112h-283l-42 -112h-214l299 701h214l289 -701h-222zM306 264h170l-84 229z" />
    <glyph glyph-name="Atilde" unicode="&#xc3;" horiz-adv-x="786" 
d="M356 814q-26 0 -26 -40h-123q0 171 112 171q34 0 69.5 -21.5t43.5 -21.5q27 0 27 40h122q0 -171 -111 -171q-36 0 -71 21.5t-43 21.5zM572 0l-41 112h-283l-42 -112h-214l299 701h214l289 -701h-222zM306 264h170l-84 229z" />
    <glyph glyph-name="Adieresis" unicode="&#xc4;" horiz-adv-x="786" 
d="M293 767q-37 0 -61.5 24.5t-24.5 61.5t24.5 61.5t61.5 24.5t61.5 -24.5t24.5 -61.5t-24.5 -61.5t-61.5 -24.5zM495 767q-37 0 -61.5 24.5t-24.5 61.5t24.5 61.5t61.5 24.5t61.5 -24.5t24.5 -61.5t-24.5 -61.5t-61.5 -24.5zM572 0l-41 112h-283l-42 -112h-214l299 701h214
l289 -701h-222zM306 264h170l-84 229z" />
    <glyph glyph-name="Aring" unicode="&#xc5;" horiz-adv-x="786" 
d="M572 0l-41 112h-283l-42 -112h-214l295 692q-21 34 -21 72q0 55 38 93t93 38t93.5 -38t38.5 -93q0 -39 -21 -71l286 -693h-222zM397 811q-20 0 -34 -13.5t-14 -33.5t14 -33.5t34 -13.5t34 13.5t14 33.5t-14 33.5t-34 13.5zM306 264h170l-84 229z" />
    <glyph glyph-name="AE" unicode="&#xc6;" horiz-adv-x="1127" 
d="M711 160h375v-160h-583v133h-227l-68 -133h-216l394 701h690v-160h-365v-110h331v-160h-331v-111zM353 283h150v259h-18z" />
    <glyph glyph-name="Ccedilla" unicode="&#xc7;" horiz-adv-x="690" 
d="M399 173q40 0 85.5 22t81.5 59l120 -128q-47 -51 -111 -85t-131 -45l-24 -47q31 -10 49 -32t18 -50q0 -49 -36.5 -79t-97.5 -30q-50 0 -98 33l36 82q20 -20 45 -20q18 0 28.5 9.5t10.5 24.5q0 35 -44 35q-12 0 -36 -4l38 77q-139 18 -226.5 117t-87.5 240q0 153 107 254
t270 101q80 0 158.5 -33.5t131.5 -90.5l-120 -142q-33 42 -78.5 67.5t-88.5 25.5q-71 0 -119 -51.5t-48 -128.5t48 -129t119 -52z" />
    <glyph glyph-name="Egrave" unicode="&#xc8;" 
d="M342 932l107 -180h-148l-134 122zM59 701h573v-160h-365v-110h331v-160h-331v-111h375v-160h-583v701z" />
    <glyph glyph-name="Eacute" unicode="&#xc9;" 
d="M357 932l175 -58l-134 -122h-148zM59 701h573v-160h-365v-110h331v-160h-331v-111h375v-160h-583v701z" />
    <glyph glyph-name="Ecircumflex" unicode="&#xca;" 
d="M269 923h156l117 -157h-139l-56 83l-56 -83h-139zM59 701h573v-160h-365v-110h331v-160h-331v-111h375v-160h-583v701z" />
    <glyph glyph-name="Edieresis" unicode="&#xcb;" 
d="M246 939q38 0 62 -24.5t24 -61.5t-24 -61.5t-62 -24.5t-62 24.5t-24 61.5t24 61.5t62 24.5zM448 939q38 0 62 -24.5t24 -61.5t-24 -61.5t-62 -24.5t-62 24.5t-24 61.5t24 61.5t62 24.5zM59 701h573v-160h-365v-110h331v-160h-331v-111h375v-160h-583v701z" />
    <glyph glyph-name="Igrave" unicode="&#xcc;" horiz-adv-x="326" 
d="M158 932l107 -180h-148l-134 122zM59 701h208v-701h-208v701z" />
    <glyph glyph-name="Iacute" unicode="&#xcd;" horiz-adv-x="326" 
d="M173 932l175 -58l-134 -122h-148zM59 701h208v-701h-208v701z" />
    <glyph glyph-name="Icircumflex" unicode="&#xce;" horiz-adv-x="326" 
d="M85 923h156l117 -157h-139l-56 83l-56 -83h-139zM59 701h208v-701h-208v701z" />
    <glyph glyph-name="Idieresis" unicode="&#xcf;" horiz-adv-x="326" 
d="M62 939q38 0 62 -24.5t24 -61.5t-24 -61.5t-62 -24.5t-62 24.5t-24 61.5t24 61.5t62 24.5zM264 939q38 0 62 -24.5t24 -61.5t-24 -61.5t-62 -24.5t-62 24.5t-24 61.5t24 61.5t62 24.5zM59 701h208v-701h-208v701z" />
    <glyph glyph-name="Eth" unicode="&#xd0;" horiz-adv-x="801" 
d="M404 701q170 0 273.5 -96t103.5 -254t-105.5 -254.5t-278.5 -96.5h-300v297h-97v108h97v296h307zM410 163q71 0 115 51t44 135t-47 136t-122 52h-95v-132h139v-108h-139v-134h105z" />
    <glyph glyph-name="Ntilde" unicode="&#xd1;" horiz-adv-x="783" 
d="M579 942q0 -171 -111 -171q-35 0 -70.5 21.5t-43.5 21.5q-26 0 -26 -40h-123q0 171 112 171q34 0 69.5 -21.5t43.5 -21.5q27 0 27 40h122zM59 701h178l297 -392v392h190v-701h-177l-297 390v-390h-191v701z" />
    <glyph glyph-name="Ograve" unicode="&#xd2;" horiz-adv-x="802" 
d="M387 932l107 -180h-148l-134 122zM401 707q165 0 273.5 -101t108.5 -255q0 -155 -108.5 -257.5t-273.5 -102.5t-273.5 102.5t-108.5 257.5q0 154 108.5 255t273.5 101zM404 533q-71 0 -121.5 -52.5t-50.5 -130.5t51 -131.5t121 -53.5t118 53t48 132t-48 131t-118 52z" />
    <glyph glyph-name="Oacute" unicode="&#xd3;" horiz-adv-x="802" 
d="M402 932l175 -58l-134 -122h-148zM401 707q165 0 273.5 -101t108.5 -255q0 -155 -108.5 -257.5t-273.5 -102.5t-273.5 102.5t-108.5 257.5q0 154 108.5 255t273.5 101zM404 533q-71 0 -121.5 -52.5t-50.5 -130.5t51 -131.5t121 -53.5t118 53t48 132t-48 131t-118 52z" />
    <glyph glyph-name="Ocircumflex" unicode="&#xd4;" horiz-adv-x="802" 
d="M314 923h156l117 -157h-139l-56 83l-56 -83h-139zM401 707q165 0 273.5 -101t108.5 -255q0 -155 -108.5 -257.5t-273.5 -102.5t-273.5 102.5t-108.5 257.5q0 154 108.5 255t273.5 101zM404 533q-71 0 -121.5 -52.5t-50.5 -130.5t51 -131.5t121 -53.5t118 53t48 132
t-48 131t-118 52z" />
    <glyph glyph-name="Otilde" unicode="&#xd5;" horiz-adv-x="802" 
d="M579 942q0 -171 -111 -171q-35 0 -70.5 21.5t-43.5 21.5q-26 0 -26 -40h-123q0 171 112 171q34 0 69.5 -21.5t43.5 -21.5q27 0 27 40h122zM401 707q165 0 273.5 -101t108.5 -255q0 -155 -108.5 -257.5t-273.5 -102.5t-273.5 102.5t-108.5 257.5q0 154 108.5 255
t273.5 101zM404 533q-71 0 -121.5 -52.5t-50.5 -130.5t51 -131.5t121 -53.5t118 53t48 132t-48 131t-118 52z" />
    <glyph glyph-name="Odieresis" unicode="&#xd6;" horiz-adv-x="802" 
d="M291 939q37 0 61.5 -24.5t24.5 -61.5t-24.5 -61.5t-61.5 -24.5t-61.5 24.5t-24.5 61.5t24.5 61.5t61.5 24.5zM493 939q37 0 61.5 -24.5t24.5 -61.5t-24.5 -61.5t-61.5 -24.5t-61.5 24.5t-24.5 61.5t24.5 61.5t61.5 24.5zM401 707q165 0 273.5 -101t108.5 -255
q0 -155 -108.5 -257.5t-273.5 -102.5t-273.5 102.5t-108.5 257.5q0 154 108.5 255t273.5 101zM404 533q-71 0 -121.5 -52.5t-50.5 -130.5t51 -131.5t121 -53.5t118 53t48 132t-48 131t-118 52z" />
    <glyph glyph-name="multiply" unicode="&#xd7;" horiz-adv-x="515" 
d="M463 443l-115 -115l115 -115l-90 -90l-115 115l-116 -115l-89 90l115 115l-115 115l89 90l116 -115l115 115z" />
    <glyph glyph-name="Oslash" unicode="&#xd8;" horiz-adv-x="802" 
d="M570 674q98 -43 155.5 -128.5t57.5 -194.5q0 -155 -108.5 -257.5t-273.5 -102.5q-37 0 -72 6l-38 -106h-115l49 137q-95 44 -150.5 129.5t-55.5 193.5q0 154 108.5 255t273.5 101q22 0 64 -4l37 103h115zM232 350q0 -84 58 -139l115 322h-1q-71 0 -121.5 -52.5
t-50.5 -130.5zM404 165q70 0 118 53t48 132q0 92 -64 146l-117 -330q5 -1 15 -1z" />
    <glyph glyph-name="Ugrave" unicode="&#xd9;" horiz-adv-x="755" 
d="M373 932l107 -180h-148l-134 122zM256 296q0 -59 35.5 -95t89.5 -36q53 0 85.5 35t32.5 96v405h208v-405q0 -140 -88.5 -222.5t-238.5 -82.5q-151 0 -241.5 83t-90.5 222v405h208v-405z" />
    <glyph glyph-name="Uacute" unicode="&#xda;" horiz-adv-x="755" 
d="M388 932l175 -58l-134 -122h-148zM256 296q0 -59 35.5 -95t89.5 -36q53 0 85.5 35t32.5 96v405h208v-405q0 -140 -88.5 -222.5t-238.5 -82.5q-151 0 -241.5 83t-90.5 222v405h208v-405z" />
    <glyph glyph-name="Ucircumflex" unicode="&#xdb;" horiz-adv-x="755" 
d="M300 923h156l117 -157h-139l-56 83l-56 -83h-139zM256 296q0 -59 35.5 -95t89.5 -36q53 0 85.5 35t32.5 96v405h208v-405q0 -140 -88.5 -222.5t-238.5 -82.5q-151 0 -241.5 83t-90.5 222v405h208v-405z" />
    <glyph glyph-name="Udieresis" unicode="&#xdc;" horiz-adv-x="755" 
d="M277 939q37 0 61.5 -24.5t24.5 -61.5t-24.5 -61.5t-61.5 -24.5t-61.5 24.5t-24.5 61.5t24.5 61.5t61.5 24.5zM479 939q37 0 61.5 -24.5t24.5 -61.5t-24.5 -61.5t-61.5 -24.5t-61.5 24.5t-24.5 61.5t24.5 61.5t61.5 24.5zM256 296q0 -59 35.5 -95t89.5 -36q53 0 85.5 35
t32.5 96v405h208v-405q0 -140 -88.5 -222.5t-238.5 -82.5q-151 0 -241.5 83t-90.5 222v405h208v-405z" />
    <glyph glyph-name="Yacute" unicode="&#xdd;" horiz-adv-x="702" 
d="M536 874l-134 -122h-148l107 180zM709 701l-252 -479v-222h-208v218l-257 483h208l153 -286l149 286h207z" />
    <glyph glyph-name="Thorn" unicode="&#xde;" horiz-adv-x="694" 
d="M377 612q137 0 216.5 -66t79.5 -179q0 -120 -79.5 -190t-216.5 -70h-110v-107h-208v701h208v-89h110zM368 265q43 0 67 25.5t24 70.5q0 43 -24 67.5t-67 24.5h-101v-188h101z" />
    <glyph glyph-name="germandbls" unicode="&#xdf;" horiz-adv-x="667" 
d="M48 494q0 118 75.5 187.5t203.5 69.5q123 0 197 -55.5t74 -147.5q0 -49 -23.5 -93.5t-62.5 -70.5q58 -18 93.5 -63.5t35.5 -104.5q0 -98 -78 -157t-207 -59h-48v142h31q106 0 106 77q0 74 -112 74h-21v142q90 0 90 83t-73 83q-79 0 -79 -92v-509h-202v494z" />
    <glyph glyph-name="agrave" unicode="&#xe0;" horiz-adv-x="607" 
d="M406 595h-148l-134 122l175 58zM317 552q115 0 179.5 -52.5t64.5 -146.5v-353h-198v60q-52 -69 -159 -69q-86 0 -135 46.5t-49 124.5q0 79 53.5 121.5t156.5 43.5h133v2q0 34 -24 53t-70 19q-74 0 -164 -39l-50 134q138 56 262 56zM271 123q31 0 56 15t36 41v49h-92
q-61 0 -61 -51q0 -26 16 -40t45 -14z" />
    <glyph glyph-name="aacute" unicode="&#xe1;" horiz-adv-x="607" 
d="M489 717l-134 -122h-148l107 180zM317 552q115 0 179.5 -52.5t64.5 -146.5v-353h-198v60q-52 -69 -159 -69q-86 0 -135 46.5t-49 124.5q0 79 53.5 121.5t156.5 43.5h133v2q0 34 -24 53t-70 19q-74 0 -164 -39l-50 134q138 56 262 56zM271 123q31 0 56 15t36 41v49h-92
q-61 0 -61 -51q0 -26 16 -40t45 -14z" />
    <glyph glyph-name="acircumflex" unicode="&#xe2;" horiz-adv-x="607" 
d="M304 692l-56 -83h-139l117 157h156l117 -157h-139zM317 552q115 0 179.5 -52.5t64.5 -146.5v-353h-198v60q-52 -69 -159 -69q-86 0 -135 46.5t-49 124.5q0 79 53.5 121.5t156.5 43.5h133v2q0 34 -24 53t-70 19q-74 0 -164 -39l-50 134q138 56 262 56zM271 123q31 0 56 15
t36 41v49h-92q-61 0 -61 -51q0 -26 16 -40t45 -14z" />
    <glyph glyph-name="atilde" unicode="&#xe3;" horiz-adv-x="607" 
d="M266 657q-26 0 -26 -40h-123q0 171 112 171q34 0 69.5 -21.5t43.5 -21.5q27 0 27 40h122q0 -171 -111 -171q-36 0 -71 21.5t-43 21.5zM317 552q115 0 179.5 -52.5t64.5 -146.5v-353h-198v60q-52 -69 -159 -69q-86 0 -135 46.5t-49 124.5q0 79 53.5 121.5t156.5 43.5h133
v2q0 34 -24 53t-70 19q-74 0 -164 -39l-50 134q138 56 262 56zM271 123q31 0 56 15t36 41v49h-92q-61 0 -61 -51q0 -26 16 -40t45 -14z" />
    <glyph glyph-name="adieresis" unicode="&#xe4;" horiz-adv-x="607" 
d="M203 610q-37 0 -61.5 24t-24.5 62t24.5 62t61.5 24t61.5 -24t24.5 -62t-24.5 -62t-61.5 -24zM405 610q-37 0 -61.5 24t-24.5 62t24.5 62t61.5 24t61.5 -24t24.5 -62t-24.5 -62t-61.5 -24zM317 552q115 0 179.5 -52.5t64.5 -146.5v-353h-198v60q-52 -69 -159 -69
q-86 0 -135 46.5t-49 124.5q0 79 53.5 121.5t156.5 43.5h133v2q0 34 -24 53t-70 19q-74 0 -164 -39l-50 134q138 56 262 56zM271 123q31 0 56 15t36 41v49h-92q-61 0 -61 -51q0 -26 16 -40t45 -14z" />
    <glyph glyph-name="aring" unicode="&#xe5;" horiz-adv-x="607" 
d="M304 577q-51 0 -87 35.5t-36 86.5t36 86.5t87 35.5t87 -35.5t36 -86.5t-36 -86.5t-87 -35.5zM304 744q-19 0 -32 -13t-13 -32t13 -32t32 -13t32 13t13 32t-13 32t-32 13zM317 552q115 0 179.5 -52.5t64.5 -146.5v-353h-198v60q-52 -69 -159 -69q-86 0 -135 46.5
t-49 124.5q0 79 53.5 121.5t156.5 43.5h133v2q0 34 -24 53t-70 19q-74 0 -164 -39l-50 134q138 56 262 56zM271 123q31 0 56 15t36 41v49h-92q-61 0 -61 -51q0 -26 16 -40t45 -14z" />
    <glyph glyph-name="ae" unicode="&#xe6;" horiz-adv-x="962" 
d="M573 219q7 -35 37 -56t69 -21q65 0 120 52l105 -103q-89 -98 -243 -98q-153 0 -221 106q-65 -109 -219 -109q-93 0 -147 46.5t-54 124.5q0 79 54 120t157 43h134v14q-6 63 -94 63q-77 0 -170 -39l-46 135q139 55 263 55q116 0 177 -52q65 51 161 51q139 0 216.5 -88
t69.5 -236h-370zM740 322q1 40 -22 66.5t-61 26.5q-35 0 -58.5 -25.5t-30.5 -67.5h172zM273 229q-63 0 -63 -52q0 -26 16.5 -41.5t45.5 -15.5q60 0 94 54l-1 55h-92z" />
    <glyph glyph-name="ccedilla" unicode="&#xe7;" horiz-adv-x="562" 
d="M556 134q-52 -113 -191 -136l-26 -49q31 -10 49 -32t18 -50q0 -49 -36.5 -79t-97.5 -30q-50 0 -98 33l36 82q20 -20 45 -20q18 0 28.5 9.5t10.5 24.5q0 35 -44 35q-12 0 -36 -4l39 78q-108 14 -171 88t-63 186q0 127 78 204t207 77q85 0 150.5 -37t100.5 -105l-155 -76
q-30 54 -87 54q-40 0 -65 -32t-25 -84q0 -53 24.5 -85.5t65.5 -32.5q61 0 86 60z" />
    <glyph glyph-name="egrave" unicode="&#xe8;" horiz-adv-x="609" 
d="M404 595h-148l-134 122l175 58zM306 551q142 0 217 -88.5t66 -239.5h-366q25 -81 106 -81q63 0 120 52l105 -103q-89 -98 -242 -98q-136 0 -214.5 75.5t-78.5 201.5q0 127 79 204t208 77zM390 322q1 40 -22 66t-60 26q-35 0 -58 -25t-31 -67h171z" />
    <glyph glyph-name="eacute" unicode="&#xe9;" horiz-adv-x="609" 
d="M487 717l-134 -122h-148l107 180zM306 551q142 0 217 -88.5t66 -239.5h-366q25 -81 106 -81q63 0 120 52l105 -103q-89 -98 -242 -98q-136 0 -214.5 75.5t-78.5 201.5q0 127 79 204t208 77zM390 322q1 40 -22 66t-60 26q-35 0 -58 -25t-31 -67h171z" />
    <glyph glyph-name="ecircumflex" unicode="&#xea;" horiz-adv-x="609" 
d="M302 692l-56 -83h-139l117 157h156l117 -157h-139zM306 551q142 0 217 -88.5t66 -239.5h-366q25 -81 106 -81q63 0 120 52l105 -103q-89 -98 -242 -98q-136 0 -214.5 75.5t-78.5 201.5q0 127 79 204t208 77zM390 322q1 40 -22 66t-60 26q-35 0 -58 -25t-31 -67h171z" />
    <glyph glyph-name="edieresis" unicode="&#xeb;" horiz-adv-x="609" 
d="M201 610q-37 0 -61.5 24t-24.5 62t24.5 62t61.5 24t61.5 -24t24.5 -62t-24.5 -62t-61.5 -24zM403 610q-37 0 -61.5 24t-24.5 62t24.5 62t61.5 24t61.5 -24t24.5 -62t-24.5 -62t-61.5 -24zM306 551q142 0 217 -88.5t66 -239.5h-366q25 -81 106 -81q63 0 120 52l105 -103
q-89 -98 -242 -98q-136 0 -214.5 75.5t-78.5 201.5q0 127 79 204t208 77zM390 322q1 40 -22 66t-60 26q-35 0 -58 -25t-31 -67h171z" />
    <glyph glyph-name="igrave" unicode="&#xec;" horiz-adv-x="324" 
d="M158 775l107 -180h-148l-134 122zM61 544h202v-544h-202v544z" />
    <glyph glyph-name="iacute" unicode="&#xed;" horiz-adv-x="324" 
d="M173 775l175 -58l-134 -122h-148zM61 544h202v-544h-202v544z" />
    <glyph glyph-name="icircumflex" unicode="&#xee;" horiz-adv-x="324" 
d="M85 766h156l117 -157h-139l-56 83l-56 -83h-139zM61 544h202v-544h-202v544z" />
    <glyph glyph-name="idieresis" unicode="&#xef;" horiz-adv-x="324" 
d="M62 782q38 0 62 -24t24 -62t-24 -62t-62 -24t-62 24t-24 62t24 62t62 24zM264 782q38 0 62 -24t24 -62t-24 -62t-62 -24t-62 24t-24 62t24 62t62 24zM61 544h202v-544h-202v544z" />
    <glyph glyph-name="eth" unicode="&#xf0;" horiz-adv-x="611" 
d="M476 586q116 -130 116 -292q0 -138 -84 -220.5t-224 -82.5q-123 0 -196 64t-73 171q0 101 62 161t165 60q45 0 86.5 -13.5t65.5 -35.5q-24 65 -89 130l-169 -58l-31 91l113 39q-58 40 -126 70l135 81q95 -35 168 -91l148 51l30 -92zM291 157q39 0 62 21t23 57
q0 35 -23 56.5t-62 21.5q-38 0 -60.5 -21t-22.5 -56q0 -36 22.5 -57.5t60.5 -21.5z" />
    <glyph glyph-name="ntilde" unicode="&#xf1;" horiz-adv-x="678" 
d="M319 657q-26 0 -26 -40h-123q0 171 112 171q34 0 69.5 -21.5t43.5 -21.5q27 0 27 40h122q0 -171 -111 -171q-35 0 -70 21.5t-44 21.5zM436 552q88 0 142 -56.5t54 -150.5v-345h-202v287q0 40 -21.5 64t-56.5 24q-41 -1 -65 -30t-24 -76v-269h-202v544h202v-84
q58 92 173 92z" />
    <glyph glyph-name="ograve" unicode="&#xf2;" horiz-adv-x="643" 
d="M317 775l107 -180h-148l-134 122zM322 551q137 0 219.5 -76t82.5 -203q0 -126 -82.5 -202.5t-219.5 -76.5t-220 76.5t-83 202.5q0 127 83 203t220 76zM322 391q-45 0 -72 -33.5t-27 -87.5q0 -55 27 -88t72 -33q44 0 71 33t27 88q0 54 -27 87.5t-71 33.5z" />
    <glyph glyph-name="oacute" unicode="&#xf3;" horiz-adv-x="643" 
d="M332 775l175 -58l-134 -122h-148zM322 551q137 0 219.5 -76t82.5 -203q0 -126 -82.5 -202.5t-219.5 -76.5t-220 76.5t-83 202.5q0 127 83 203t220 76zM322 391q-45 0 -72 -33.5t-27 -87.5q0 -55 27 -88t72 -33q44 0 71 33t27 88q0 54 -27 87.5t-71 33.5z" />
    <glyph glyph-name="ocircumflex" unicode="&#xf4;" horiz-adv-x="643" 
d="M244 766h156l117 -157h-139l-56 83l-56 -83h-139zM322 551q137 0 219.5 -76t82.5 -203q0 -126 -82.5 -202.5t-219.5 -76.5t-220 76.5t-83 202.5q0 127 83 203t220 76zM322 391q-45 0 -72 -33.5t-27 -87.5q0 -55 27 -88t72 -33q44 0 71 33t27 88q0 54 -27 87.5t-71 33.5z
" />
    <glyph glyph-name="otilde" unicode="&#xf5;" horiz-adv-x="643" 
d="M509 785q0 -171 -111 -171q-36 0 -71 21.5t-43 21.5q-26 0 -26 -40h-123q0 171 112 171q34 0 69.5 -21.5t43.5 -21.5q27 0 27 40h122zM322 551q137 0 219.5 -76t82.5 -203q0 -126 -82.5 -202.5t-219.5 -76.5t-220 76.5t-83 202.5q0 127 83 203t220 76zM322 391
q-45 0 -72 -33.5t-27 -87.5q0 -55 27 -88t72 -33q44 0 71 33t27 88q0 54 -27 87.5t-71 33.5z" />
    <glyph glyph-name="odieresis" unicode="&#xf6;" horiz-adv-x="643" 
d="M221 782q37 0 61.5 -24t24.5 -62t-24.5 -62t-61.5 -24t-61.5 24t-24.5 62t24.5 62t61.5 24zM423 782q37 0 61.5 -24t24.5 -62t-24.5 -62t-61.5 -24t-61.5 24t-24.5 62t24.5 62t61.5 24zM322 551q137 0 219.5 -76t82.5 -203q0 -126 -82.5 -202.5t-219.5 -76.5t-220 76.5
t-83 202.5q0 127 83 203t220 76zM322 391q-45 0 -72 -33.5t-27 -87.5q0 -55 27 -88t72 -33q44 0 71 33t27 88q0 54 -27 87.5t-71 33.5z" />
    <glyph glyph-name="divide" unicode="&#xf7;" horiz-adv-x="515" 
d="M249 594q37 0 61.5 -24t24.5 -62t-24.5 -62t-61.5 -24t-61.5 24t-24.5 62t24.5 62t61.5 24zM31 391h453v-126h-453v126zM249 235q37 0 61.5 -24.5t24.5 -61.5t-24.5 -61.5t-61.5 -24.5t-61.5 24.5t-24.5 61.5t24.5 61.5t61.5 24.5z" />
    <glyph glyph-name="oslash" unicode="&#xf8;" horiz-adv-x="643" 
d="M447 531q83 -29 130 -97t47 -162q0 -126 -82.5 -202.5t-219.5 -76.5q-26 0 -50 3l-44 -136h-80l50 153q-84 30 -131.5 97.5t-47.5 161.5q0 127 83 203t220 76q27 0 51 -3l41 126h80zM210 270q0 -71 37 -108l80 245h-5q-51 0 -81.5 -37.5t-30.5 -99.5zM322 132
q50 0 81 37.5t31 100.5q0 68 -37 107l-80 -245h5z" />
    <glyph glyph-name="ugrave" unicode="&#xf9;" horiz-adv-x="668" 
d="M431 595h-148l-134 122l175 58zM405 544h202v-544h-202v81q-57 -90 -167 -90q-86 0 -139 56.5t-53 151.5v345h202v-288q0 -40 20 -63.5t53 -23.5q39 1 61.5 30t22.5 76v269z" />
    <glyph glyph-name="uacute" unicode="&#xfa;" horiz-adv-x="668" 
d="M514 717l-134 -122h-148l107 180zM405 544h202v-544h-202v81q-57 -90 -167 -90q-86 0 -139 56.5t-53 151.5v345h202v-288q0 -40 20 -63.5t53 -23.5q39 1 61.5 30t22.5 76v269z" />
    <glyph glyph-name="ucircumflex" unicode="&#xfb;" horiz-adv-x="668" 
d="M329 692l-56 -83h-139l117 157h156l117 -157h-139zM405 544h202v-544h-202v81q-57 -90 -167 -90q-86 0 -139 56.5t-53 151.5v345h202v-288q0 -40 20 -63.5t53 -23.5q39 1 61.5 30t22.5 76v269z" />
    <glyph glyph-name="udieresis" unicode="&#xfc;" horiz-adv-x="668" 
d="M228 610q-38 0 -62 24t-24 62t24 62t62 24t62 -24t24 -62t-24 -62t-62 -24zM430 610q-38 0 -62 24t-24 62t24 62t62 24t62 -24t24 -62t-24 -62t-62 -24zM405 544h202v-544h-202v81q-57 -90 -167 -90q-86 0 -139 56.5t-53 151.5v345h202v-288q0 -40 20 -63.5t53 -23.5
q39 1 61.5 30t22.5 76v269z" />
    <glyph glyph-name="yacute" unicode="&#xfd;" horiz-adv-x="605" 
d="M313 775l175 -58l-134 -122h-148zM385 -46q-63 -157 -226 -157q-96 0 -175 60l84 135q35 -31 73 -31q41 0 59 35l10 19l-225 529h207l119 -333l101 333h201z" />
    <glyph glyph-name="thorn" unicode="&#xfe;" horiz-adv-x="688" 
d="M268 481q56 70 149 70q114 0 183 -77t69 -205q0 -125 -67.5 -200.5t-179.5 -75.5q-97 0 -154 71v-258h-202v936h202v-261zM366 395q-44 0 -71 -33.5t-27 -87.5t27 -87.5t71 -33.5q45 0 72 33.5t27 87.5t-27 87.5t-72 33.5z" />
    <glyph glyph-name="ydieresis" unicode="&#xff;" horiz-adv-x="605" 
d="M202 782q38 0 62 -24t24 -62t-24 -62t-62 -24t-62 24t-24 62t24 62t62 24zM404 782q38 0 62 -24t24 -62t-24 -62t-62 -24t-62 24t-24 62t24 62t62 24zM385 -46q-63 -157 -226 -157q-96 0 -175 60l84 135q35 -31 73 -31q41 0 59 35l10 19l-225 529h207l119 -333l101 333
h201z" />
    <glyph glyph-name="Amacron" unicode="&#x100;" horiz-adv-x="786" 
d="M539 918v-133h-290v133h290zM572 0l-41 112h-283l-42 -112h-214l299 701h214l289 -701h-222zM306 264h170l-84 229z" />
    <glyph glyph-name="amacron" unicode="&#x101;" horiz-adv-x="607" 
d="M449 761v-133h-290v133h290zM317 552q115 0 179.5 -52.5t64.5 -146.5v-353h-198v60q-52 -69 -159 -69q-86 0 -135 46.5t-49 124.5q0 79 53.5 121.5t156.5 43.5h133v2q0 34 -24 53t-70 19q-74 0 -164 -39l-50 134q138 56 262 56zM271 123q31 0 56 15t36 41v49h-92
q-61 0 -61 -51q0 -26 16 -40t45 -14z" />
    <glyph glyph-name="Abreve" unicode="&#x102;" horiz-adv-x="786" 
d="M394 755q-76 0 -123.5 45.5t-51.5 121.5h123q2 -24 16 -39t36 -15t36 15t16 39h123q-4 -76 -51.5 -121.5t-123.5 -45.5zM572 0l-41 112h-283l-42 -112h-214l299 701h214l289 -701h-222zM306 264h170l-84 229z" />
    <glyph glyph-name="abreve" unicode="&#x103;" horiz-adv-x="607" 
d="M304 598q-76 0 -123.5 45.5t-51.5 121.5h123q2 -24 16 -39t36 -15t36 15t16 39h123q-4 -76 -51.5 -121.5t-123.5 -45.5zM317 552q115 0 179.5 -52.5t64.5 -146.5v-353h-198v60q-52 -69 -159 -69q-86 0 -135 46.5t-49 124.5q0 79 53.5 121.5t156.5 43.5h133v2q0 34 -24 53
t-70 19q-74 0 -164 -39l-50 134q138 56 262 56zM271 123q31 0 56 15t36 41v49h-92q-61 0 -61 -51q0 -26 16 -40t45 -14z" />
    <glyph glyph-name="Aogonek" unicode="&#x104;" horiz-adv-x="786" 
d="M734 0q-41 -59 -41 -85q0 -19 18 -19q19 0 39 31l50 -59q-39 -71 -114 -71q-38 0 -65.5 20t-27.5 65q0 50 45 118h-66l-41 112h-282l-43 -112h-214l299 701h214l289 -701h-60zM392 493l-87 -229h171z" />
    <glyph glyph-name="aogonek" unicode="&#x105;" horiz-adv-x="612" 
d="M521 0q-41 -59 -41 -85q0 -19 18 -19q19 0 39 31l51 -59q-41 -71 -115 -71q-37 0 -65 20t-28 65q0 51 46 118h-59v61q-52 -71 -161 -71q-87 0 -136.5 47t-49.5 125q0 79 54.5 121.5t157.5 43.5h135v4q-3 70 -96 70q-75 0 -166 -39l-50 134q140 56 263 56q117 0 182 -52.5
t65 -146.5v-353h-44zM272 228q-62 0 -62 -51q0 -26 16.5 -40t46.5 -14t56 15t38 40v50h-95z" />
    <glyph glyph-name="Cacute" unicode="&#x106;" horiz-adv-x="690" 
d="M399 932l175 -58l-134 -122h-148zM566 441q-33 42 -78.5 67.5t-88.5 25.5q-71 0 -119 -51.5t-48 -128.5t48 -129t119 -52q40 0 85.5 22t81.5 59l120 -128q-57 -62 -137.5 -98.5t-159.5 -36.5q-160 0 -265 103t-105 258q0 153 107 254t270 101q80 0 158.5 -33.5
t131.5 -90.5z" />
    <glyph glyph-name="cacute" unicode="&#x107;" horiz-adv-x="562" 
d="M306 775l175 -58l-134 -122h-148zM400 333q-30 54 -87 54q-40 0 -65 -32t-25 -84q0 -53 24.5 -85.5t65.5 -32.5q61 0 86 60l157 -79q-31 -67 -97.5 -104t-156.5 -37q-128 0 -205.5 76t-77.5 201q0 127 78 204t207 77q85 0 150.5 -37t100.5 -105z" />
    <glyph glyph-name="Ccircumflex" unicode="&#x108;" horiz-adv-x="690" 
d="M311 923h156l117 -157h-139l-56 83l-56 -83h-139zM566 441q-33 42 -78.5 67.5t-88.5 25.5q-71 0 -119 -51.5t-48 -128.5t48 -129t119 -52q40 0 85.5 22t81.5 59l120 -128q-57 -62 -137.5 -98.5t-159.5 -36.5q-160 0 -265 103t-105 258q0 153 107 254t270 101
q80 0 158.5 -33.5t131.5 -90.5z" />
    <glyph glyph-name="ccircumflex" unicode="&#x109;" horiz-adv-x="562" 
d="M218 766h156l117 -157h-139l-56 83l-56 -83h-139zM400 333q-30 54 -87 54q-40 0 -65 -32t-25 -84q0 -53 24.5 -85.5t65.5 -32.5q61 0 86 60l157 -79q-31 -67 -97.5 -104t-156.5 -37q-128 0 -205.5 76t-77.5 201q0 127 78 204t207 77q85 0 150.5 -37t100.5 -105z" />
    <glyph glyph-name="Cdotaccent" unicode="&#x10a;" horiz-adv-x="690" 
d="M389 960q46 0 75 -29t29 -75t-29 -75t-75 -29t-75 29t-29 75t29 75t75 29zM566 441q-33 42 -78.5 67.5t-88.5 25.5q-71 0 -119 -51.5t-48 -128.5t48 -129t119 -52q40 0 85.5 22t81.5 59l120 -128q-57 -62 -137.5 -98.5t-159.5 -36.5q-160 0 -265 103t-105 258
q0 153 107 254t270 101q80 0 158.5 -33.5t131.5 -90.5z" />
    <glyph glyph-name="cdotaccent" unicode="&#x10b;" horiz-adv-x="562" 
d="M296 803q46 0 75 -29t29 -75t-29 -75t-75 -29t-75 29t-29 75t29 75t75 29zM400 333q-30 54 -87 54q-40 0 -65 -32t-25 -84q0 -53 24.5 -85.5t65.5 -32.5q61 0 86 60l157 -79q-31 -67 -97.5 -104t-156.5 -37q-128 0 -205.5 76t-77.5 201q0 127 78 204t207 77
q85 0 150.5 -37t100.5 -105z" />
    <glyph glyph-name="Ccaron" unicode="&#x10c;" horiz-adv-x="690" 
d="M172 923h151l61 -91l61 91h151l-127 -172h-170zM566 441q-33 42 -78.5 67.5t-88.5 25.5q-71 0 -119 -51.5t-48 -128.5t48 -129t119 -52q40 0 85.5 22t81.5 59l120 -128q-57 -62 -137.5 -98.5t-159.5 -36.5q-160 0 -265 103t-105 258q0 153 107 254t270 101
q80 0 158.5 -33.5t131.5 -90.5z" />
    <glyph glyph-name="ccaron" unicode="&#x10d;" horiz-adv-x="562" 
d="M79 766h151l61 -91l61 91h151l-127 -172h-170zM400 333q-30 54 -87 54q-40 0 -65 -32t-25 -84q0 -53 24.5 -85.5t65.5 -32.5q61 0 86 60l157 -79q-31 -67 -97.5 -104t-156.5 -37q-128 0 -205.5 76t-77.5 201q0 127 78 204t207 77q85 0 150.5 -37t100.5 -105z" />
    <glyph glyph-name="Dcaron" unicode="&#x10e;" horiz-adv-x="762" 
d="M138 923h151l61 -91l61 91h151l-127 -172h-170zM366 701q170 0 273.5 -96t103.5 -254t-105.5 -254.5t-278.5 -96.5h-300v701h307zM372 163q71 0 115 51t44 135t-47 136t-122 52h-95v-374h105z" />
    <glyph glyph-name="dcaron" unicode="&#x10f;" horiz-adv-x="817" 
d="M420 481v261h202v-742h-202v62q-56 -69 -149 -69q-114 0 -183 77t-69 205q0 125 67.5 200.5t179.5 75.5q96 0 154 -70zM761 688q39 0 66 -25t27 -68q0 -37 -25 -74l-81 -117h-94l49 118q-37 25 -37 72q0 41 27 67.5t68 26.5zM322 148q44 0 71 33.5t27 88.5q0 54 -27 87.5
t-71 33.5q-45 0 -72 -33.5t-27 -87.5q0 -55 27 -88.5t72 -33.5z" />
    <glyph glyph-name="Dcroat" unicode="&#x110;" horiz-adv-x="762" 
d="M210 918h290v-133h-290v133zM366 701q170 0 273.5 -96t103.5 -254t-105.5 -254.5t-278.5 -96.5h-300v701h307zM372 163q71 0 115 51t44 135t-47 136t-122 52h-95v-374h105z" />
    <glyph glyph-name="dcroat" unicode="&#x111;" horiz-adv-x="697" 
d="M686 677v-108h-64v-569h-202v62q-56 -69 -149 -69q-114 0 -183 77t-69 205q0 125 67.5 200.5t179.5 75.5q96 0 154 -70v88h-78v108h78v65h202v-65h64zM322 148q44 0 71 33.5t27 88.5q0 54 -27 87.5t-71 33.5q-45 0 -72 -33.5t-27 -87.5q0 -55 27 -88.5t72 -33.5z" />
    <glyph glyph-name="Emacron" unicode="&#x112;" 
d="M202 918h290v-133h-290v133zM59 701h573v-160h-365v-110h331v-160h-331v-111h375v-160h-583v701z" />
    <glyph glyph-name="emacron" unicode="&#x113;" horiz-adv-x="609" 
d="M447 761v-133h-290v133h290zM306 551q142 0 217 -88.5t66 -239.5h-366q25 -81 106 -81q63 0 120 52l105 -103q-89 -98 -242 -98q-136 0 -214.5 75.5t-78.5 201.5q0 127 79 204t208 77zM390 322q1 40 -22 66t-60 26q-35 0 -58 -25t-31 -67h171z" />
    <glyph glyph-name="Ebreve" unicode="&#x114;" 
d="M295 922q2 -24 16 -39t36 -15t36 15t16 39h123q-4 -76 -51.5 -121.5t-123.5 -45.5t-123.5 45.5t-51.5 121.5h123zM59 701h573v-160h-365v-110h331v-160h-331v-111h375v-160h-583v701z" />
    <glyph glyph-name="ebreve" unicode="&#x115;" horiz-adv-x="609" 
d="M302 598q-76 0 -123.5 45.5t-51.5 121.5h123q2 -24 16 -39t36 -15t36 15t16 39h123q-4 -76 -51.5 -121.5t-123.5 -45.5zM306 551q142 0 217 -88.5t66 -239.5h-366q25 -81 106 -81q63 0 120 52l105 -103q-89 -98 -242 -98q-136 0 -214.5 75.5t-78.5 201.5q0 127 79 204
t208 77zM390 322q1 40 -22 66t-60 26q-35 0 -58 -25t-31 -67h171z" />
    <glyph glyph-name="Edotaccent" unicode="&#x116;" 
d="M347 960q46 0 75 -29t29 -75t-29 -75t-75 -29t-75 29t-29 75t29 75t75 29zM59 701h573v-160h-365v-110h331v-160h-331v-111h375v-160h-583v701z" />
    <glyph glyph-name="edotaccent" unicode="&#x117;" horiz-adv-x="609" 
d="M302 595q-46 0 -75 29t-29 75t29 75t75 29t75 -29t29 -75t-29 -75t-75 -29zM306 551q142 0 217 -88.5t66 -239.5h-366q25 -81 106 -81q63 0 120 52l105 -103q-89 -98 -242 -98q-136 0 -214.5 75.5t-78.5 201.5q0 127 79 204t208 77zM390 322q1 40 -22 66t-60 26
q-35 0 -58 -25t-31 -67h171z" />
    <glyph glyph-name="Eogonek" unicode="&#x118;" horiz-adv-x="685" 
d="M570 0q-41 -61 -41 -85q0 -19 18 -19q21 0 39 31l51 -59q-41 -71 -115 -71q-37 0 -64.5 20t-27.5 65q0 52 44 118h-415v701h575v-159h-367v-111h333v-158h-333v-115h377v-158h-74z" />
    <glyph glyph-name="eogonek" unicode="&#x119;" horiz-adv-x="609" 
d="M554 91q-112 -126 -112 -175q0 -20 17 -20q19 0 39 31l50 -59q-41 -71 -114 -71q-37 0 -64.5 20t-27.5 66q0 57 51 127q-40 -17 -82 -17q-135 0 -213.5 75.5t-78.5 201.5t78 203t209 78q140 1 216 -88t67 -240h-366q25 -81 106 -81q65 0 120 52zM390 322q1 40 -22 66
t-60 26q-35 0 -59 -25.5t-30 -66.5h171z" />
    <glyph glyph-name="Ecaron" unicode="&#x11a;" 
d="M130 923h151l61 -91l61 91h151l-127 -172h-170zM59 701h573v-160h-365v-110h331v-160h-331v-111h375v-160h-583v701z" />
    <glyph glyph-name="ecaron" unicode="&#x11b;" horiz-adv-x="609" 
d="M382 594h-170l-127 172h151l61 -91l61 91h151zM306 551q142 0 217 -88.5t66 -239.5h-366q25 -81 106 -81q63 0 120 52l105 -103q-89 -98 -242 -98q-136 0 -214.5 75.5t-78.5 201.5q0 127 79 204t208 77zM390 322q1 40 -22 66t-60 26q-35 0 -58 -25t-31 -67h171z" />
    <glyph glyph-name="Gcircumflex" unicode="&#x11c;" horiz-adv-x="740" 
d="M394 849l-56 -83h-139l117 157h156l117 -157h-139zM517 192v171h179v-282q-57 -39 -141 -64.5t-159 -25.5q-163 0 -270 102t-107 257q0 154 111 255.5t280 101.5q80 0 160.5 -28.5t135.5 -77.5l-118 -143q-36 35 -84.5 55.5t-94.5 20.5q-76 0 -126.5 -52.5t-50.5 -131.5
q0 -80 51 -132.5t128 -52.5q46 0 106 27z" />
    <glyph glyph-name="gcircumflex" unicode="&#x11d;" horiz-adv-x="651" 
d="M326 692l-56 -83h-139l117 157h156l117 -157h-139zM393 544h200v-497q0 -114 -82.5 -182t-216.5 -68q-144 0 -251 71l67 136q75 -50 167 -50q54 0 85 23.5t31 63.5v55q-54 -65 -146 -65q-100 0 -164 72.5t-64 190.5q0 115 62.5 186t161.5 71q95 0 150 -66v59zM300 176
q42 0 67.5 31t25.5 81q0 52 -25.5 83t-67.5 31q-41 0 -66.5 -31.5t-25.5 -82.5q0 -50 25.5 -81t66.5 -31z" />
    <glyph glyph-name="Gbreve" unicode="&#x11e;" horiz-adv-x="740" 
d="M394 755q-76 0 -123.5 45.5t-51.5 121.5h123q2 -24 16 -39t36 -15t36 15t16 39h123q-4 -76 -51.5 -121.5t-123.5 -45.5zM517 192v171h179v-282q-57 -39 -141 -64.5t-159 -25.5q-163 0 -270 102t-107 257q0 154 111 255.5t280 101.5q80 0 160.5 -28.5t135.5 -77.5
l-118 -143q-36 35 -84.5 55.5t-94.5 20.5q-76 0 -126.5 -52.5t-50.5 -131.5q0 -80 51 -132.5t128 -52.5q46 0 106 27z" />
    <glyph glyph-name="gbreve" unicode="&#x11f;" horiz-adv-x="651" 
d="M326 598q-76 0 -123.5 45.5t-51.5 121.5h123q2 -24 16 -39t36 -15t36 15t16 39h123q-4 -76 -51.5 -121.5t-123.5 -45.5zM393 544h200v-497q0 -114 -82.5 -182t-216.5 -68q-144 0 -251 71l67 136q75 -50 167 -50q54 0 85 23.5t31 63.5v55q-54 -65 -146 -65
q-100 0 -164 72.5t-64 190.5q0 115 62.5 186t161.5 71q95 0 150 -66v59zM300 176q42 0 67.5 31t25.5 81q0 52 -25.5 83t-67.5 31q-41 0 -66.5 -31.5t-25.5 -82.5q0 -50 25.5 -81t66.5 -31z" />
    <glyph glyph-name="Gdotaccent" unicode="&#x120;" horiz-adv-x="740" 
d="M394 752q-46 0 -75 29t-29 75t29 75t75 29t75 -29t29 -75t-29 -75t-75 -29zM517 192v171h179v-282q-57 -39 -141 -64.5t-159 -25.5q-163 0 -270 102t-107 257q0 154 111 255.5t280 101.5q80 0 160.5 -28.5t135.5 -77.5l-118 -143q-36 35 -84.5 55.5t-94.5 20.5
q-76 0 -126.5 -52.5t-50.5 -131.5q0 -80 51 -132.5t128 -52.5q46 0 106 27z" />
    <glyph glyph-name="gdotaccent" unicode="&#x121;" horiz-adv-x="651" 
d="M326 595q-46 0 -75 29t-29 75t29 75t75 29t75 -29t29 -75t-29 -75t-75 -29zM393 544h200v-497q0 -114 -82.5 -182t-216.5 -68q-144 0 -251 71l67 136q75 -50 167 -50q54 0 85 23.5t31 63.5v55q-54 -65 -146 -65q-100 0 -164 72.5t-64 190.5q0 115 62.5 186t161.5 71
q95 0 150 -66v59zM300 176q42 0 67.5 31t25.5 81q0 52 -25.5 83t-67.5 31q-41 0 -66.5 -31.5t-25.5 -82.5q0 -50 25.5 -81t66.5 -31z" />
    <glyph glyph-name="Gcommaaccent" unicode="&#x122;" horiz-adv-x="740" 
d="M517 192v171h179v-282q-57 -39 -141 -64.5t-159 -25.5q-163 0 -270 102t-107 257q0 154 111 255.5t280 101.5q80 0 160.5 -28.5t135.5 -77.5l-118 -143q-36 35 -84.5 55.5t-94.5 20.5q-76 0 -126.5 -52.5t-50.5 -131.5q0 -80 51 -132.5t128 -52.5q46 0 106 27zM401 -37
q39 0 66 -24.5t27 -67.5q0 -39 -25 -74l-81 -117h-94l48 117q-36 27 -36 73q0 41 27 67t68 26z" />
    <glyph glyph-name="gcommaaccent" unicode="&#x123;" horiz-adv-x="651" 
d="M319 581q-39 0 -66 24.5t-27 67.5q0 39 25 74l81 117h94l-48 -117q36 -27 36 -73q0 -41 -27 -67t-68 -26zM393 544h200v-497q0 -114 -82.5 -182t-216.5 -68q-144 0 -251 71l67 136q75 -50 167 -50q54 0 85 23.5t31 63.5v55q-54 -65 -146 -65q-100 0 -164 72.5t-64 190.5
q0 115 62.5 186t161.5 71q95 0 150 -66v59zM300 176q42 0 67.5 31t25.5 81q0 52 -25.5 83t-67.5 31q-41 0 -66.5 -31.5t-25.5 -82.5q0 -50 25.5 -81t66.5 -31z" />
    <glyph glyph-name="Hcircumflex" unicode="&#x124;" horiz-adv-x="783" 
d="M323 923h156l117 -157h-139l-56 83l-56 -83h-139zM59 701h208v-279h249v279h208v-701h-208v261h-249v-261h-208v701z" />
    <glyph glyph-name="hcircumflex" unicode="&#x125;" 
d="M162 890l-56 -83h-139l117 157h156l117 -157h-139zM441 552q88 0 142 -56.5t54 -150.5v-345h-202v287q0 41 -21 64.5t-57 23.5q-41 -1 -65 -30t-24 -76v-269h-202v742h202v-282q58 92 173 92z" />
    <glyph glyph-name="Hbar" unicode="&#x126;" horiz-adv-x="875" 
d="M852 621v-111h-82v-510h-208v261h-249v-261h-208v510h-82v111h82v80h208v-80h249v80h208v-80h82zM562 422v88h-249v-88h249z" />
    <glyph glyph-name="hbar" unicode="&#x127;" 
d="M441 552q88 0 142 -56.5t54 -150.5v-345h-202v287q0 41 -21 64.5t-57 23.5q-41 -1 -65 -30t-24 -76v-269h-202v569h-77v108h77v65h202v-65h106v-108h-106v-109q58 92 173 92z" />
    <glyph glyph-name="Itilde" unicode="&#x128;" horiz-adv-x="326" 
d="M350 942q0 -171 -111 -171q-35 0 -70 21.5t-44 21.5q-26 0 -26 -40h-123q0 171 112 171q34 0 69.5 -21.5t43.5 -21.5q27 0 27 40h122zM59 701h208v-701h-208v701z" />
    <glyph glyph-name="itilde" unicode="&#x129;" horiz-adv-x="324" 
d="M350 785q0 -171 -111 -171q-35 0 -70 21.5t-44 21.5q-26 0 -26 -40h-123q0 171 112 171q34 0 69.5 -21.5t43.5 -21.5q27 0 27 40h122zM61 544h202v-544h-202v544z" />
    <glyph glyph-name="Imacron" unicode="&#x12a;" horiz-adv-x="326" 
d="M18 918h290v-133h-290v133zM59 701h208v-701h-208v701z" />
    <glyph glyph-name="imacron" unicode="&#x12b;" horiz-adv-x="324" 
d="M18 761h290v-133h-290v133zM61 544h202v-544h-202v544z" />
    <glyph glyph-name="Ibreve" unicode="&#x12c;" horiz-adv-x="326" 
d="M111 922q2 -24 16 -39t36 -15t36 15t16 39h123q-4 -76 -51.5 -121.5t-123.5 -45.5t-123.5 45.5t-51.5 121.5h123zM59 701h208v-701h-208v701z" />
    <glyph glyph-name="ibreve" unicode="&#x12d;" horiz-adv-x="324" 
d="M111 765q2 -24 16 -39t36 -15t36 15t16 39h123q-4 -76 -51.5 -121.5t-123.5 -45.5t-123.5 45.5t-51.5 121.5h123zM61 544h202v-544h-202v544z" />
    <glyph glyph-name="Iogonek" unicode="&#x12e;" horiz-adv-x="326" 
d="M222 0q-41 -59 -41 -85q0 -19 17 -19q20 0 40 31l51 -59q-41 -71 -115 -71q-38 0 -65.5 20t-27.5 65q0 50 45 118h-67v701h208v-701h-45z" />
    <glyph glyph-name="iogonek" unicode="&#x12f;" horiz-adv-x="302" 
d="M152 803q46 0 75 -29t29 -75t-29 -75t-75 -29t-75.5 29t-29.5 75t29.5 75t75.5 29zM203 0q-40 -58 -40 -85q0 -19 17 -19q20 0 40 31l50 -59q-41 -71 -115 -71q-37 0 -64.5 20t-27.5 65q0 50 45 118h-58v544h202v-544h-49z" />
    <glyph glyph-name="Idotaccent" unicode="&#x130;" horiz-adv-x="326" 
d="M163 960q46 0 75 -29t29 -75t-29 -75t-75 -29t-75 29t-29 75t29 75t75 29zM59 701h208v-701h-208v701z" />
    <glyph glyph-name="dotlessi" unicode="&#x131;" horiz-adv-x="324" 
d="M61 544h202v-544h-202v544z" />
    <glyph glyph-name="IJ" unicode="&#x132;" horiz-adv-x="880" 
d="M59 701h208v-701h-208v701zM833 232q0 -114 -68.5 -177.5t-186.5 -63.5q-153 0 -259 117l95 137q78 -79 147 -79q29 0 45.5 18t16.5 53v298h-238v166h448v-469z" />
    <glyph glyph-name="ij" unicode="&#x133;" horiz-adv-x="659" 
d="M163 803q46 0 75 -29t29 -75t-29 -75t-75 -29t-75 29t-29 75t29 75t75 29zM490 803q49 0 80.5 -29t31.5 -75t-31.5 -75t-80.5 -29t-80.5 29t-31.5 75t31.5 75t80.5 29zM61 544h202v-544h-202v544zM591 -17q0 -86 -57.5 -136t-150.5 -49q-85 0 -147 34l47 140
q31 -17 58 -17q48 0 48 52v537h202v-561z" />
    <glyph glyph-name="Jcircumflex" unicode="&#x134;" horiz-adv-x="554" 
d="M202 923h156l117 -157h-139l-56 83l-56 -83h-139zM507 232q0 -114 -68.5 -177.5t-186.5 -63.5q-153 0 -259 117l95 137q78 -79 147 -79q29 0 45.5 18t16.5 53v298h-238v166h448v-469z" />
    <glyph glyph-name="jcircumflex" unicode="&#x135;" horiz-adv-x="325" 
d="M80 766h156l117 -157h-139l-56 83l-56 -83h-139zM267 -18q0 -86 -55.5 -135.5t-150.5 -48.5q-87 0 -150 34l45 139q29 -16 59 -16q24 -1 37 13.5t13 43.5v532h202v-562z" />
    <glyph glyph-name="Kcommaaccent" unicode="&#x136;" horiz-adv-x="761" 
d="M488 416l270 -416h-249l-163 256l-79 -88v-168h-208v701h208v-270l235 270h240zM376 -37q39 0 66 -24.5t27 -67.5q0 -39 -25 -74l-81 -117h-94l48 117q-36 27 -36 73q0 41 27 67t68 26z" />
    <glyph glyph-name="kcommaaccent" unicode="&#x137;" horiz-adv-x="648" 
d="M268 146v-146h-202v742h202v-361l150 163h228l-199 -210l200 -334h-239l-99 189zM326 -37q39 0 66 -24.5t27 -67.5q0 -39 -25 -74l-81 -117h-94l48 117q-36 27 -36 73q0 41 27 67t68 26z" />
    <glyph glyph-name="kgreenlandic" unicode="&#x138;" horiz-adv-x="641" 
d="M640 544l-199 -210l199 -334h-239l-98 188l-40 -41v-147h-202v544h202v-162l148 162h229z" />
    <glyph glyph-name="Lacute" unicode="&#x139;" horiz-adv-x="574" 
d="M168 932l175 -58l-134 -122h-148zM59 701h208v-527h294v-174h-502v701z" />
    <glyph glyph-name="lacute" unicode="&#x13a;" horiz-adv-x="335" 
d="M178 973l175 -58l-134 -122h-148zM66 742h202v-742h-202v742z" />
    <glyph glyph-name="Lcommaaccent" unicode="&#x13b;" horiz-adv-x="574" 
d="M267 174h294v-174h-502v701h208v-527zM299 -37q39 0 66 -24.5t27 -67.5q0 -39 -25 -74l-81 -117h-94l48 117q-36 27 -36 73q0 41 27 67t68 26z" />
    <glyph glyph-name="lcommaaccent" unicode="&#x13c;" horiz-adv-x="335" 
d="M66 742h202v-742h-202v742zM175 -37q39 0 66 -24.5t27 -67.5q0 -39 -25 -74l-81 -117h-94l48 117q-36 27 -36 73q0 41 27 67t68 26z" />
    <glyph glyph-name="Lcaron" unicode="&#x13d;" horiz-adv-x="574" 
d="M267 174h294v-174h-502v701h208v-527zM445 385h-94l49 118q-37 25 -37 72q0 41 27 67.5t68 26.5q39 0 66 -25t27 -68q0 -37 -25 -74z" />
    <glyph glyph-name="lcaron" unicode="&#x13e;" horiz-adv-x="447" 
d="M66 0v742h202v-742h-202zM391 673q39 0 66 -25t27 -68q0 -37 -25 -74l-81 -117h-94l49 118q-37 25 -37 72q0 41 27 67.5t68 26.5z" />
    <glyph glyph-name="Ldot" unicode="&#x13f;" horiz-adv-x="574" 
d="M59 701h208v-527h294v-174h-502v701zM422 582q41 0 67.5 -25.5t26.5 -66.5t-26.5 -67.5t-67.5 -26.5t-67 26.5t-26 67.5t26 66.5t67 25.5z" />
    <glyph glyph-name="ldot" unicode="&#x140;" horiz-adv-x="430" 
d="M66 742h202v-742h-202v742zM380 407q41 0 67 -26t26 -68q0 -41 -26 -67t-67 -26q-42 0 -68 26t-26 67q0 42 26 68t68 26z" />
    <glyph glyph-name="Lslash" unicode="&#x141;" horiz-adv-x="594" 
d="M288 174h294v-174h-502v313l-68 -20l-35 121l103 30v257h208v-197l136 40l34 -122l-170 -49v-199z" />
    <glyph glyph-name="lslash" unicode="&#x142;" horiz-adv-x="370" 
d="M406 422l-111 -32v-390h-202v332l-94 -27l-34 121l128 37v279h202v-220l77 22z" />
    <glyph glyph-name="Nacute" unicode="&#x143;" horiz-adv-x="783" 
d="M402 932l175 -58l-134 -122h-148zM59 701h178l297 -392v392h190v-701h-177l-297 390v-390h-191v701z" />
    <glyph glyph-name="nacute" unicode="&#x144;" horiz-adv-x="678" 
d="M542 717l-134 -122h-148l107 180zM436 552q88 0 142 -56.5t54 -150.5v-345h-202v287q0 40 -21.5 64t-56.5 24q-41 -1 -65 -30t-24 -76v-269h-202v544h202v-84q58 92 173 92z" />
    <glyph glyph-name="Ncommaaccent" unicode="&#x145;" horiz-adv-x="783" 
d="M534 701h190v-701h-177l-297 390v-390h-191v701h178l297 -392v392zM399 -37q39 0 66 -24.5t27 -67.5q0 -39 -25 -74l-81 -117h-94l48 117q-36 27 -36 73q0 41 27 67t68 26z" />
    <glyph glyph-name="ncommaaccent" unicode="&#x146;" horiz-adv-x="678" 
d="M436 552q88 0 142 -56.5t54 -150.5v-345h-202v287q0 40 -21.5 64t-56.5 24q-41 -1 -65 -30t-24 -76v-269h-202v544h202v-84q58 92 173 92zM352 -37q39 0 66 -24.5t27 -67.5q0 -39 -25 -74l-81 -117h-94l48 117q-36 27 -36 73q0 41 27 67t68 26z" />
    <glyph glyph-name="Ncaron" unicode="&#x147;" horiz-adv-x="783" 
d="M175 923h151l61 -91l61 91h151l-127 -172h-170zM59 701h178l297 -392v392h190v-701h-177l-297 390v-390h-191v701z" />
    <glyph glyph-name="ncaron" unicode="&#x148;" horiz-adv-x="678" 
d="M437 594h-170l-127 172h151l61 -91l61 91h151zM436 552q88 0 142 -56.5t54 -150.5v-345h-202v287q0 40 -21.5 64t-56.5 24q-41 -1 -65 -30t-24 -76v-269h-202v544h202v-84q58 92 173 92z" />
    <glyph glyph-name="Eng" unicode="&#x14a;" horiz-adv-x="783" 
d="M534 701h190v-701q-5 -104 -73 -162t-181 -58q-98 0 -175 48l71 156q61 -29 104 -29q60 0 66 59l-286 376v-390h-191v701h178l297 -392v392z" />
    <glyph glyph-name="eng" unicode="&#x14b;" horiz-adv-x="678" 
d="M436 552q88 0 142 -56.5t54 -150.5v-366q0 -84 -57.5 -133t-150.5 -48q-85 0 -147 34l47 140q31 -17 58 -17q48 0 48 52v280q0 40 -21.5 64t-56.5 24q-41 -1 -65 -30t-24 -76v-269h-202v544h202v-84q58 92 173 92z" />
    <glyph glyph-name="Omacron" unicode="&#x14c;" horiz-adv-x="802" 
d="M247 918h290v-133h-290v133zM401 707q165 0 273.5 -101t108.5 -255q0 -155 -108.5 -257.5t-273.5 -102.5t-273.5 102.5t-108.5 257.5q0 154 108.5 255t273.5 101zM404 533q-71 0 -121.5 -52.5t-50.5 -130.5t51 -131.5t121 -53.5t118 53t48 132t-48 131t-118 52z" />
    <glyph glyph-name="omacron" unicode="&#x14d;" horiz-adv-x="643" 
d="M177 761h290v-133h-290v133zM322 551q137 0 219.5 -76t82.5 -203q0 -126 -82.5 -202.5t-219.5 -76.5t-220 76.5t-83 202.5q0 127 83 203t220 76zM322 391q-45 0 -72 -33.5t-27 -87.5q0 -55 27 -88t72 -33q44 0 71 33t27 88q0 54 -27 87.5t-71 33.5z" />
    <glyph glyph-name="Obreve" unicode="&#x14e;" horiz-adv-x="802" 
d="M340 922q2 -24 16 -39t36 -15t36 15t16 39h123q-4 -76 -51.5 -121.5t-123.5 -45.5t-123.5 45.5t-51.5 121.5h123zM401 707q165 0 273.5 -101t108.5 -255q0 -155 -108.5 -257.5t-273.5 -102.5t-273.5 102.5t-108.5 257.5q0 154 108.5 255t273.5 101zM404 533
q-71 0 -121.5 -52.5t-50.5 -130.5t51 -131.5t121 -53.5t118 53t48 132t-48 131t-118 52z" />
    <glyph glyph-name="obreve" unicode="&#x14f;" horiz-adv-x="643" 
d="M270 765q2 -24 16 -39t36 -15t36 15t16 39h123q-4 -76 -51.5 -121.5t-123.5 -45.5t-123.5 45.5t-51.5 121.5h123zM322 551q137 0 219.5 -76t82.5 -203q0 -126 -82.5 -202.5t-219.5 -76.5t-220 76.5t-83 202.5q0 127 83 203t220 76zM322 391q-45 0 -72 -33.5t-27 -87.5
q0 -55 27 -88t72 -33q44 0 71 33t27 88q0 54 -27 87.5t-71 33.5z" />
    <glyph glyph-name="Ohungarumlaut" unicode="&#x150;" horiz-adv-x="802" 
d="M289 933l149 -51l-90 -130h-145zM498 933l149 -51l-90 -130h-145zM401 707q165 0 273.5 -101t108.5 -255q0 -155 -108.5 -257.5t-273.5 -102.5t-273.5 102.5t-108.5 257.5q0 154 108.5 255t273.5 101zM404 533q-71 0 -121.5 -52.5t-50.5 -130.5t51 -131.5t121 -53.5
t118 53t48 132t-48 131t-118 52z" />
    <glyph glyph-name="ohungarumlaut" unicode="&#x151;" horiz-adv-x="643" 
d="M219 776l149 -51l-90 -130h-145zM428 776l149 -51l-90 -130h-145zM322 551q137 0 219.5 -76t82.5 -203q0 -126 -82.5 -202.5t-219.5 -76.5t-220 76.5t-83 202.5q0 127 83 203t220 76zM322 391q-45 0 -72 -33.5t-27 -87.5q0 -55 27 -88t72 -33q44 0 71 33t27 88
q0 54 -27 87.5t-71 33.5z" />
    <glyph glyph-name="OE" unicode="&#x152;" horiz-adv-x="1121" 
d="M705 160h375v-160h-680q-164 0 -272.5 99t-108.5 250t108 251.5t273 100.5h670v-160h-365v-110h331v-160h-331v-111zM400 166l97 1v365h-97q-72 0 -120 -52.5t-48 -131.5t48 -130.5t120 -51.5z" />
    <glyph glyph-name="oe" unicode="&#x153;" horiz-adv-x="1008" 
d="M701 551q139 0 217 -88.5t70 -235.5h-374q25 -85 110 -85q64 0 121 52l105 -103q-89 -98 -244 -98q-125 0 -190 79q-70 -79 -194 -79q-137 0 -220 76.5t-83 202.5q0 127 83 203t220 76q126 0 195 -80q66 80 184 80zM786 322q1 40 -22 66.5t-61 26.5q-36 0 -60 -25.5
t-32 -67.5h175zM322 149q44 0 71 33t27 88q0 54 -27 87.5t-71 33.5q-45 0 -72 -33.5t-27 -87.5q0 -55 27 -88t72 -33z" />
    <glyph glyph-name="Racute" unicode="&#x154;" horiz-adv-x="725" 
d="M554 874l-134 -122h-148l107 180zM706 0h-236l-93 189h-110v-189h-208v701h327q141 0 218.5 -65t77.5 -184q0 -156 -118 -223zM267 541v-192h119q47 0 72.5 25t25.5 72q0 46 -25.5 70.5t-72.5 24.5h-119z" />
    <glyph glyph-name="racute" unicode="&#x155;" horiz-adv-x="444" 
d="M421 717l-134 -122h-148l107 180zM263 458q60 94 171 94v-182q-78 10 -124.5 -20.5t-46.5 -89.5v-260h-202v544h202v-86z" />
    <glyph glyph-name="Rcommaaccent" unicode="&#x156;" horiz-adv-x="725" 
d="M564 229l142 -229h-236l-93 189h-110v-189h-208v701h327q141 0 218.5 -65t77.5 -184q0 -156 -118 -223zM267 541v-192h119q47 0 72.5 25t25.5 72q0 46 -25.5 70.5t-72.5 24.5h-119zM366 -37q39 0 66 -24.5t27 -67.5q0 -39 -25 -74l-81 -117h-94l48 117q-36 27 -36 73
q0 41 27 67t68 26z" />
    <glyph glyph-name="rcommaaccent" unicode="&#x157;" horiz-adv-x="444" 
d="M263 458q60 94 171 94v-182q-78 10 -124.5 -20.5t-46.5 -89.5v-260h-202v544h202v-86zM164 -37q39 0 66 -24.5t27 -67.5q0 -39 -25 -74l-81 -117h-94l48 117q-36 27 -36 73q0 41 27 67t68 26z" />
    <glyph glyph-name="Rcaron" unicode="&#x158;" horiz-adv-x="725" 
d="M449 751h-170l-127 172h151l61 -91l61 91h151zM706 0h-236l-93 189h-110v-189h-208v701h327q141 0 218.5 -65t77.5 -184q0 -156 -118 -223zM267 541v-192h119q47 0 72.5 25t25.5 72q0 46 -25.5 70.5t-72.5 24.5h-119z" />
    <glyph glyph-name="rcaron" unicode="&#x159;" horiz-adv-x="444" 
d="M316 594h-170l-127 172h151l61 -91l61 91h151zM263 458q60 94 171 94v-182q-78 10 -124.5 -20.5t-46.5 -89.5v-260h-202v544h202v-86z" />
    <glyph glyph-name="Sacute" unicode="&#x15a;" horiz-adv-x="655" 
d="M361 932l175 -58l-134 -122h-148zM563 469q-56 32 -123 55t-110 23q-58 0 -58 -38q0 -24 27 -40.5t68 -25.5t88 -25.5t88 -37.5t68 -64t27 -102q0 -107 -82 -163.5t-207 -56.5q-90 0 -180.5 30t-156.5 81l78 158q53 -45 129.5 -76t131.5 -31q72 0 72 47q0 24 -27 41
t-68 25.5t-88 24t-88 35t-68 61t-27 99.5q0 101 79 161t211 60q167 0 293 -81z" />
    <glyph glyph-name="sacute" unicode="&#x15b;" horiz-adv-x="535" 
d="M289 775l175 -58l-134 -122h-148zM444 360q-111 57 -178 57q-41 0 -41 -26q0 -16 29.5 -28t71 -23t83 -28t71 -53t29.5 -88q0 -83 -65.5 -131.5t-173.5 -48.5q-149 0 -256 77l62 127q104 -67 197 -67q45 0 45 25q0 16 -28.5 28t-69.5 23t-82 27.5t-69.5 52t-28.5 87.5
q0 84 64 133t168 49q125 0 239 -66z" />
    <glyph glyph-name="Scircumflex" unicode="&#x15c;" horiz-adv-x="655" 
d="M273 923h156l117 -157h-139l-56 83l-56 -83h-139zM563 469q-56 32 -123 55t-110 23q-58 0 -58 -38q0 -24 27 -40.5t68 -25.5t88 -25.5t88 -37.5t68 -64t27 -102q0 -107 -82 -163.5t-207 -56.5q-90 0 -180.5 30t-156.5 81l78 158q53 -45 129.5 -76t131.5 -31q72 0 72 47
q0 24 -27 41t-68 25.5t-88 24t-88 35t-68 61t-27 99.5q0 101 79 161t211 60q167 0 293 -81z" />
    <glyph glyph-name="scircumflex" unicode="&#x15d;" horiz-adv-x="535" 
d="M201 766h156l117 -157h-139l-56 83l-56 -83h-139zM444 360q-111 57 -178 57q-41 0 -41 -26q0 -16 29.5 -28t71 -23t83 -28t71 -53t29.5 -88q0 -83 -65.5 -131.5t-173.5 -48.5q-149 0 -256 77l62 127q104 -67 197 -67q45 0 45 25q0 16 -28.5 28t-69.5 23t-82 27.5
t-69.5 52t-28.5 87.5q0 84 64 133t168 49q125 0 239 -66z" />
    <glyph glyph-name="Scedilla" unicode="&#x15e;" horiz-adv-x="655" 
d="M272 509q0 -24 27 -40.5t68 -25.5t88 -25.5t88 -37.5t68 -64t27 -102q0 -92 -61.5 -147t-162.5 -69l-26 -49q31 -10 49 -32t18 -50q0 -49 -36.5 -79t-97.5 -30q-50 0 -98 33l36 82q20 -20 45 -20q18 0 28.5 9.5t10.5 24.5q0 35 -44 35q-12 0 -36 -4l39 78
q-79 7 -156 35.5t-134 73.5l78 158q53 -45 129.5 -76t131.5 -31q72 0 72 47q0 24 -27 41t-68 25.5t-88 24t-88 35t-68 61t-27 99.5q0 101 79 161t211 60q167 0 293 -81l-77 -160q-56 32 -123 55t-110 23q-58 0 -58 -38z" />
    <glyph glyph-name="scedilla" unicode="&#x15f;" horiz-adv-x="535" 
d="M225 391q0 -16 29.5 -28t71 -23t83 -28t71 -53t29.5 -88q0 -68 -45.5 -114t-123.5 -60l-25 -48q31 -10 49 -32t18 -50q0 -49 -36.5 -79t-97.5 -30q-50 0 -98 33l36 82q20 -20 45 -20q18 0 28.5 9.5t10.5 24.5q0 35 -44 35q-12 0 -36 -4l37 75q-121 9 -213 75l62 127
q104 -67 197 -67q45 0 45 25q0 16 -28.5 28t-69.5 23t-82 27.5t-69.5 52t-28.5 87.5q0 84 64 133t168 49q125 0 239 -66l-67 -127q-111 57 -178 57q-41 0 -41 -26z" />
    <glyph glyph-name="Scaron" unicode="&#x160;" horiz-adv-x="655" 
d="M134 923h151l61 -91l61 91h151l-127 -172h-170zM563 469q-56 32 -123 55t-110 23q-58 0 -58 -38q0 -24 27 -40.5t68 -25.5t88 -25.5t88 -37.5t68 -64t27 -102q0 -107 -82 -163.5t-207 -56.5q-90 0 -180.5 30t-156.5 81l78 158q53 -45 129.5 -76t131.5 -31q72 0 72 47
q0 24 -27 41t-68 25.5t-88 24t-88 35t-68 61t-27 99.5q0 101 79 161t211 60q167 0 293 -81z" />
    <glyph glyph-name="scaron" unicode="&#x161;" horiz-adv-x="535" 
d="M62 766h151l61 -91l61 91h151l-127 -172h-170zM444 360q-111 57 -178 57q-41 0 -41 -26q0 -16 29.5 -28t71 -23t83 -28t71 -53t29.5 -88q0 -83 -65.5 -131.5t-173.5 -48.5q-149 0 -256 77l62 127q104 -67 197 -67q45 0 45 25q0 16 -28.5 28t-69.5 23t-82 27.5t-69.5 52
t-28.5 87.5q0 84 64 133t168 49q125 0 239 -66z" />
    <glyph glyph-name="uni0162" unicode="&#x162;" horiz-adv-x="628" 
d="M6 701h616v-166h-204v-535h-40l-27 -51q31 -10 49 -32t18 -50q0 -49 -36.5 -79t-97.5 -30q-50 0 -98 33l36 82q20 -20 45 -20q18 0 28.5 9.5t10.5 24.5q0 35 -44 35q-12 0 -36 -4l41 82h-58v535h-203v166z" />
    <glyph glyph-name="uni0163" unicode="&#x163;" horiz-adv-x="449" 
d="M315 -51q31 -10 49 -32t18 -50q0 -49 -36.5 -79t-97.5 -30q-50 0 -98 33l36 82q20 -20 45 -20q18 0 28.5 9.5t10.5 24.5q0 35 -44 35q-12 0 -36 -4l39 78q-66 13 -103.5 58.5t-37.5 115.5v217h-75v129h75v151h201v-151h134v-129h-134v-186q0 -52 46 -52q19 0 62 16
l36 -139q-40 -23 -94 -30z" />
    <glyph glyph-name="Tcaron" unicode="&#x164;" horiz-adv-x="628" 
d="M112 923h151l61 -91l61 91h151l-127 -172h-170zM6 701h616v-166h-204v-535h-209v535h-203v166z" />
    <glyph glyph-name="tcaron" unicode="&#x165;" horiz-adv-x="449" 
d="M428 859q39 0 66 -25t27 -68q0 -37 -25 -74l-81 -117h-94l49 118q-37 25 -37 72q0 41 27 67.5t68 26.5zM335 149q19 0 62 16l36 -139q-60 -35 -151 -35q-88 -1 -141 47t-53 132v217h-75v129h75v151h201v-151h134v-129h-134v-186q0 -52 46 -52z" />
    <glyph glyph-name="Tbar" unicode="&#x166;" horiz-adv-x="628" 
d="M184 918h290v-133h-290v133zM6 701h616v-166h-204v-535h-209v535h-203v166z" />
    <glyph glyph-name="tbar" unicode="&#x167;" horiz-adv-x="449" 
d="M397 165l36 -139q-60 -35 -151 -35q-88 -1 -141 47t-53 132v66h-75v109h75v61h-75v110h75v151h201v-151h134v-110h-134v-61h134v-109h-134v-35q0 -52 46 -52q19 0 62 16z" />
    <glyph glyph-name="Utilde" unicode="&#x168;" horiz-adv-x="755" 
d="M565 942q0 -171 -111 -171q-36 0 -71 21.5t-43 21.5q-26 0 -26 -40h-123q0 171 112 171q34 0 69.5 -21.5t43.5 -21.5q27 0 27 40h122zM256 296q0 -59 35.5 -95t89.5 -36q53 0 85.5 35t32.5 96v405h208v-405q0 -140 -88.5 -222.5t-238.5 -82.5q-151 0 -241.5 83t-90.5 222
v405h208v-405z" />
    <glyph glyph-name="utilde" unicode="&#x169;" horiz-adv-x="668" 
d="M291 657q-26 0 -26 -40h-123q0 171 112 171q34 0 69.5 -21.5t43.5 -21.5q27 0 27 40h122q0 -171 -111 -171q-35 0 -70 21.5t-44 21.5zM405 544h202v-544h-202v81q-57 -90 -167 -90q-86 0 -139 56.5t-53 151.5v345h202v-288q0 -40 20 -63.5t53 -23.5q39 1 61.5 30t22.5 76
v269z" />
    <glyph glyph-name="Umacron" unicode="&#x16a;" horiz-adv-x="755" 
d="M233 918h290v-133h-290v133zM256 296q0 -59 35.5 -95t89.5 -36q53 0 85.5 35t32.5 96v405h208v-405q0 -140 -88.5 -222.5t-238.5 -82.5q-151 0 -241.5 83t-90.5 222v405h208v-405z" />
    <glyph glyph-name="umacron" unicode="&#x16b;" horiz-adv-x="668" 
d="M474 761v-133h-290v133h290zM405 544h202v-544h-202v81q-57 -90 -167 -90q-86 0 -139 56.5t-53 151.5v345h202v-288q0 -40 20 -63.5t53 -23.5q39 1 61.5 30t22.5 76v269z" />
    <glyph glyph-name="Ubreve" unicode="&#x16c;" horiz-adv-x="755" 
d="M326 922q2 -24 16 -39t36 -15t36 15t16 39h123q-4 -76 -51.5 -121.5t-123.5 -45.5t-123.5 45.5t-51.5 121.5h123zM256 296q0 -59 35.5 -95t89.5 -36q53 0 85.5 35t32.5 96v405h208v-405q0 -140 -88.5 -222.5t-238.5 -82.5q-151 0 -241.5 83t-90.5 222v405h208v-405z" />
    <glyph glyph-name="ubreve" unicode="&#x16d;" horiz-adv-x="668" 
d="M329 598q-76 0 -123.5 45.5t-51.5 121.5h123q2 -24 16 -39t36 -15t36 15t16 39h123q-4 -76 -51.5 -121.5t-123.5 -45.5zM405 544h202v-544h-202v81q-57 -90 -167 -90q-86 0 -139 56.5t-53 151.5v345h202v-288q0 -40 20 -63.5t53 -23.5q39 1 61.5 30t22.5 76v269z" />
    <glyph glyph-name="Uring" unicode="&#x16e;" horiz-adv-x="755" 
d="M378 978q51 0 87 -35.5t36 -86.5t-36 -86.5t-87 -35.5t-87 35.5t-36 86.5t36 86.5t87 35.5zM378 901q-19 0 -32 -13t-13 -32t13 -32t32 -13t32 13t13 32t-13 32t-32 13zM256 296q0 -59 35.5 -95t89.5 -36q53 0 85.5 35t32.5 96v405h208v-405q0 -140 -88.5 -222.5
t-238.5 -82.5q-151 0 -241.5 83t-90.5 222v405h208v-405z" />
    <glyph glyph-name="uring" unicode="&#x16f;" horiz-adv-x="668" 
d="M329 577q-51 0 -87 35.5t-36 86.5t36 86.5t87 35.5t87 -35.5t36 -86.5t-36 -86.5t-87 -35.5zM329 744q-19 0 -32 -13t-13 -32t13 -32t32 -13t32 13t13 32t-13 32t-32 13zM405 544h202v-544h-202v81q-57 -90 -167 -90q-86 0 -139 56.5t-53 151.5v345h202v-288
q0 -40 20 -63.5t53 -23.5q39 1 61.5 30t22.5 76v269z" />
    <glyph glyph-name="Uhungarumlaut" unicode="&#x170;" horiz-adv-x="755" 
d="M275 933l149 -51l-90 -130h-145zM484 933l149 -51l-90 -130h-145zM256 296q0 -59 35.5 -95t89.5 -36q53 0 85.5 35t32.5 96v405h208v-405q0 -140 -88.5 -222.5t-238.5 -82.5q-151 0 -241.5 83t-90.5 222v405h208v-405z" />
    <glyph glyph-name="uhungarumlaut" unicode="&#x171;" horiz-adv-x="668" 
d="M375 725l-90 -130h-145l86 181zM494 595h-145l86 181l149 -51zM405 544h202v-544h-202v81q-57 -90 -167 -90q-86 0 -139 56.5t-53 151.5v345h202v-288q0 -40 20 -63.5t53 -23.5q39 1 61.5 30t22.5 76v269z" />
    <glyph glyph-name="Uogonek" unicode="&#x172;" horiz-adv-x="756" 
d="M499 701h209v-405q0 -104 -51 -178t-142 -106q-48 -70 -48 -97q0 -19 17 -19q21 0 39 31l51 -59q-41 -71 -115 -71q-37 0 -64.5 20t-27.5 65q0 49 39 110q-9 -1 -26 -1q-151 0 -241.5 83t-90.5 222v405h208v-405q0 -59 35.5 -95t89.5 -36q53 0 85.5 35t32.5 96v405z" />
    <glyph glyph-name="uogonek" unicode="&#x173;" horiz-adv-x="665" 
d="M563 0q-40 -58 -40 -85q0 -19 17 -19q21 0 39 31l51 -59q-41 -71 -115 -71q-37 0 -64.5 20t-27.5 65q0 49 44 118h-55v83q-57 -92 -171 -92q-88 0 -141.5 56.5t-53.5 151.5v345h202v-288q0 -40 21 -63.5t56 -23.5q39 1 62.5 28.5t24.5 72.5v274h202v-544h-51z" />
    <glyph glyph-name="Wcircumflex" unicode="&#x174;" horiz-adv-x="1103" 
d="M474 923h156l117 -157h-139l-56 83l-56 -83h-139zM-3 701h222l120 -485l117 485h203l120 -485l117 485h213l-230 -701h-214l-112 447l-114 -447h-214z" />
    <glyph glyph-name="wcircumflex" unicode="&#x175;" horiz-adv-x="959" 
d="M402 766h156l117 -157h-139l-56 83l-56 -83h-139zM-8 544h205l98 -347l94 347h190l97 -347l96 347h196l-198 -544h-199l-90 312l-92 -312h-199z" />
    <glyph glyph-name="Ycircumflex" unicode="&#x176;" horiz-adv-x="702" 
d="M351 849l-56 -83h-139l117 157h156l117 -157h-139zM709 701l-252 -479v-222h-208v218l-257 483h208l153 -286l149 286h207z" />
    <glyph glyph-name="ycircumflex" unicode="&#x177;" horiz-adv-x="605" 
d="M225 766h156l117 -157h-139l-56 83l-56 -83h-139zM385 -46q-63 -157 -226 -157q-96 0 -175 60l84 135q35 -31 73 -31q41 0 59 35l10 19l-225 529h207l119 -333l101 333h201z" />
    <glyph glyph-name="Ydieresis" unicode="&#x178;" horiz-adv-x="702" 
d="M250 767q-38 0 -62 24.5t-24 61.5t24 61.5t62 24.5t62 -24.5t24 -61.5t-24 -61.5t-62 -24.5zM452 767q-38 0 -62 24.5t-24 61.5t24 61.5t62 24.5t62 -24.5t24 -61.5t-24 -61.5t-62 -24.5zM709 701l-252 -479v-222h-208v218l-257 483h208l153 -286l149 286h207z" />
    <glyph glyph-name="Zacute" unicode="&#x179;" horiz-adv-x="679" 
d="M368 932l175 -58l-134 -122h-148zM36 701h613v-132l-348 -407h355v-162h-632v131l348 408h-336v162z" />
    <glyph glyph-name="zacute" unicode="&#x17a;" horiz-adv-x="561" 
d="M291 775l175 -58l-134 -122h-148zM537 0h-508v119l244 273h-234v152h488v-120l-244 -273h254v-151z" />
    <glyph glyph-name="Zdotaccent" unicode="&#x17b;" horiz-adv-x="679" 
d="M358 960q46 0 75 -29t29 -75t-29 -75t-75 -29t-75 29t-29 75t29 75t75 29zM36 701h613v-132l-348 -407h355v-162h-632v131l348 408h-336v162z" />
    <glyph glyph-name="zdotaccent" unicode="&#x17c;" horiz-adv-x="561" 
d="M281 803q46 0 75 -29t29 -75t-29 -75t-75 -29t-75 29t-29 75t29 75t75 29zM537 0h-508v119l244 273h-234v152h488v-120l-244 -273h254v-151z" />
    <glyph glyph-name="Zcaron" unicode="&#x17d;" horiz-adv-x="679" 
d="M141 923h151l61 -91l61 91h151l-127 -172h-170zM36 701h613v-132l-348 -407h355v-162h-632v131l348 408h-336v162z" />
    <glyph glyph-name="zcaron" unicode="&#x17e;" horiz-adv-x="561" 
d="M64 766h151l61 -91l61 91h151l-127 -172h-170zM537 0h-508v119l244 273h-234v152h488v-120l-244 -273h254v-151z" />
    <glyph glyph-name="florin" unicode="&#x192;" horiz-adv-x="429" 
d="M380 595q-27 1 -44.5 -14t-20.5 -41l-9 -74h113l-16 -128h-113l-44 -359q-11 -84 -72 -133.5t-155 -48.5q-79 0 -129 39l50 138q25 -20 55 -20q22 -1 36 14t18 42l40 328h-74l16 128h74l13 104q11 83 73 133t155 49q95 0 158 -39l-67 -138q-26 20 -57 20z" />
    <glyph glyph-name="Scommaaccent" unicode="&#x218;" horiz-adv-x="655" 
d="M272 509q0 -24 27 -40.5t68 -25.5t88 -25.5t88 -37.5t68 -64t27 -102q0 -107 -82 -163.5t-207 -56.5q-90 0 -180.5 30t-156.5 81l78 158q53 -45 129.5 -76t131.5 -31q72 0 72 47q0 24 -27 41t-68 25.5t-88 24t-88 35t-68 61t-27 99.5q0 101 79 161t211 60q167 0 293 -81
l-77 -160q-56 32 -123 55t-110 23q-58 0 -58 -38zM346 -37q39 0 66 -24.5t27 -67.5q0 -39 -25 -74l-81 -117h-94l48 117q-36 27 -36 73q0 41 27 67t68 26z" />
    <glyph glyph-name="scommaaccent" unicode="&#x219;" horiz-adv-x="535" 
d="M225 391q0 -16 29.5 -28t71 -23t83 -28t71 -53t29.5 -88q0 -83 -65.5 -131.5t-173.5 -48.5q-149 0 -256 77l62 127q104 -67 197 -67q45 0 45 25q0 16 -28.5 28t-69.5 23t-82 27.5t-69.5 52t-28.5 87.5q0 84 64 133t168 49q125 0 239 -66l-67 -127q-111 57 -178 57
q-41 0 -41 -26zM273 -37q39 0 66 -24.5t27 -67.5q0 -39 -25 -74l-81 -117h-94l48 117q-36 27 -36 73q0 41 27 67t68 26z" />
    <glyph glyph-name="uni021A" unicode="&#x21a;" horiz-adv-x="628" 
d="M6 701h616v-166h-204v-535h-209v535h-203v166zM309 -37q39 0 66 -24.5t27 -67.5q0 -39 -25 -74l-81 -117h-94l48 117q-36 27 -36 73q0 41 27 67t68 26z" />
    <glyph glyph-name="uni021B" unicode="&#x21b;" horiz-adv-x="449" 
d="M282 -9q-88 -1 -141 47t-53 132v217h-75v129h75v151h201v-151h134v-129h-134v-186q0 -52 46 -52q19 0 62 16l36 -139q-60 -35 -151 -35zM273 -37q39 0 66 -24.5t27 -67.5q0 -39 -25 -74l-81 -117h-94l48 117q-36 27 -36 73q0 41 27 67t68 26z" />
    <glyph glyph-name="uni0237" unicode="&#x237;" horiz-adv-x="325" 
d="M267 -18q0 -86 -55.5 -135.5t-150.5 -48.5q-87 0 -150 34l45 139q29 -16 59 -16q24 -1 37 13.5t13 43.5v532h202v-562z" />
    <glyph glyph-name="circumflex" unicode="&#x2c6;" horiz-adv-x="350" 
d="M97 766h156l117 -157h-139l-56 83l-56 -83h-139z" />
    <glyph glyph-name="caron" unicode="&#x2c7;" horiz-adv-x="350" 
d="M-37 766h151l61 -91l61 91h151l-127 -172h-170z" />
    <glyph glyph-name="uni02C9" unicode="&#x2c9;" horiz-adv-x="350" 
d="M30 761h290v-133h-290v133z" />
    <glyph glyph-name="breve" unicode="&#x2d8;" horiz-adv-x="350" 
d="M123 765q2 -24 16 -39t36 -15t36 15t16 39h123q-4 -76 -51.5 -121.5t-123.5 -45.5t-123.5 45.5t-51.5 121.5h123z" />
    <glyph glyph-name="dotaccent" unicode="&#x2d9;" horiz-adv-x="350" 
d="M175 803q46 0 75 -29t29 -75t-29 -75t-75 -29t-75 29t-29 75t29 75t75 29z" />
    <glyph glyph-name="ring" unicode="&#x2da;" horiz-adv-x="350" 
d="M175 821q51 0 87 -35.5t36 -86.5t-36 -86.5t-87 -35.5t-87 35.5t-36 86.5t36 86.5t87 35.5zM175 744q-19 0 -32 -13t-13 -32t13 -32t32 -13t32 13t13 32t-13 32t-32 13z" />
    <glyph glyph-name="ogonek" unicode="&#x2db;" horiz-adv-x="350" 
d="M229 21q-56 -76 -56 -106q0 -19 17 -19q20 0 40 31l50 -59q-41 -71 -114 -71q-38 0 -65.5 20t-27.5 65q0 58 60 139h96z" />
    <glyph glyph-name="tilde" unicode="&#x2dc;" horiz-adv-x="350" 
d="M362 785q0 -171 -111 -171q-35 0 -70 21.5t-44 21.5q-26 0 -26 -40h-123q0 171 112 171q34 0 69.5 -21.5t43.5 -21.5q27 0 27 40h122z" />
    <glyph glyph-name="hungarumlaut" unicode="&#x2dd;" horiz-adv-x="350" 
d="M39 776l149 -51l-90 -130h-145zM248 776l149 -51l-90 -130h-145z" />
    <glyph glyph-name="uni0326" unicode="&#x326;" horiz-adv-x="0" 
d="M-125 -37q39 0 66 -24.5t27 -67.5q0 -39 -25 -74l-81 -117h-94l48 117q-36 27 -36 73q0 41 27 67t68 26z" />
    <glyph glyph-name="uni0394" unicode="&#x394;" horiz-adv-x="786" 
d="M505 701l289 -701h-802l299 701h214zM263 150h254l-125 343z" />
    <glyph glyph-name="uni03A9" unicode="&#x3a9;" horiz-adv-x="843" 
d="M475 184q59 30 91.5 80.5t32.5 107.5q0 73 -49.5 121t-128.5 48q-78 0 -127 -48t-49 -121q0 -57 32.5 -107.5t90.5 -80.5v-184h-362v162h174q-57 46 -88 107.5t-31 127.5q0 132 104 222.5t256 90.5q153 0 257.5 -90.5t104.5 -223.5q0 -65 -31.5 -126.5t-87.5 -107.5h173
v-162h-362v184z" />
    <glyph glyph-name="uni03BC" unicode="&#x3bc;" horiz-adv-x="688" 
d="M425 544h202v-544h-202v81q-54 -85 -157 -90v-185h-202v738h202v-288q0 -40 20 -63.5t53 -23.5q39 1 61.5 30t22.5 76v269z" />
    <glyph glyph-name="pi" unicode="&#x3c0;" horiz-adv-x="731" 
d="M719 403h-115v-403h-166v403h-60l-42 -403h-166l41 403h-21q-23 0 -38.5 -14.5t-14.5 -36.5q0 -25 20 -65l-139 -47q-37 74 -37 146q-1 68 51 113t132 45h554z" />
    <glyph glyph-name="Wgrave" unicode="&#x1e80;" horiz-adv-x="1103" 
d="M547 932l107 -180h-148l-134 122zM-3 701h222l120 -485l117 485h203l120 -485l117 485h213l-230 -701h-214l-112 447l-114 -447h-214z" />
    <glyph glyph-name="wgrave" unicode="&#x1e81;" horiz-adv-x="959" 
d="M475 775l107 -180h-148l-134 122zM-8 544h205l98 -347l94 347h190l97 -347l96 347h196l-198 -544h-199l-90 312l-92 -312h-199z" />
    <glyph glyph-name="Wacute" unicode="&#x1e82;" horiz-adv-x="1103" 
d="M562 932l175 -58l-134 -122h-148zM-3 701h222l120 -485l117 485h203l120 -485l117 485h213l-230 -701h-214l-112 447l-114 -447h-214z" />
    <glyph glyph-name="wacute" unicode="&#x1e83;" horiz-adv-x="959" 
d="M490 775l175 -58l-134 -122h-148zM-8 544h205l98 -347l94 347h190l97 -347l96 347h196l-198 -544h-199l-90 312l-92 -312h-199z" />
    <glyph glyph-name="Wdieresis" unicode="&#x1e84;" horiz-adv-x="1103" 
d="M451 939q37 0 61.5 -24.5t24.5 -61.5t-24.5 -61.5t-61.5 -24.5t-61.5 24.5t-24.5 61.5t24.5 61.5t61.5 24.5zM653 939q37 0 61.5 -24.5t24.5 -61.5t-24.5 -61.5t-61.5 -24.5t-61.5 24.5t-24.5 61.5t24.5 61.5t61.5 24.5zM-3 701h222l120 -485l117 485h203l120 -485
l117 485h213l-230 -701h-214l-112 447l-114 -447h-214z" />
    <glyph glyph-name="wdieresis" unicode="&#x1e85;" horiz-adv-x="959" 
d="M379 782q37 0 61.5 -24t24.5 -62t-24.5 -62t-61.5 -24t-61.5 24t-24.5 62t24.5 62t61.5 24zM581 782q37 0 61.5 -24t24.5 -62t-24.5 -62t-61.5 -24t-61.5 24t-24.5 62t24.5 62t61.5 24zM-8 544h205l98 -347l94 347h190l97 -347l96 347h196l-198 -544h-199l-90 312
l-92 -312h-199z" />
    <glyph glyph-name="Ygrave" unicode="&#x1ef2;" horiz-adv-x="702" 
d="M453 752h-148l-134 122l175 58zM709 701l-252 -479v-222h-208v218l-257 483h208l153 -286l149 286h207z" />
    <glyph glyph-name="ygrave" unicode="&#x1ef3;" horiz-adv-x="605" 
d="M298 775l107 -180h-148l-134 122zM385 -46q-63 -157 -226 -157q-96 0 -175 60l84 135q35 -31 73 -31q41 0 59 35l10 19l-225 529h207l119 -333l101 333h201z" />
    <glyph glyph-name="endash" unicode="&#x2013;" horiz-adv-x="409" 
d="M0 339h409v-127h-409v127z" />
    <glyph glyph-name="emdash" unicode="&#x2014;" horiz-adv-x="627" 
d="M0 339h627v-127h-627v127z" />
    <glyph glyph-name="quoteleft" unicode="&#x2018;" horiz-adv-x="254" 
d="M173 584q37 -25 37 -72q0 -41 -27 -67.5t-68 -26.5q-39 0 -66 25t-27 68q0 37 25 74l81 117h94z" />
    <glyph glyph-name="quoteright" unicode="&#x2019;" horiz-adv-x="254" 
d="M129 701q39 0 66 -25t27 -68q0 -37 -25 -74l-81 -117h-94l49 118q-37 25 -37 72q0 41 27 67.5t68 26.5z" />
    <glyph glyph-name="quotesinglbase" unicode="&#x201a;" horiz-adv-x="254" 
d="M129 180q39 0 66 -25t27 -68q0 -37 -25 -74l-81 -117h-94l49 118q-37 25 -37 72q0 41 27 67.5t68 26.5z" />
    <glyph glyph-name="quotedblleft" unicode="&#x201c;" horiz-adv-x="458" 
d="M128 702h94l-49 -118q37 -25 37 -72q0 -41 -27 -67.5t-68 -26.5q-39 0 -66 25t-27 68q0 37 25 74zM377 584q37 -25 37 -72q0 -41 -27 -67.5t-68 -26.5q-39 0 -66 25t-27 68q0 37 25 74l81 117h94z" />
    <glyph glyph-name="quotedblright" unicode="&#x201d;" horiz-adv-x="458" 
d="M129 701q39 0 66 -25t27 -68q0 -37 -25 -74l-81 -117h-94l49 118q-37 25 -37 72q0 41 27 67.5t68 26.5zM333 701q39 0 66 -25t27 -68q0 -37 -25 -74l-81 -117h-94l49 118q-37 25 -37 72q0 41 27 67.5t68 26.5z" />
    <glyph glyph-name="quotedblbase" unicode="&#x201e;" horiz-adv-x="458" 
d="M129 180q39 0 66 -25t27 -68q0 -37 -25 -74l-81 -117h-94l49 118q-37 25 -37 72q0 41 27 67.5t68 26.5zM333 180q39 0 66 -25t27 -68q0 -37 -25 -74l-81 -117h-94l49 118q-37 25 -37 72q0 41 27 67.5t68 26.5z" />
    <glyph glyph-name="dagger" unicode="&#x2020;" horiz-adv-x="593" 
d="M193 699h201v-200h180v-160h-180v-525h-201v525h-174v160h174v200z" />
    <glyph glyph-name="daggerdbl" unicode="&#x2021;" horiz-adv-x="593" 
d="M574 339h-180v-156h180v-160h-180v-209h-201v209h-174v160h174v156h-174v160h174v200h201v-200h180v-160z" />
    <glyph glyph-name="bullet" unicode="&#x2022;" horiz-adv-x="350" 
d="M174 421q63 0 102.5 -39.5t39.5 -101.5q0 -63 -39.5 -102.5t-102.5 -39.5q-62 0 -101.5 39.5t-39.5 102.5q0 62 39.5 101.5t101.5 39.5z" />
    <glyph glyph-name="ellipsis" unicode="&#x2026;" horiz-adv-x="716" 
d="M126 178q41 0 67.5 -25.5t26.5 -66.5t-26.5 -67.5t-67.5 -26.5t-67 26.5t-26 67.5t26 66.5t67 25.5zM358 178q41 0 67.5 -25.5t26.5 -66.5t-26.5 -67.5t-67.5 -26.5t-67 26.5t-26 67.5t26 66.5t67 25.5zM589 178q41 0 67.5 -25.5t26.5 -66.5t-26.5 -67.5t-67.5 -26.5
t-67 26.5t-26 67.5t26 66.5t67 25.5z" />
    <glyph glyph-name="perthousand" unicode="&#x2030;" horiz-adv-x="1503" 
d="M229 704q92 0 146 -57.5t54 -154.5q0 -98 -54.5 -156.5t-145.5 -58.5q-92 0 -146.5 58.5t-54.5 156.5q0 97 54.5 154.5t146.5 57.5zM675 701h188l-492 -701h-189zM229 598q-34 0 -54 -28.5t-20 -77.5q0 -50 20 -78.5t54 -28.5t53.5 29t19.5 78t-19.5 77.5t-53.5 28.5z
M820 423q92 0 146 -58t54 -155q0 -98 -54 -156t-146 -58t-146.5 58t-54.5 156t54.5 155.5t146.5 57.5zM1276 423q92 0 146 -58t54 -155q0 -98 -54 -156t-146 -58t-146.5 58t-54.5 156t54.5 155.5t146.5 57.5zM820 316q-34 0 -54 -28.5t-20 -77.5q0 -50 20 -78.5t54 -28.5
t53.5 29t19.5 78t-19.5 77.5t-53.5 28.5zM1276 316q-34 0 -54 -28.5t-20 -77.5q0 -50 20 -78.5t54 -28.5t53.5 29t19.5 78t-19.5 77.5t-53.5 28.5z" />
    <glyph glyph-name="guilsinglleft" unicode="&#x2039;" horiz-adv-x="283" 
d="M114 459h162l-106 -189l106 -190h-162l-123 190z" />
    <glyph glyph-name="guilsinglright" unicode="&#x203a;" horiz-adv-x="286" 
d="M176 80h-162l106 189l-106 190h162l123 -190z" />
    <glyph glyph-name="fraction" unicode="&#x2044;" horiz-adv-x="135" 
d="M219 701h188l-492 -701h-189z" />
    <glyph glyph-name="Euro" unicode="&#x20ac;" horiz-adv-x="778" 
d="M487 173q40 0 85.5 22t81.5 59l120 -128q-57 -62 -137.5 -98.5t-160.5 -36.5q-129 0 -225 70t-129 184h-98v79h84q-1 9 -1 28q0 20 1 30h-84v79h99q35 111 132.5 178.5t228.5 67.5q80 0 158.5 -33.5t131.5 -90.5l-120 -142q-33 42 -78.5 67.5t-88.5 25.5q-89 0 -136 -73
h211v-79h-240q-2 -18 -2 -28t2 -30h240v-79h-210q47 -72 135 -72z" />
    <glyph glyph-name="uni2113" unicode="&#x2113;" horiz-adv-x="476" 
d="M121 475q21 118 75 176.5t128 58.5q60 0 92.5 -37t32.5 -103q0 -38 -10.5 -75t-32.5 -71.5t-41 -60t-53 -57.5t-49.5 -45.5l-48.5 -40.5q-15 -98 51 -98q52 0 115 76l56 -69q-84 -135 -215 -135q-133 0 -149 143l-45 -26l-27 79l84 58zM238 359q105 115 105 208
q0 43 -25 43q-39 0 -58 -117z" />
    <glyph glyph-name="trademark" unicode="&#x2122;" horiz-adv-x="914" 
d="M-10 701h357v-116h-106v-305h-145v305h-106v116zM383 701h158l89 -209l90 209h158v-421h-130v215l-68 -174h-99l-68 174v-215h-130v421z" />
    <glyph glyph-name="estimated" unicode="&#x212e;" horiz-adv-x="809" 
d="M197 312q-5 0 -5 -4v-164q0 -9 8 -19q83 -89 206 -89q63 0 119.5 26.5t95.5 72.5h49q-46 -54 -116 -85.5t-149 -31.5q-139 0 -237 88t-98 213t98 213.5t237 88.5t237 -88.5t98 -213.5v-7h-543zM618 498q0 11 -9 20q-85 85 -203 85q-120 0 -205 -88q-9 -9 -9 -20v-162
q0 -5 5 -5h416q5 0 5 5v165z" />
    <glyph glyph-name="oneeighth" unicode="&#x215b;" horiz-adv-x="926" 
d="M7 701h218v-420h-141v312h-77v108zM569 701h188l-492 -701h-189zM714 425q76 0 121 -32t45 -85q0 -50 -47 -84q32 -15 51.5 -43.5t19.5 -61.5q0 -57 -51.5 -91t-137.5 -34t-137 33.5t-51 89.5q0 34 21 63t57 44q-25 16 -40 40t-15 49q0 51 45 81.5t119 30.5zM715 337
q-47 0 -47 -36q0 -34 47 -34t47 34q0 36 -47 36zM715 171q-55 0 -55 -40q0 -39 55 -39q56 0 56 39q0 40 -56 40z" />
    <glyph glyph-name="threeeighths" unicode="&#x215c;" horiz-adv-x="985" 
d="M628 701h188l-492 -701h-189zM254 530q44 -9 71 -39.5t27 -76.5q0 -61 -48 -100t-127 -39q-107 0 -175 56l56 103q48 -58 107 -58q48 0 48 38t-48 38h-78v71l85 78h-148v98h308v-76l-97 -88zM773 425q76 0 121 -32t45 -85q0 -50 -47 -84q32 -15 51.5 -43.5t19.5 -61.5
q0 -57 -51.5 -91t-137.5 -34t-137 33.5t-51 89.5q0 34 21 63t57 44q-25 16 -40 40t-15 49q0 51 45 81.5t119 30.5zM774 337q-47 0 -47 -36q0 -34 47 -34t47 34q0 36 -47 36zM774 171q-55 0 -55 -40q0 -39 55 -39q56 0 56 39q0 40 -56 40z" />
    <glyph glyph-name="fiveeighths" unicode="&#x215d;" horiz-adv-x="998" 
d="M177 549h22q79 0 126 -33.5t47 -91.5q0 -68 -50 -108.5t-134 -40.5q-98 0 -180 55l56 104q48 -58 107 -58q49 0 49 39q0 36 -50 36q-97 0 -123 -1v251h305v-104h-175v-48zM641 701h188l-492 -701h-189zM786 425q76 0 121 -32t45 -85q0 -50 -47 -84q32 -15 51.5 -43.5
t19.5 -61.5q0 -57 -51.5 -91t-137.5 -34t-137 33.5t-51 89.5q0 34 21 63t57 44q-25 16 -40 40t-15 49q0 51 45 81.5t119 30.5zM787 337q-47 0 -47 -36q0 -34 47 -34t47 34q0 36 -47 36zM787 171q-55 0 -55 -40q0 -39 55 -39q56 0 56 39q0 40 -56 40z" />
    <glyph glyph-name="seveneighths" unicode="&#x215e;" horiz-adv-x="971" 
d="M24 701h360v-91l-153 -329h-149l146 316h-80v-59h-124v163zM614 701h188l-492 -701h-189zM759 425q76 0 121 -32t45 -85q0 -50 -47 -84q32 -15 51.5 -43.5t19.5 -61.5q0 -57 -51.5 -91t-137.5 -34t-137 33.5t-51 89.5q0 34 21 63t57 44q-25 16 -40 40t-15 49
q0 51 45 81.5t119 30.5zM760 337q-47 0 -47 -36q0 -34 47 -34t47 34q0 36 -47 36zM760 171q-55 0 -55 -40q0 -39 55 -39q56 0 56 39q0 40 -56 40z" />
    <glyph glyph-name="partialdiff" unicode="&#x2202;" horiz-adv-x="633" 
d="M34 640q48 32 114 51t130 19q148 0 236.5 -98t88.5 -261q0 -166 -83 -263t-228 -97q-121 0 -195 66.5t-74 177.5q0 103 64.5 166.5t170.5 63.5q98 0 147 -68q1 74 -34.5 113t-105.5 39q-90 0 -152 -55zM298 313q-82 0 -82 -77q0 -79 84 -79q42 0 63.5 21t21.5 57
q0 37 -22.5 57.5t-64.5 20.5z" />
    <glyph glyph-name="product" unicode="&#x220f;" horiz-adv-x="737" 
d="M59 742h620v-936h-202v778h-216v-778h-202v936z" />
    <glyph glyph-name="summation" unicode="&#x2211;" horiz-adv-x="619" 
d="M37 745h565v-174h-325l216 -270l-216 -265h335v-174h-587v143l248 296l-236 297v147z" />
    <glyph glyph-name="minus" unicode="&#x2212;" horiz-adv-x="515" 
d="M31 391h453v-126h-453v126z" />
    <glyph glyph-name="uni2215" unicode="&#x2215;" horiz-adv-x="364" 
d="M283 808h169l-327 -915h-169z" />
    <glyph glyph-name="uni2219" unicode="&#x2219;" horiz-adv-x="350" 
d="M174 421q63 0 102.5 -39.5t39.5 -101.5q0 -63 -39.5 -102.5t-102.5 -39.5q-62 0 -101.5 39.5t-39.5 102.5q0 62 39.5 101.5t101.5 39.5z" />
    <glyph glyph-name="radical" unicode="&#x221a;" horiz-adv-x="717" 
d="M544 744h193l-267 -903h-215l-130 414h-128v159h267l100 -373z" />
    <glyph glyph-name="infinity" unicode="&#x221e;" horiz-adv-x="843" 
d="M615 519q91 0 150 -62.5t59 -158.5t-59 -159t-150 -63q-66 0 -110 31t-82 86q-37 -55 -82 -86t-113 -31q-90 0 -149.5 63t-59.5 158q0 96 59.5 159t149.5 63q66 0 110 -31t82 -86q37 55 82 86t113 31zM228 211q42 0 71.5 22.5t57.5 65.5q-58 85 -129 85q-31 0 -52 -24.5
t-21 -62.5q0 -37 20.5 -61.5t52.5 -24.5zM615 211q32 0 53 24.5t21 62.5q0 37 -21 61.5t-53 24.5q-42 0 -71.5 -22.5t-57.5 -65.5q58 -85 129 -85z" />
    <glyph glyph-name="integral" unicode="&#x222b;" horiz-adv-x="415" 
d="M413 704q-32 12 -59 12q-44 0 -63 -23t-19 -78q0 -39 13.5 -245t13.5 -253q0 -141 -47.5 -201t-159.5 -60q-73 0 -117 29l23 128q39 -19 68 -19q47 0 66.5 25t19.5 84q0 46 -14 249.5t-14 244.5q0 140 47 199.5t158 59.5q48 0 102 -24z" />
    <glyph glyph-name="approxequal" unicode="&#x2248;" horiz-adv-x="515" 
d="M465 534q0 -187 -121 -187q-30 0 -56 11.5t-44.5 23.5t-29.5 12q-28 0 -28 -43h-135q0 187 122 187q38 0 78.5 -23.5t50.5 -23.5q29 0 29 43h134zM465 299q0 -188 -121 -188q-30 0 -56 11.5t-44.5 23.5t-29.5 12q-28 0 -28 -43h-135q0 188 122 188q38 0 78.5 -23.5
t50.5 -23.5q29 0 29 43h134z" />
    <glyph glyph-name="notequal" unicode="&#x2260;" horiz-adv-x="515" 
d="M484 374h-140l-29 -92h169v-126h-209l-44 -139h-151l44 139h-93v126h132l29 92h-161v126h201l42 134h152l-42 -134h100v-126z" />
    <glyph glyph-name="lessequal" unicode="&#x2264;" horiz-adv-x="515" 
d="M484 656v-135l-323 -118l323 -120v-135l-453 177v154zM31 118h453v-126h-453v126z" />
    <glyph glyph-name="greaterequal" unicode="&#x2265;" horiz-adv-x="515" 
d="M31 157v135l323 118l-323 120v134l453 -176v-154zM31 118h453v-126h-453v126z" />
    <glyph glyph-name="lozenge" unicode="&#x25ca;" horiz-adv-x="493" 
d="M247 668l227 -338l-228 -341l-227 341zM247 467l-93 -137l92 -138l93 138z" />
    <glyph glyph-name="A.ss01" horiz-adv-x="760" 
d="M48 403q0 140 89.5 223t240.5 83q153 0 244 -83t91 -223v-403h-208v158h-249v-158h-208v403zM505 403q0 60 -34 96t-91 36t-90.5 -36t-33.5 -96v-93h249v93z" />
    <glyph glyph-name="Aacute.ss01" horiz-adv-x="760" 
d="M391 932l175 -58l-134 -122h-148zM48 403q0 140 89.5 223t240.5 83q153 0 244 -83t91 -223v-403h-208v158h-249v-158h-208v403zM505 403q0 60 -34 96t-91 36t-90.5 -36t-33.5 -96v-93h249v93z" />
    <glyph glyph-name="Abreve.ss01" horiz-adv-x="760" 
d="M329 922q2 -24 16 -39t36 -15t36 15t16 39h123q-4 -76 -51.5 -121.5t-123.5 -45.5t-123.5 45.5t-51.5 121.5h123zM48 403q0 140 89.5 223t240.5 83q153 0 244 -83t91 -223v-403h-208v158h-249v-158h-208v403zM505 403q0 60 -34 96t-91 36t-90.5 -36t-33.5 -96v-93h249v93
z" />
    <glyph glyph-name="Acircumflex.ss01" horiz-adv-x="760" 
d="M303 923h156l117 -157h-139l-56 83l-56 -83h-139zM48 403q0 140 89.5 223t240.5 83q153 0 244 -83t91 -223v-403h-208v158h-249v-158h-208v403zM505 403q0 60 -34 96t-91 36t-90.5 -36t-33.5 -96v-93h249v93z" />
    <glyph glyph-name="Adieresis.ss01" horiz-adv-x="760" 
d="M280 939q38 0 62 -24.5t24 -61.5t-24 -61.5t-62 -24.5t-62 24.5t-24 61.5t24 61.5t62 24.5zM482 939q38 0 62 -24.5t24 -61.5t-24 -61.5t-62 -24.5t-62 24.5t-24 61.5t24 61.5t62 24.5zM48 403q0 140 89.5 223t240.5 83q153 0 244 -83t91 -223v-403h-208v158h-249v-158
h-208v403zM505 403q0 60 -34 96t-91 36t-90.5 -36t-33.5 -96v-93h249v93z" />
    <glyph glyph-name="Agrave.ss01" horiz-adv-x="760" 
d="M376 932l107 -180h-148l-134 122zM48 403q0 140 89.5 223t240.5 83q153 0 244 -83t91 -223v-403h-208v158h-249v-158h-208v403zM505 403q0 60 -34 96t-91 36t-90.5 -36t-33.5 -96v-93h249v93z" />
    <glyph glyph-name="Amacron.ss01" horiz-adv-x="760" 
d="M236 918h290v-133h-290v133zM48 403q0 140 89.5 223t240.5 83q153 0 244 -83t91 -223v-403h-208v158h-249v-158h-208v403zM505 403q0 60 -34 96t-91 36t-90.5 -36t-33.5 -96v-93h249v93z" />
    <glyph glyph-name="Aogonek.ss01" horiz-adv-x="762" 
d="M48 403q0 140 89.5 223t240.5 83q153 0 244 -83t91 -223v-403h-56q-40 -58 -40 -85q0 -19 17 -19q20 0 40 31l50 -59q-41 -71 -115 -71q-37 0 -64.5 20t-27.5 65q0 50 45 118h-57v158h-249v-158h-208v403zM505 403q0 60 -34 96t-91 36t-90.5 -36t-33.5 -96v-93h249v93z
" />
    <glyph glyph-name="Aring.ss01" horiz-adv-x="760" 
d="M381 978q51 0 87 -35.5t36 -86.5t-36 -86.5t-87 -35.5t-87 35.5t-36 86.5t36 86.5t87 35.5zM381 901q-19 0 -32 -13t-13 -32t13 -32t32 -13t32 13t13 32t-13 32t-32 13zM48 403q0 140 89.5 223t240.5 83q153 0 244 -83t91 -223v-403h-208v158h-249v-158h-208v403z
M505 403q0 60 -34 96t-91 36t-90.5 -36t-33.5 -96v-93h249v93z" />
    <glyph glyph-name="Atilde.ss01" horiz-adv-x="760" 
d="M568 942q0 -171 -111 -171q-35 0 -70 21.5t-44 21.5q-26 0 -26 -40h-123q0 171 112 171q34 0 69.5 -21.5t43.5 -21.5q27 0 27 40h122zM48 403q0 140 89.5 223t240.5 83q153 0 244 -83t91 -223v-403h-208v158h-249v-158h-208v403zM505 403q0 60 -34 96t-91 36t-90.5 -36
t-33.5 -96v-93h249v93z" />
    <glyph glyph-name="E.ss01" horiz-adv-x="616" 
d="M316 280q-36 0 -58 -15.5t-22 -40.5q0 -29 30.5 -47t75.5 -18q47 0 100 18t84 38l78 -150q-52 -32 -131.5 -53t-158.5 -21q-129 0 -211 55t-82 146q0 59 35.5 108t93.5 69q-40 19 -65 61t-25 91q0 86 75.5 137.5t198.5 51.5q67 0 136 -15t110 -38l-66 -152
q-84 37 -155 37q-46 0 -74.5 -15t-28.5 -43q0 -21 17 -36t43 -15h173v-153h-173z" />
    <glyph glyph-name="Eacute.ss01" horiz-adv-x="616" 
d="M314 932l175 -58l-134 -122h-148zM316 280q-36 0 -58 -15.5t-22 -40.5q0 -29 30.5 -47t75.5 -18q47 0 100 18t84 38l78 -150q-52 -32 -131.5 -53t-158.5 -21q-129 0 -211 55t-82 146q0 59 35.5 108t93.5 69q-40 19 -65 61t-25 91q0 86 75.5 137.5t198.5 51.5
q67 0 136 -15t110 -38l-66 -152q-84 37 -155 37q-46 0 -74.5 -15t-28.5 -43q0 -21 17 -36t43 -15h173v-153h-173z" />
    <glyph glyph-name="Ebreve.ss01" horiz-adv-x="616" 
d="M252 922q2 -24 16 -39t36 -15t36 15t16 39h123q-4 -76 -51.5 -121.5t-123.5 -45.5t-123.5 45.5t-51.5 121.5h123zM316 280q-36 0 -58 -15.5t-22 -40.5q0 -29 30.5 -47t75.5 -18q47 0 100 18t84 38l78 -150q-52 -32 -131.5 -53t-158.5 -21q-129 0 -211 55t-82 146
q0 59 35.5 108t93.5 69q-40 19 -65 61t-25 91q0 86 75.5 137.5t198.5 51.5q67 0 136 -15t110 -38l-66 -152q-84 37 -155 37q-46 0 -74.5 -15t-28.5 -43q0 -21 17 -36t43 -15h173v-153h-173z" />
    <glyph glyph-name="Ecaron.ss01" horiz-adv-x="616" 
d="M87 923h151l61 -91l61 91h151l-127 -172h-170zM316 280q-36 0 -58 -15.5t-22 -40.5q0 -29 30.5 -47t75.5 -18q47 0 100 18t84 38l78 -150q-52 -32 -131.5 -53t-158.5 -21q-129 0 -211 55t-82 146q0 59 35.5 108t93.5 69q-40 19 -65 61t-25 91q0 86 75.5 137.5t198.5 51.5
q67 0 136 -15t110 -38l-66 -152q-84 37 -155 37q-46 0 -74.5 -15t-28.5 -43q0 -21 17 -36t43 -15h173v-153h-173z" />
    <glyph glyph-name="Ecircumflex.ss01" horiz-adv-x="616" 
d="M226 923h156l117 -157h-139l-56 83l-56 -83h-139zM316 280q-36 0 -58 -15.5t-22 -40.5q0 -29 30.5 -47t75.5 -18q47 0 100 18t84 38l78 -150q-52 -32 -131.5 -53t-158.5 -21q-129 0 -211 55t-82 146q0 59 35.5 108t93.5 69q-40 19 -65 61t-25 91q0 86 75.5 137.5
t198.5 51.5q67 0 136 -15t110 -38l-66 -152q-84 37 -155 37q-46 0 -74.5 -15t-28.5 -43q0 -21 17 -36t43 -15h173v-153h-173z" />
    <glyph glyph-name="Edieresis.ss01" horiz-adv-x="616" 
d="M203 939q37 0 61.5 -24.5t24.5 -61.5t-24.5 -61.5t-61.5 -24.5t-61.5 24.5t-24.5 61.5t24.5 61.5t61.5 24.5zM405 939q37 0 61.5 -24.5t24.5 -61.5t-24.5 -61.5t-61.5 -24.5t-61.5 24.5t-24.5 61.5t24.5 61.5t61.5 24.5zM316 280q-36 0 -58 -15.5t-22 -40.5
q0 -29 30.5 -47t75.5 -18q47 0 100 18t84 38l78 -150q-52 -32 -131.5 -53t-158.5 -21q-129 0 -211 55t-82 146q0 59 35.5 108t93.5 69q-40 19 -65 61t-25 91q0 86 75.5 137.5t198.5 51.5q67 0 136 -15t110 -38l-66 -152q-84 37 -155 37q-46 0 -74.5 -15t-28.5 -43
q0 -21 17 -36t43 -15h173v-153h-173z" />
    <glyph glyph-name="Edotaccent.ss01" horiz-adv-x="616" 
d="M304 960q46 0 75 -29t29 -75t-29 -75t-75 -29t-75 29t-29 75t29 75t75 29zM316 280q-36 0 -58 -15.5t-22 -40.5q0 -29 30.5 -47t75.5 -18q47 0 100 18t84 38l78 -150q-52 -32 -131.5 -53t-158.5 -21q-129 0 -211 55t-82 146q0 59 35.5 108t93.5 69q-40 19 -65 61t-25 91
q0 86 75.5 137.5t198.5 51.5q67 0 136 -15t110 -38l-66 -152q-84 37 -155 37q-46 0 -74.5 -15t-28.5 -43q0 -21 17 -36t43 -15h173v-153h-173z" />
    <glyph glyph-name="Egrave.ss01" horiz-adv-x="616" 
d="M299 932l107 -180h-148l-134 122zM316 280q-36 0 -58 -15.5t-22 -40.5q0 -29 30.5 -47t75.5 -18q47 0 100 18t84 38l78 -150q-52 -32 -131.5 -53t-158.5 -21q-129 0 -211 55t-82 146q0 59 35.5 108t93.5 69q-40 19 -65 61t-25 91q0 86 75.5 137.5t198.5 51.5
q67 0 136 -15t110 -38l-66 -152q-84 37 -155 37q-46 0 -74.5 -15t-28.5 -43q0 -21 17 -36t43 -15h173v-153h-173z" />
    <glyph glyph-name="Emacron.ss01" horiz-adv-x="616" 
d="M159 918h290v-133h-290v133zM316 280q-36 0 -58 -15.5t-22 -40.5q0 -29 30.5 -47t75.5 -18q47 0 100 18t84 38l78 -150q-52 -32 -131.5 -53t-158.5 -21q-129 0 -211 55t-82 146q0 59 35.5 108t93.5 69q-40 19 -65 61t-25 91q0 86 75.5 137.5t198.5 51.5q67 0 136 -15
t110 -38l-66 -152q-84 37 -155 37q-46 0 -74.5 -15t-28.5 -43q0 -21 17 -36t43 -15h173v-153h-173z" />
    <glyph glyph-name="Eogonek.ss01" horiz-adv-x="624" 
d="M471 -104q20 0 40 31l50 -59q-41 -71 -114 -71q-38 0 -65.5 20t-27.5 65q0 49 42 114q-40 -5 -73 -5q-130 0 -212 55t-82 146q0 60 35.5 108.5t94.5 68.5q-41 19 -66 61t-25 91q0 86 75.5 137.5t198.5 51.5q67 0 136 -15t110 -38l-65 -152q-84 37 -156 37
q-46 0 -74.5 -15t-28.5 -43q0 -21 17 -36t43 -15h174v-153h-174q-35 0 -57.5 -15.5t-22.5 -40.5q0 -29 30.5 -47t75.5 -18q47 0 100.5 18t83.5 38l78 -150q-42 -26 -104 -46q-54 -74 -54 -104q0 -19 17 -19z" />
    <glyph glyph-name="F.ss01" horiz-adv-x="570" 
d="M338 536q-37 0 -59 -22t-22 -59v-56h256v-160h-256v-239h-209v459q0 114 73.5 182.5t197.5 68.5q154 0 258 -47l-47 -171q-104 44 -192 44z" />
    <glyph glyph-name="G.ss01" horiz-adv-x="741" 
d="M517 219v147h179v-366h-152v46q-82 -55 -170 -55q-154 0 -254.5 102t-100.5 257q0 154 110 255.5t277 101.5q81 0 162.5 -28.5t137.5 -77.5l-118 -143q-36 35 -84.5 55.5t-94.5 20.5q-76 0 -126.5 -52.5t-50.5 -131.5q0 -80 47 -132.5t118 -52.5t120 54z" />
    <glyph glyph-name="Gbreve.ss01" horiz-adv-x="741" 
d="M373 755q-76 0 -123.5 45.5t-51.5 121.5h123q2 -24 16 -39t36 -15t36 15t16 39h123q-4 -76 -51.5 -121.5t-123.5 -45.5zM517 219v147h179v-366h-152v46q-82 -55 -170 -55q-154 0 -254.5 102t-100.5 257q0 154 110 255.5t277 101.5q81 0 162.5 -28.5t137.5 -77.5
l-118 -143q-36 35 -84.5 55.5t-94.5 20.5q-76 0 -126.5 -52.5t-50.5 -131.5q0 -80 47 -132.5t118 -52.5t120 54z" />
    <glyph glyph-name="Gcircumflex.ss01" horiz-adv-x="741" 
d="M373 849l-56 -83h-139l117 157h156l117 -157h-139zM517 219v147h179v-366h-152v46q-82 -55 -170 -55q-154 0 -254.5 102t-100.5 257q0 154 110 255.5t277 101.5q81 0 162.5 -28.5t137.5 -77.5l-118 -143q-36 35 -84.5 55.5t-94.5 20.5q-76 0 -126.5 -52.5t-50.5 -131.5
q0 -80 47 -132.5t118 -52.5t120 54z" />
    <glyph glyph-name="Gcommaaccent.ss01" horiz-adv-x="741" 
d="M517 219v147h179v-366h-152v46q-82 -55 -170 -55q-154 0 -254.5 102t-100.5 257q0 154 110 255.5t277 101.5q81 0 162.5 -28.5t137.5 -77.5l-118 -143q-36 35 -84.5 55.5t-94.5 20.5q-76 0 -126.5 -52.5t-50.5 -131.5q0 -80 47 -132.5t118 -52.5t120 54zM380 -37
q39 0 66 -24.5t27 -67.5q0 -39 -25 -74l-81 -117h-94l48 117q-36 27 -36 73q0 41 27 67t68 26z" />
    <glyph glyph-name="Gdotaccent.ss01" horiz-adv-x="741" 
d="M373 752q-46 0 -75 29t-29 75t29 75t75 29t75 -29t29 -75t-29 -75t-75 -29zM517 219v147h179v-366h-152v46q-82 -55 -170 -55q-154 0 -254.5 102t-100.5 257q0 154 110 255.5t277 101.5q81 0 162.5 -28.5t137.5 -77.5l-118 -143q-36 35 -84.5 55.5t-94.5 20.5
q-76 0 -126.5 -52.5t-50.5 -131.5q0 -80 47 -132.5t118 -52.5t120 54z" />
    <glyph glyph-name="I.ss01" horiz-adv-x="516" 
d="M473 541h-111v-381h111v-160h-431v160h112v381h-112v160h431v-160z" />
    <glyph glyph-name="IJ.ss01" horiz-adv-x="1070" 
d="M473 701v-160h-111v-381h111v-160h-431v160h112v381h-112v160h431zM575 701h448v-569q0 -114 -68.5 -177.5t-186.5 -63.5q-153 0 -259 117l95 137q78 -79 147 -79q29 0 46 18t17 53v398h-239v166z" />
    <glyph glyph-name="Iacute.ss01" horiz-adv-x="516" 
d="M443 874l-134 -122h-148l107 180zM473 541h-111v-381h111v-160h-431v160h112v381h-112v160h431v-160z" />
    <glyph glyph-name="Ibreve.ss01" horiz-adv-x="516" 
d="M258 755q-76 0 -123.5 45.5t-51.5 121.5h123q2 -24 16 -39t36 -15t36 15t16 39h123q-4 -76 -51.5 -121.5t-123.5 -45.5zM473 541h-111v-381h111v-160h-431v160h112v381h-112v160h431v-160z" />
    <glyph glyph-name="Icircumflex.ss01" horiz-adv-x="516" 
d="M258 849l-56 -83h-139l117 157h156l117 -157h-139zM473 541h-111v-381h111v-160h-431v160h112v381h-112v160h431v-160z" />
    <glyph glyph-name="Idieresis.ss01" horiz-adv-x="516" 
d="M157 767q-37 0 -61.5 24.5t-24.5 61.5t24.5 61.5t61.5 24.5t61.5 -24.5t24.5 -61.5t-24.5 -61.5t-61.5 -24.5zM359 767q-37 0 -61.5 24.5t-24.5 61.5t24.5 61.5t61.5 24.5t61.5 -24.5t24.5 -61.5t-24.5 -61.5t-61.5 -24.5zM473 541h-111v-381h111v-160h-431v160h112v381
h-112v160h431v-160z" />
    <glyph glyph-name="Idotaccent.ss01" horiz-adv-x="516" 
d="M258 752q-46 0 -75 29t-29 75t29 75t75 29t75 -29t29 -75t-29 -75t-75 -29zM473 541h-111v-381h111v-160h-431v160h112v381h-112v160h431v-160z" />
    <glyph glyph-name="Igrave.ss01" horiz-adv-x="516" 
d="M360 752h-148l-134 122l175 58zM473 541h-111v-381h111v-160h-431v160h112v381h-112v160h431v-160z" />
    <glyph glyph-name="Imacron.ss01" horiz-adv-x="516" 
d="M403 918v-133h-290v133h290zM473 541h-111v-381h111v-160h-431v160h112v381h-112v160h431v-160z" />
    <glyph glyph-name="Iogonek.ss01" horiz-adv-x="516" 
d="M473 541h-111v-381h111v-160h-75q-41 -59 -41 -85q0 -19 17 -19q20 0 40 31l50 -59q-41 -71 -114 -71q-38 0 -65.5 20t-27.5 65q0 51 45 118h-260v160h112v381h-112v160h431v-160z" />
    <glyph glyph-name="Itilde.ss01" horiz-adv-x="516" 
d="M220 814q-26 0 -26 -40h-123q0 171 112 171q34 0 69.5 -21.5t43.5 -21.5q27 0 27 40h122q0 -171 -111 -171q-36 0 -71 21.5t-43 21.5zM473 541h-111v-381h111v-160h-431v160h112v381h-112v160h431v-160z" />
    <glyph glyph-name="J.ss01" horiz-adv-x="554" 
d="M507 132q0 -114 -68.5 -177.5t-186.5 -63.5q-153 0 -259 117l95 137q78 -79 147 -79q29 0 46 18t17 53v398h-239v166h448v-569z" />
    <glyph glyph-name="M.ss01" horiz-adv-x="1167" 
d="M894 701q102 0 164 -70.5t62 -187.5v-443h-211v394q0 55 -27 87.5t-74 32.5q-51 -1 -83 -38.5t-32 -96.5v-379h-211v394q0 55 -26.5 87.5t-73.5 32.5q-51 -1 -83 -38.5t-32 -96.5v-379h-208v701h208v-110q69 108 201 110q74 0 128 -38.5t79 -107.5q30 69 87 107t132 39z
" />
    <glyph glyph-name="N.ss01" horiz-adv-x="763" 
d="M478 701q107 0 172 -70.5t65 -187.5v-443h-211v394q0 54 -29.5 87t-78.5 33q-58 -1 -93.5 -38t-35.5 -97v-379h-208v701h208v-114q72 112 211 114z" />
    <glyph glyph-name="Nacute.ss01" horiz-adv-x="763" 
d="M583 874l-134 -122h-148l107 180zM478 701q107 0 172 -70.5t65 -187.5v-443h-211v394q0 54 -29.5 87t-78.5 33q-58 -1 -93.5 -38t-35.5 -97v-379h-208v701h208v-114q72 112 211 114z" />
    <glyph glyph-name="Ncaron.ss01" horiz-adv-x="763" 
d="M478 751h-170l-127 172h151l61 -91l61 91h151zM478 701q107 0 172 -70.5t65 -187.5v-443h-211v394q0 54 -29.5 87t-78.5 33q-58 -1 -93.5 -38t-35.5 -97v-379h-208v701h208v-114q72 112 211 114z" />
    <glyph glyph-name="Ncommaaccent.ss01" horiz-adv-x="763" 
d="M478 701q107 0 172 -70.5t65 -187.5v-443h-211v394q0 54 -29.5 87t-78.5 33q-58 -1 -93.5 -38t-35.5 -97v-379h-208v701h208v-114q72 112 211 114zM389 -37q39 0 66 -24.5t27 -67.5q0 -39 -25 -74l-81 -117h-94l48 117q-36 27 -36 73q0 41 27 67t68 26z" />
    <glyph glyph-name="Eng.ss01" horiz-adv-x="763" 
d="M478 701q107 0 172 -70.5t65 -187.5v-443q-5 -103 -73.5 -161.5t-180.5 -58.5q-98 0 -175 48l68 156q55 -29 94 -29q56 0 56 59v380q0 54 -29.5 87t-78.5 33q-58 -1 -93.5 -38t-35.5 -97v-379h-208v701h208v-114q72 112 211 114z" />
    <glyph glyph-name="Ntilde.ss01" horiz-adv-x="763" 
d="M360 814q-26 0 -26 -40h-123q0 171 112 171q34 0 69.5 -21.5t43.5 -21.5q27 0 27 40h122q0 -171 -111 -171q-36 0 -71 21.5t-43 21.5zM478 701q107 0 172 -70.5t65 -187.5v-443h-211v394q0 54 -29.5 87t-78.5 33q-58 -1 -93.5 -38t-35.5 -97v-379h-208v701h208v-114
q72 112 211 114z" />
    <glyph glyph-name="Q.ss01" horiz-adv-x="802" 
d="M783 351q0 -139 -89 -237.5t-231 -118.5v-113h-132v114q-139 22 -225.5 120t-86.5 235q0 154 108.5 255t273.5 101t273.5 -101t108.5 -255zM463 177q48 19 77.5 65.5t29.5 107.5q0 79 -48 131t-118 52q-71 0 -121.5 -52.5t-50.5 -130.5q0 -56 27 -101t72 -67v122h132
v-127z" />
    <glyph glyph-name="T.ss01" horiz-adv-x="700" 
d="M677 627l-54 -155q-82 41 -174 56v-528h-208v528q-89 -14 -173 -56l-54 156q147 82 330 82q184 0 333 -83z" />
    <glyph glyph-name="Tbar.ss01" horiz-adv-x="700" 
d="M495 918v-133h-290v133h290zM677 627l-54 -155q-82 41 -174 56v-528h-208v528q-89 -14 -173 -56l-54 156q147 82 330 82q184 0 333 -83z" />
    <glyph glyph-name="Tcaron.ss01" horiz-adv-x="700" 
d="M430 751h-170l-127 172h151l61 -91l61 91h151zM677 627l-54 -155q-82 41 -174 56v-528h-208v528q-89 -14 -173 -56l-54 156q147 82 330 82q184 0 333 -83z" />
    <glyph glyph-name="uni0162.ss01" horiz-adv-x="700" 
d="M677 627l-54 -155q-82 41 -174 56v-528h-42l-27 -51q31 -10 49 -32t18 -50q0 -49 -36.5 -79t-97.5 -30q-50 0 -98 33l36 82q20 -20 45 -20q18 0 28.5 9.5t10.5 24.5q0 35 -44 35q-12 0 -36 -4l41 82h-55v528q-89 -14 -173 -56l-54 156q147 82 330 82q184 0 333 -83z" />
    <glyph glyph-name="uni021A.ss01" horiz-adv-x="700" 
d="M677 627l-54 -155q-82 41 -174 56v-528h-208v528q-89 -14 -173 -56l-54 156q147 82 330 82q184 0 333 -83zM338 -37q39 0 66 -24.5t27 -67.5q0 -39 -25 -74l-81 -117h-94l48 117q-36 27 -36 73q0 41 27 67t68 26z" />
    <glyph glyph-name="U.ss01" horiz-adv-x="763" 
d="M496 701h208v-701h-208v114q-72 -112 -211 -114q-107 0 -172 70.5t-65 187.5v443h211v-394q0 -54 29.5 -87t78.5 -33q58 1 93.5 38t35.5 97v379z" />
    <glyph glyph-name="Uacute.ss01" horiz-adv-x="763" 
d="M568 874l-134 -122h-148l107 180zM496 701h208v-701h-208v114q-72 -112 -211 -114q-107 0 -172 70.5t-65 187.5v443h211v-394q0 -54 29.5 -87t78.5 -33q58 1 93.5 38t35.5 97v379z" />
    <glyph glyph-name="Ubreve.ss01" horiz-adv-x="763" 
d="M383 755q-76 0 -123.5 45.5t-51.5 121.5h123q2 -24 16 -39t36 -15t36 15t16 39h123q-4 -76 -51.5 -121.5t-123.5 -45.5zM496 701h208v-701h-208v114q-72 -112 -211 -114q-107 0 -172 70.5t-65 187.5v443h211v-394q0 -54 29.5 -87t78.5 -33q58 1 93.5 38t35.5 97v379z" />
    <glyph glyph-name="Ucircumflex.ss01" horiz-adv-x="763" 
d="M383 849l-56 -83h-139l117 157h156l117 -157h-139zM496 701h208v-701h-208v114q-72 -112 -211 -114q-107 0 -172 70.5t-65 187.5v443h211v-394q0 -54 29.5 -87t78.5 -33q58 1 93.5 38t35.5 97v379z" />
    <glyph glyph-name="Udieresis.ss01" horiz-adv-x="763" 
d="M282 767q-38 0 -62 24.5t-24 61.5t24 61.5t62 24.5t62 -24.5t24 -61.5t-24 -61.5t-62 -24.5zM484 767q-38 0 -62 24.5t-24 61.5t24 61.5t62 24.5t62 -24.5t24 -61.5t-24 -61.5t-62 -24.5zM496 701h208v-701h-208v114q-72 -112 -211 -114q-107 0 -172 70.5t-65 187.5v443
h211v-394q0 -54 29.5 -87t78.5 -33q58 1 93.5 38t35.5 97v379z" />
    <glyph glyph-name="Ugrave.ss01" horiz-adv-x="763" 
d="M485 752h-148l-134 122l175 58zM496 701h208v-701h-208v114q-72 -112 -211 -114q-107 0 -172 70.5t-65 187.5v443h211v-394q0 -54 29.5 -87t78.5 -33q58 1 93.5 38t35.5 97v379z" />
    <glyph glyph-name="Uhungarumlaut.ss01" horiz-adv-x="763" 
d="M429 882l-90 -130h-145l86 181zM548 752h-145l86 181l149 -51zM496 701h208v-701h-208v114q-72 -112 -211 -114q-107 0 -172 70.5t-65 187.5v443h211v-394q0 -54 29.5 -87t78.5 -33q58 1 93.5 38t35.5 97v379z" />
    <glyph glyph-name="Umacron.ss01" horiz-adv-x="763" 
d="M528 918v-133h-290v133h290zM496 701h208v-701h-208v114q-72 -112 -211 -114q-107 0 -172 70.5t-65 187.5v443h211v-394q0 -54 29.5 -87t78.5 -33q58 1 93.5 38t35.5 97v379z" />
    <glyph glyph-name="Uogonek.ss01" horiz-adv-x="763" 
d="M658 -73l50 -59q-41 -71 -114 -71q-38 0 -65.5 20t-27.5 65q0 51 45 118h-50v114q-72 -112 -211 -114q-107 0 -172 70.5t-65 187.5v443h211v-394q0 -54 29.5 -87t78.5 -33q58 1 93.5 38t35.5 97v379h208v-701h-62q-41 -59 -41 -85q0 -19 17 -19q20 0 40 31z" />
    <glyph glyph-name="Uring.ss01" horiz-adv-x="763" 
d="M383 734q-51 0 -87 35.5t-36 86.5t36 86.5t87 35.5t87 -35.5t36 -86.5t-36 -86.5t-87 -35.5zM383 901q-19 0 -32 -13t-13 -32t13 -32t32 -13t32 13t13 32t-13 32t-32 13zM496 701h208v-701h-208v114q-72 -112 -211 -114q-107 0 -172 70.5t-65 187.5v443h211v-394
q0 -54 29.5 -87t78.5 -33q58 1 93.5 38t35.5 97v379z" />
    <glyph glyph-name="Utilde.ss01" horiz-adv-x="763" 
d="M345 814q-26 0 -26 -40h-123q0 171 112 171q34 0 69.5 -21.5t43.5 -21.5q27 0 27 40h122q0 -171 -111 -171q-35 0 -70 21.5t-44 21.5zM496 701h208v-701h-208v114q-72 -112 -211 -114q-107 0 -172 70.5t-65 187.5v443h211v-394q0 -54 29.5 -87t78.5 -33q58 1 93.5 38
t35.5 97v379z" />
    <glyph glyph-name="W.ss01" horiz-adv-x="1159" 
d="M1112 281q0 -127 -80 -208.5t-202 -81.5q-78 0 -145.5 34t-103.5 88q-36 -55 -102.5 -88.5t-145.5 -33.5q-124 0 -204.5 81.5t-80.5 208.5v420h208v-420q0 -51 31.5 -83.5t79.5 -32.5q47 0 77.5 32.5t31.5 83.5v420h208v-420q0 -51 32.5 -83.5t80.5 -32.5t77 32.5
t29 83.5v420h209v-420z" />
    <glyph glyph-name="Wacute.ss01" horiz-adv-x="1159" 
d="M590 932l175 -58l-134 -122h-148zM1112 281q0 -127 -80 -208.5t-202 -81.5q-78 0 -145.5 34t-103.5 88q-36 -55 -102.5 -88.5t-145.5 -33.5q-124 0 -204.5 81.5t-80.5 208.5v420h208v-420q0 -51 31.5 -83.5t79.5 -32.5q47 0 77.5 32.5t31.5 83.5v420h208v-420
q0 -51 32.5 -83.5t80.5 -32.5t77 32.5t29 83.5v420h209v-420z" />
    <glyph glyph-name="Wcircumflex.ss01" horiz-adv-x="1159" 
d="M502 923h156l117 -157h-139l-56 83l-56 -83h-139zM1112 281q0 -127 -80 -208.5t-202 -81.5q-78 0 -145.5 34t-103.5 88q-36 -55 -102.5 -88.5t-145.5 -33.5q-124 0 -204.5 81.5t-80.5 208.5v420h208v-420q0 -51 31.5 -83.5t79.5 -32.5q47 0 77.5 32.5t31.5 83.5v420h208
v-420q0 -51 32.5 -83.5t80.5 -32.5t77 32.5t29 83.5v420h209v-420z" />
    <glyph glyph-name="Wdieresis.ss01" horiz-adv-x="1159" 
d="M479 939q37 0 61.5 -24.5t24.5 -61.5t-24.5 -61.5t-61.5 -24.5t-61.5 24.5t-24.5 61.5t24.5 61.5t61.5 24.5zM681 939q37 0 61.5 -24.5t24.5 -61.5t-24.5 -61.5t-61.5 -24.5t-61.5 24.5t-24.5 61.5t24.5 61.5t61.5 24.5zM1112 281q0 -127 -80 -208.5t-202 -81.5
q-78 0 -145.5 34t-103.5 88q-36 -55 -102.5 -88.5t-145.5 -33.5q-124 0 -204.5 81.5t-80.5 208.5v420h208v-420q0 -51 31.5 -83.5t79.5 -32.5q47 0 77.5 32.5t31.5 83.5v420h208v-420q0 -51 32.5 -83.5t80.5 -32.5t77 32.5t29 83.5v420h209v-420z" />
    <glyph glyph-name="Wgrave.ss01" horiz-adv-x="1159" 
d="M575 932l107 -180h-148l-134 122zM1112 281q0 -127 -80 -208.5t-202 -81.5q-78 0 -145.5 34t-103.5 88q-36 -55 -102.5 -88.5t-145.5 -33.5q-124 0 -204.5 81.5t-80.5 208.5v420h208v-420q0 -51 31.5 -83.5t79.5 -32.5q47 0 77.5 32.5t31.5 83.5v420h208v-420
q0 -51 32.5 -83.5t80.5 -32.5t77 32.5t29 83.5v420h209v-420z" />
    <glyph glyph-name="Y.ss01" horiz-adv-x="745" 
d="M489 701h208v-510q0 -136 -92 -218t-243 -82q-84 0 -167 27t-138 71l80 139q41 -28 95.5 -45.5t102.5 -17.5q69 0 111.5 36t42.5 95v61q-68 -104 -197 -104q-110 0 -177 74t-67 195v279h208v-259q0 -50 30.5 -80.5t82.5 -30.5q53 0 86.5 34t33.5 89v247z" />
    <glyph glyph-name="Yacute.ss01" horiz-adv-x="745" 
d="M557 874l-134 -122h-148l107 180zM489 701h208v-510q0 -136 -92 -218t-243 -82q-84 0 -167 27t-138 71l80 139q41 -28 95.5 -45.5t102.5 -17.5q69 0 111.5 36t42.5 95v61q-68 -104 -197 -104q-110 0 -177 74t-67 195v279h208v-259q0 -50 30.5 -80.5t82.5 -30.5
q53 0 86.5 34t33.5 89v247z" />
    <glyph glyph-name="Ycircumflex.ss01" horiz-adv-x="745" 
d="M372 849l-56 -83h-139l117 157h156l117 -157h-139zM489 701h208v-510q0 -136 -92 -218t-243 -82q-84 0 -167 27t-138 71l80 139q41 -28 95.5 -45.5t102.5 -17.5q69 0 111.5 36t42.5 95v61q-68 -104 -197 -104q-110 0 -177 74t-67 195v279h208v-259q0 -50 30.5 -80.5
t82.5 -30.5q53 0 86.5 34t33.5 89v247z" />
    <glyph glyph-name="Ydieresis.ss01" horiz-adv-x="745" 
d="M271 767q-37 0 -61.5 24.5t-24.5 61.5t24.5 61.5t61.5 24.5t61.5 -24.5t24.5 -61.5t-24.5 -61.5t-61.5 -24.5zM473 767q-37 0 -61.5 24.5t-24.5 61.5t24.5 61.5t61.5 24.5t61.5 -24.5t24.5 -61.5t-24.5 -61.5t-61.5 -24.5zM489 701h208v-510q0 -136 -92 -218t-243 -82
q-84 0 -167 27t-138 71l80 139q41 -28 95.5 -45.5t102.5 -17.5q69 0 111.5 36t42.5 95v61q-68 -104 -197 -104q-110 0 -177 74t-67 195v279h208v-259q0 -50 30.5 -80.5t82.5 -30.5q53 0 86.5 34t33.5 89v247z" />
    <glyph glyph-name="Ygrave.ss01" horiz-adv-x="745" 
d="M474 752h-148l-134 122l175 58zM489 701h208v-510q0 -136 -92 -218t-243 -82q-84 0 -167 27t-138 71l80 139q41 -28 95.5 -45.5t102.5 -17.5q69 0 111.5 36t42.5 95v61q-68 -104 -197 -104q-110 0 -177 74t-67 195v279h208v-259q0 -50 30.5 -80.5t82.5 -30.5
q53 0 86.5 34t33.5 89v247z" />
    <glyph glyph-name="Z.ss01" horiz-adv-x="679" 
d="M301 162h355v-162h-632v131l142 167h-90v129h200l96 112h-336v162h613v-132l-135 -158h79v-129h-189z" />
    <glyph glyph-name="Zacute.ss01" horiz-adv-x="679" 
d="M525 874l-134 -122h-148l107 180zM301 162h355v-162h-632v131l142 167h-90v129h200l96 112h-336v162h613v-132l-135 -158h79v-129h-189z" />
    <glyph glyph-name="Zcaron.ss01" horiz-adv-x="679" 
d="M420 751h-170l-127 172h151l61 -91l61 91h151zM301 162h355v-162h-632v131l142 167h-90v129h200l96 112h-336v162h613v-132l-135 -158h79v-129h-189z" />
    <glyph glyph-name="Zdotaccent.ss01" horiz-adv-x="679" 
d="M340 752q-46 0 -75 29t-29 75t29 75t75 29t75 -29t29 -75t-29 -75t-75 -29zM301 162h355v-162h-632v131l142 167h-90v129h200l96 112h-336v162h613v-132l-135 -158h79v-129h-189z" />
    <glyph glyph-name="a.ss01" 
d="M420 544h202v-544h-202v62q-56 -69 -149 -69q-114 0 -183 77t-69 205q0 125 67 200.5t179 75.5q96 0 155 -70v63zM322 148q44 0 71 33.5t27 88.5q0 54 -27 87.5t-71 33.5q-45 0 -72 -33.5t-27 -87.5q0 -55 27 -88.5t72 -33.5z" />
    <glyph glyph-name="aacute.ss01" 
d="M521 717l-134 -122h-148l107 180zM420 544h202v-544h-202v62q-56 -69 -149 -69q-114 0 -183 77t-69 205q0 125 67 200.5t179 75.5q96 0 155 -70v63zM322 148q44 0 71 33.5t27 88.5q0 54 -27 87.5t-71 33.5q-45 0 -72 -33.5t-27 -87.5q0 -55 27 -88.5t72 -33.5z" />
    <glyph glyph-name="abreve.ss01" 
d="M336 598q-76 0 -123.5 45.5t-51.5 121.5h123q2 -24 16 -39t36 -15t36 15t16 39h123q-4 -76 -51.5 -121.5t-123.5 -45.5zM420 544h202v-544h-202v62q-56 -69 -149 -69q-114 0 -183 77t-69 205q0 125 67 200.5t179 75.5q96 0 155 -70v63zM322 148q44 0 71 33.5t27 88.5
q0 54 -27 87.5t-71 33.5q-45 0 -72 -33.5t-27 -87.5q0 -55 27 -88.5t72 -33.5z" />
    <glyph glyph-name="acircumflex.ss01" 
d="M336 692l-56 -83h-139l117 157h156l117 -157h-139zM420 544h202v-544h-202v62q-56 -69 -149 -69q-114 0 -183 77t-69 205q0 125 67 200.5t179 75.5q96 0 155 -70v63zM322 148q44 0 71 33.5t27 88.5q0 54 -27 87.5t-71 33.5q-45 0 -72 -33.5t-27 -87.5q0 -55 27 -88.5
t72 -33.5z" />
    <glyph glyph-name="adieresis.ss01" 
d="M235 610q-37 0 -61.5 24t-24.5 62t24.5 62t61.5 24t61.5 -24t24.5 -62t-24.5 -62t-61.5 -24zM437 610q-37 0 -61.5 24t-24.5 62t24.5 62t61.5 24t61.5 -24t24.5 -62t-24.5 -62t-61.5 -24zM420 544h202v-544h-202v62q-56 -69 -149 -69q-114 0 -183 77t-69 205
q0 125 67 200.5t179 75.5q96 0 155 -70v63zM322 148q44 0 71 33.5t27 88.5q0 54 -27 87.5t-71 33.5q-45 0 -72 -33.5t-27 -87.5q0 -55 27 -88.5t72 -33.5z" />
    <glyph glyph-name="agrave.ss01" 
d="M438 595h-148l-134 122l175 58zM420 544h202v-544h-202v62q-56 -69 -149 -69q-114 0 -183 77t-69 205q0 125 67 200.5t179 75.5q96 0 155 -70v63zM322 148q44 0 71 33.5t27 88.5q0 54 -27 87.5t-71 33.5q-45 0 -72 -33.5t-27 -87.5q0 -55 27 -88.5t72 -33.5z" />
    <glyph glyph-name="amacron.ss01" 
d="M481 761v-133h-290v133h290zM420 544h202v-544h-202v62q-56 -69 -149 -69q-114 0 -183 77t-69 205q0 125 67 200.5t179 75.5q96 0 155 -70v63zM322 148q44 0 71 33.5t27 88.5q0 54 -27 87.5t-71 33.5q-45 0 -72 -33.5t-27 -87.5q0 -55 27 -88.5t72 -33.5z" />
    <glyph glyph-name="aogonek.ss01" 
d="M589 -73l50 -59q-41 -71 -114 -71q-38 0 -65.5 20t-27.5 65q0 51 45 118h-57v62q-56 -69 -149 -69q-114 0 -183 77t-69 205q0 125 67 200.5t179 75.5q96 0 155 -70v63h202v-544h-49q-41 -59 -41 -85q0 -19 17 -19q20 0 40 31zM322 148q44 0 71 33.5t27 88.5
q0 54 -27 87.5t-71 33.5q-45 0 -72 -33.5t-27 -87.5q0 -55 27 -88.5t72 -33.5z" />
    <glyph glyph-name="aring.ss01" 
d="M336 577q-51 0 -87 35.5t-36 86.5t36 86.5t87 35.5t87 -35.5t36 -86.5t-36 -86.5t-87 -35.5zM336 744q-19 0 -32 -13t-13 -32t13 -32t32 -13t32 13t13 32t-13 32t-32 13zM420 544h202v-544h-202v62q-56 -69 -149 -69q-114 0 -183 77t-69 205q0 125 67 200.5t179 75.5
q96 0 155 -70v63zM322 148q44 0 71 33.5t27 88.5q0 54 -27 87.5t-71 33.5q-45 0 -72 -33.5t-27 -87.5q0 -55 27 -88.5t72 -33.5z" />
    <glyph glyph-name="atilde.ss01" 
d="M298 657q-26 0 -26 -40h-123q0 171 112 171q34 0 69.5 -21.5t43.5 -21.5q27 0 27 40h122q0 -171 -111 -171q-36 0 -71 21.5t-43 21.5zM420 544h202v-544h-202v62q-56 -69 -149 -69q-114 0 -183 77t-69 205q0 125 67 200.5t179 75.5q96 0 155 -70v63zM322 148
q44 0 71 33.5t27 88.5q0 54 -27 87.5t-71 33.5q-45 0 -72 -33.5t-27 -87.5q0 -55 27 -88.5t72 -33.5z" />
    <glyph glyph-name="ae.ss01" horiz-adv-x="954" 
d="M680 142q65 0 127 62l113 -100q-96 -111 -252 -111q-152 0 -225 107q-66 -110 -219 -110q-94 0 -149 46.5t-55 126.5q0 78 55 120t157 44h135l-1 11q-3 30 -28 46.5t-67 16.5q-73 0 -166 -39l-50 134q137 56 263 56q117 0 179 -52q70 51 170 51q123 0 195 -73t74 -198
l-350 -77q32 -61 94 -61zM663 414q-41 0 -65.5 -31t-28.5 -79l174 39q-13 71 -80 71zM367 177v51h-95q-62 0 -62 -51q0 -26 16.5 -40t46.5 -14t56 14.5t38 39.5z" />
    <glyph glyph-name="e.ss01" horiz-adv-x="602" 
d="M333 142q66 0 127 63l113 -101q-96 -111 -255 -111q-135 0 -217 75.5t-82 200.5q0 127 78.5 204t210.5 78q127 0 203.5 -72t77.5 -195l-353 -77q29 -65 97 -65zM315 414q-38 0 -62 -27t-29 -77l165 37q-12 67 -74 67z" />
    <glyph glyph-name="eacute.ss01" horiz-adv-x="602" 
d="M493 717l-134 -122h-148l107 180zM333 142q66 0 127 63l113 -101q-96 -111 -255 -111q-135 0 -217 75.5t-82 200.5q0 127 78.5 204t210.5 78q127 0 203.5 -72t77.5 -195l-353 -77q29 -65 97 -65zM315 414q-38 0 -62 -27t-29 -77l165 37q-12 67 -74 67z" />
    <glyph glyph-name="ebreve.ss01" horiz-adv-x="602" 
d="M308 598q-76 0 -123.5 45.5t-51.5 121.5h123q2 -24 16 -39t36 -15t36 15t16 39h123q-4 -76 -51.5 -121.5t-123.5 -45.5zM333 142q66 0 127 63l113 -101q-96 -111 -255 -111q-135 0 -217 75.5t-82 200.5q0 127 78.5 204t210.5 78q127 0 203.5 -72t77.5 -195l-353 -77
q29 -65 97 -65zM315 414q-38 0 -62 -27t-29 -77l165 37q-12 67 -74 67z" />
    <glyph glyph-name="ecaron.ss01" horiz-adv-x="602" 
d="M388 594h-170l-127 172h151l61 -91l61 91h151zM333 142q66 0 127 63l113 -101q-96 -111 -255 -111q-135 0 -217 75.5t-82 200.5q0 127 78.5 204t210.5 78q127 0 203.5 -72t77.5 -195l-353 -77q29 -65 97 -65zM315 414q-38 0 -62 -27t-29 -77l165 37q-12 67 -74 67z" />
    <glyph glyph-name="ecircumflex.ss01" horiz-adv-x="602" 
d="M308 692l-56 -83h-139l117 157h156l117 -157h-139zM333 142q66 0 127 63l113 -101q-96 -111 -255 -111q-135 0 -217 75.5t-82 200.5q0 127 78.5 204t210.5 78q127 0 203.5 -72t77.5 -195l-353 -77q29 -65 97 -65zM315 414q-38 0 -62 -27t-29 -77l165 37q-12 67 -74 67z
" />
    <glyph glyph-name="edieresis.ss01" horiz-adv-x="602" 
d="M207 610q-37 0 -61.5 24t-24.5 62t24.5 62t61.5 24t61.5 -24t24.5 -62t-24.5 -62t-61.5 -24zM409 610q-37 0 -61.5 24t-24.5 62t24.5 62t61.5 24t61.5 -24t24.5 -62t-24.5 -62t-61.5 -24zM333 142q66 0 127 63l113 -101q-96 -111 -255 -111q-135 0 -217 75.5t-82 200.5
q0 127 78.5 204t210.5 78q127 0 203.5 -72t77.5 -195l-353 -77q29 -65 97 -65zM315 414q-38 0 -62 -27t-29 -77l165 37q-12 67 -74 67z" />
    <glyph glyph-name="edotaccent.ss01" horiz-adv-x="602" 
d="M308 595q-46 0 -75 29t-29 75t29 75t75 29t75 -29t29 -75t-29 -75t-75 -29zM333 142q66 0 127 63l113 -101q-96 -111 -255 -111q-135 0 -217 75.5t-82 200.5q0 127 78.5 204t210.5 78q127 0 203.5 -72t77.5 -195l-353 -77q29 -65 97 -65zM315 414q-38 0 -62 -27t-29 -77
l165 37q-12 67 -74 67z" />
    <glyph glyph-name="egrave.ss01" horiz-adv-x="602" 
d="M410 595h-148l-134 122l175 58zM333 142q66 0 127 63l113 -101q-96 -111 -255 -111q-135 0 -217 75.5t-82 200.5q0 127 78.5 204t210.5 78q127 0 203.5 -72t77.5 -195l-353 -77q29 -65 97 -65zM315 414q-38 0 -62 -27t-29 -77l165 37q-12 67 -74 67z" />
    <glyph glyph-name="emacron.ss01" horiz-adv-x="602" 
d="M453 761v-133h-290v133h290zM333 142q66 0 127 63l113 -101q-96 -111 -255 -111q-135 0 -217 75.5t-82 200.5q0 127 78.5 204t210.5 78q127 0 203.5 -72t77.5 -195l-353 -77q29 -65 97 -65zM315 414q-38 0 -62 -27t-29 -77l165 37q-12 67 -74 67z" />
    <glyph glyph-name="eogonek.ss01" horiz-adv-x="614" 
d="M454 194l106 -103q-112 -126 -112 -176q0 -19 17 -19q19 0 39 31l50 -59q-41 -71 -114 -71q-37 0 -64.5 20t-27.5 65q0 57 51 128q-44 -17 -81 -17q-135 0 -217 75.5t-82 200.5q0 127 78.5 204t210.5 78q127 0 203.5 -72t77.5 -195l-353 -77q29 -65 97 -65q66 0 121 52z
M315 414q-38 0 -62 -27t-29 -77l165 37q-12 67 -74 67z" />
    <glyph glyph-name="f.ss01" horiz-adv-x="364" 
d="M310 594q-25 0 -40.5 -14t-15.5 -38v-26h113v-129h-113v-387h-201v566q0 86 60 136t158 49q99 0 166 -39l-68 -139q-29 21 -59 21z" />
    <glyph glyph-name="g.ss01" horiz-adv-x="650" 
d="M392 544h201v-497q0 -114 -83 -182t-221 -68q-76 1 -146.5 32.5t-111.5 87.5l88 108q71 -71 161 -71q51 0 81.5 23.5t30.5 63.5v55q-53 -65 -138 -65q-107 0 -171 72t-64 191q0 116 62.5 186t166.5 70q90 0 144 -65v59zM300 176q42 0 67 31t25 81q0 52 -25 82.5t-67 30.5
q-41 0 -66.5 -31t-25.5 -82q0 -50 25.5 -81t66.5 -31z" />
    <glyph glyph-name="gbreve.ss01" horiz-adv-x="650" 
d="M319 598q-76 0 -123.5 45.5t-51.5 121.5h123q2 -24 16 -39t36 -15t36 15t16 39h123q-4 -76 -51.5 -121.5t-123.5 -45.5zM392 544h201v-497q0 -114 -83 -182t-221 -68q-76 1 -146.5 32.5t-111.5 87.5l88 108q71 -71 161 -71q51 0 81.5 23.5t30.5 63.5v55q-53 -65 -138 -65
q-107 0 -171 72t-64 191q0 116 62.5 186t166.5 70q90 0 144 -65v59zM300 176q42 0 67 31t25 81q0 52 -25 82.5t-67 30.5q-41 0 -66.5 -31t-25.5 -82q0 -50 25.5 -81t66.5 -31z" />
    <glyph glyph-name="gcircumflex.ss01" horiz-adv-x="650" 
d="M319 692l-56 -83h-139l117 157h156l117 -157h-139zM392 544h201v-497q0 -114 -83 -182t-221 -68q-76 1 -146.5 32.5t-111.5 87.5l88 108q71 -71 161 -71q51 0 81.5 23.5t30.5 63.5v55q-53 -65 -138 -65q-107 0 -171 72t-64 191q0 116 62.5 186t166.5 70q90 0 144 -65v59z
M300 176q42 0 67 31t25 81q0 52 -25 82.5t-67 30.5q-41 0 -66.5 -31t-25.5 -82q0 -50 25.5 -81t66.5 -31z" />
    <glyph glyph-name="gcommaaccent.ss01" horiz-adv-x="663" 
d="M313 581q-39 0 -66 24.5t-27 67.5q0 39 25 74l81 117h94l-48 -117q36 -27 36 -73q0 -41 -27 -67t-68 -26zM392 544h201v-497q0 -114 -83 -182t-221 -68q-76 1 -146.5 32.5t-111.5 87.5l88 108q71 -71 161 -71q51 0 81.5 23.5t30.5 63.5v55q-53 -65 -138 -65
q-107 0 -171 72t-64 191q0 116 62.5 186t166.5 70q90 0 144 -65v59zM300 176q42 0 67 31t25 81q0 52 -25 82.5t-67 30.5q-41 0 -66.5 -31t-25.5 -82q0 -50 25.5 -81t66.5 -31z" />
    <glyph glyph-name="gdotaccent.ss01" horiz-adv-x="650" 
d="M319 595q-46 0 -75 29t-29 75t29 75t75 29t75 -29t29 -75t-29 -75t-75 -29zM392 544h201v-497q0 -114 -83 -182t-221 -68q-76 1 -146.5 32.5t-111.5 87.5l88 108q71 -71 161 -71q51 0 81.5 23.5t30.5 63.5v55q-53 -65 -138 -65q-107 0 -171 72t-64 191q0 116 62.5 186
t166.5 70q90 0 144 -65v59zM300 176q42 0 67 31t25 81q0 52 -25 82.5t-67 30.5q-41 0 -66.5 -31t-25.5 -82q0 -50 25.5 -81t66.5 -31z" />
    <glyph glyph-name="l.ss01" horiz-adv-x="360" 
d="M253 216q0 -52 47 -52q22 0 50 13l14 -166q-55 -21 -105 -21q-88 0 -148 56.5t-60 163.5v532h202v-526z" />
    <glyph glyph-name="oe.ss01" horiz-adv-x="1004" 
d="M735 142q66 0 127 63l113 -101q-96 -111 -255 -111q-130 0 -200 84q-68 -84 -198 -84q-137 0 -220 76.5t-83 202.5q0 127 83 203t220 76q130 0 197 -83q67 82 191 83q127 0 203.5 -72t77.5 -195l-353 -77q29 -65 97 -65zM717 414q-38 0 -62 -27t-29 -77l165 37
q-12 67 -74 67zM322 149q44 0 71 33t27 88q0 54 -27 87.5t-71 33.5q-45 0 -72 -33.5t-27 -87.5q0 -55 27 -88t72 -33z" />
    <glyph glyph-name="t.ss01" horiz-adv-x="412" 
d="M359 165l36 -139q-59 -35 -150 -35q-88 -1 -141 48.5t-53 134.5v493h201v-151h134v-129h-134v-182q0 -56 47 -56q19 0 60 16z" />
    <glyph glyph-name="tbar.ss01" horiz-adv-x="412" 
d="M359 165l36 -139q-59 -35 -150 -35q-88 -1 -141 48.5t-53 134.5v493h201v-151h132v-110h-132v-61h132v-109h-132v-31q0 -56 47 -56q19 0 60 16z" />
    <glyph glyph-name="tcaron.ss01" horiz-adv-x="412" 
d="M428 859q39 0 66 -25t27 -68q0 -37 -25 -74l-81 -117h-94l49 118q-37 25 -37 72q0 41 27 67.5t68 26.5zM299 149q19 0 60 16l36 -139q-59 -35 -150 -35q-88 -1 -141 48.5t-53 134.5v493h201v-151h134v-129h-134v-182q0 -56 47 -56z" />
    <glyph glyph-name="uni0163.ss01" horiz-adv-x="412" 
d="M258 -51q31 -10 49 -32t18 -50q0 -49 -36.5 -79t-97.5 -30q-50 0 -98 33l36 82q20 -20 45 -20q18 0 28.5 9.5t10.5 24.5q0 35 -44 35q-12 0 -36 -4l41 82q-58 17 -90.5 62.5t-32.5 111.5v493h201v-151h134v-129h-134v-182q0 -56 47 -56q19 0 60 16l36 -139
q-45 -27 -114 -33z" />
    <glyph glyph-name="uni021B.ss01" horiz-adv-x="412" 
d="M245 -9q-88 -1 -141 48.5t-53 134.5v493h201v-151h134v-129h-134v-182q0 -56 47 -56q19 0 60 16l36 -139q-59 -35 -150 -35zM216 -37q39 0 66 -24.5t27 -67.5q0 -39 -25 -74l-81 -117h-94l48 117q-36 27 -36 73q0 41 27 67t68 26z" />
    <glyph glyph-name="w.ss01" horiz-adv-x="984" 
d="M939 239q0 -112 -66 -180t-173 -68q-59 0 -116.5 29t-91.5 76q-31 -47 -87.5 -76t-116.5 -29q-109 0 -175.5 68t-66.5 180v305h199v-296q0 -37 20.5 -59.5t54.5 -22.5q32 0 52 22.5t20 59.5v296h199v-296q0 -37 21 -59.5t56 -22.5q32 0 51.5 22.5t19.5 59.5v296h200v-305
z" />
    <glyph glyph-name="wacute.ss01" horiz-adv-x="984" 
d="M502 775l175 -58l-134 -122h-148zM939 239q0 -112 -66 -180t-173 -68q-59 0 -116.5 29t-91.5 76q-31 -47 -87.5 -76t-116.5 -29q-109 0 -175.5 68t-66.5 180v305h199v-296q0 -37 20.5 -59.5t54.5 -22.5q32 0 52 22.5t20 59.5v296h199v-296q0 -37 21 -59.5t56 -22.5
q32 0 51.5 22.5t19.5 59.5v296h200v-305z" />
    <glyph glyph-name="wcircumflex.ss01" horiz-adv-x="984" 
d="M414 766h156l117 -157h-139l-56 83l-56 -83h-139zM939 239q0 -112 -66 -180t-173 -68q-59 0 -116.5 29t-91.5 76q-31 -47 -87.5 -76t-116.5 -29q-109 0 -175.5 68t-66.5 180v305h199v-296q0 -37 20.5 -59.5t54.5 -22.5q32 0 52 22.5t20 59.5v296h199v-296q0 -37 21 -59.5
t56 -22.5q32 0 51.5 22.5t19.5 59.5v296h200v-305z" />
    <glyph glyph-name="wdieresis.ss01" horiz-adv-x="984" 
d="M391 782q37 0 61.5 -24t24.5 -62t-24.5 -62t-61.5 -24t-61.5 24t-24.5 62t24.5 62t61.5 24zM593 782q37 0 61.5 -24t24.5 -62t-24.5 -62t-61.5 -24t-61.5 24t-24.5 62t24.5 62t61.5 24zM939 239q0 -112 -66 -180t-173 -68q-59 0 -116.5 29t-91.5 76q-31 -47 -87.5 -76
t-116.5 -29q-109 0 -175.5 68t-66.5 180v305h199v-296q0 -37 20.5 -59.5t54.5 -22.5q32 0 52 22.5t20 59.5v296h199v-296q0 -37 21 -59.5t56 -22.5q32 0 51.5 22.5t19.5 59.5v296h200v-305z" />
    <glyph glyph-name="wgrave.ss01" horiz-adv-x="984" 
d="M487 775l107 -180h-148l-134 122zM939 239q0 -112 -66 -180t-173 -68q-59 0 -116.5 29t-91.5 76q-31 -47 -87.5 -76t-116.5 -29q-109 0 -175.5 68t-66.5 180v305h199v-296q0 -37 20.5 -59.5t54.5 -22.5q32 0 52 22.5t20 59.5v296h199v-296q0 -37 21 -59.5t56 -22.5
q32 0 51.5 22.5t19.5 59.5v296h200v-305z" />
    <glyph glyph-name="y.ss01" horiz-adv-x="673" 
d="M415 544h201v-489q0 -113 -83 -185.5t-211 -71.5q-61 0 -131.5 19.5t-118.5 48.5l48 139q90 -50 178 -50q52 0 84.5 29t32.5 75v80q-60 -94 -177 -94q-88 0 -140 56t-52 151v292h202v-234q0 -40 21 -63.5t57 -23.5q41 0 65 29t24 78v214z" />
    <glyph glyph-name="yacute.ss01" horiz-adv-x="673" 
d="M515 717l-134 -122h-148l107 180zM415 544h201v-489q0 -113 -83 -185.5t-211 -71.5q-61 0 -131.5 19.5t-118.5 48.5l48 139q90 -50 178 -50q52 0 84.5 29t32.5 75v80q-60 -94 -177 -94q-88 0 -140 56t-52 151v292h202v-234q0 -40 21 -63.5t57 -23.5q41 0 65 29t24 78v214
z" />
    <glyph glyph-name="ycircumflex.ss01" horiz-adv-x="673" 
d="M330 692l-56 -83h-139l117 157h156l117 -157h-139zM415 544h201v-489q0 -113 -83 -185.5t-211 -71.5q-61 0 -131.5 19.5t-118.5 48.5l48 139q90 -50 178 -50q52 0 84.5 29t32.5 75v80q-60 -94 -177 -94q-88 0 -140 56t-52 151v292h202v-234q0 -40 21 -63.5t57 -23.5
q41 0 65 29t24 78v214z" />
    <glyph glyph-name="ydieresis.ss01" horiz-adv-x="673" 
d="M229 610q-37 0 -61.5 24t-24.5 62t24.5 62t61.5 24t61.5 -24t24.5 -62t-24.5 -62t-61.5 -24zM431 610q-37 0 -61.5 24t-24.5 62t24.5 62t61.5 24t61.5 -24t24.5 -62t-24.5 -62t-61.5 -24zM415 544h201v-489q0 -113 -83 -185.5t-211 -71.5q-61 0 -131.5 19.5t-118.5 48.5
l48 139q90 -50 178 -50q52 0 84.5 29t32.5 75v80q-60 -94 -177 -94q-88 0 -140 56t-52 151v292h202v-234q0 -40 21 -63.5t57 -23.5q41 0 65 29t24 78v214z" />
    <glyph glyph-name="ygrave.ss01" horiz-adv-x="673" 
d="M432 595h-148l-134 122l175 58zM415 544h201v-489q0 -113 -83 -185.5t-211 -71.5q-61 0 -131.5 19.5t-118.5 48.5l48 139q90 -50 178 -50q52 0 84.5 29t32.5 75v80q-60 -94 -177 -94q-88 0 -140 56t-52 151v292h202v-234q0 -40 21 -63.5t57 -23.5q41 0 65 29t24 78v214z
" />
    <glyph glyph-name="z.ss01" horiz-adv-x="562" 
d="M283 151h254v-151h-508v119l97 108h-64v104h156l55 61h-234v152l488 -1v-119l-93 -104h64v-104h-157z" />
    <glyph glyph-name="zacute.ss01" horiz-adv-x="562" 
d="M466 717l-134 -122h-148l107 180zM283 151h254v-151h-508v119l97 108h-64v104h156l55 61h-234v152l488 -1v-119l-93 -104h64v-104h-157z" />
    <glyph glyph-name="zcaron.ss01" horiz-adv-x="562" 
d="M361 594h-170l-127 172h151l61 -91l61 91h151zM283 151h254v-151h-508v119l97 108h-64v104h156l55 61h-234v152l488 -1v-119l-93 -104h64v-104h-157z" />
    <glyph glyph-name="zdotaccent.ss01" horiz-adv-x="562" 
d="M281 595q-46 0 -75 29t-29 75t29 75t75 29t75 -29t29 -75t-29 -75t-75 -29zM283 151h254v-151h-508v119l97 108h-64v104h156l55 61h-234v152l488 -1v-119l-93 -104h64v-104h-157z" />
    <glyph glyph-name="fi.ss01" horiz-adv-x="691" 
d="M529 595q-46 0 -75 29t-29 75t29 75t75 29t75 -29t29 -75t-29 -75t-75 -29zM53 566q0 86 60 136t158 49q62 0 108 -18l-6 -160q-31 20 -63 20q-26 1 -41 -12.5t-15 -38.5v-26h113v-129h-113v-387h-201v566zM427 0v544h202v-544h-202z" />
    <glyph glyph-name="fl.ss01" horiz-adv-x="772" 
d="M98 560q0 89 77.5 140t210.5 51q129 0 203.5 -59t74.5 -160v-416q0 -52 47 -52q22 0 51 13l13 -166q-55 -21 -104 -21q-89 0 -148.5 56.5t-59.5 163.5v420q0 29 -23 46t-62 18q-37 1 -58.5 -15.5t-21.5 -44.5l1 -50h91v-129h-91l-1 -355h-200v355h-74v129h74v76z" />
    <glyph glyph-name="zero.lf" horiz-adv-x="708" 
d="M355 707q152 0 234 -92.5t82 -263.5q0 -172 -82 -264.5t-234 -92.5q-154 0 -235.5 92t-81.5 265q0 172 81.5 264t235.5 92zM355 556q-56 0 -80 -46.5t-24 -158.5t24 -159t80 -47q55 0 78.5 47t23.5 159t-23.5 158.5t-78.5 46.5z" />
    <glyph glyph-name="one.lf" horiz-adv-x="425" 
d="M4 701h334v-701h-209v535h-125v166z" />
    <glyph glyph-name="two.lf" horiz-adv-x="605" 
d="M286 390q59 63 59 103q0 48 -61 48q-83 0 -190 -89l-78 150q153 108 300 108q107 0 176.5 -52t69.5 -135q0 -99 -134 -236l-122 -125h271v-162h-537v132z" />
    <glyph glyph-name="three.lf" horiz-adv-x="567" 
d="M381 414q73 -14 117.5 -64.5t44.5 -127.5q0 -103 -75 -167t-199 -64q-75 0 -149 24.5t-125 64.5l83 158q80 -92 174 -92q43 0 65.5 19t21.5 55q0 73 -88 73h-120v110l143 142h-243v154h480v-117l-161 -161z" />
    <glyph glyph-name="four.lf" horiz-adv-x="650" 
d="M238 701h199l-199 -405h119v141h193v-141h92v-153h-92v-143h-193v143h-331v138z" />
    <glyph glyph-name="five.lf" horiz-adv-x="604" 
d="M260 448h45q124 0 198 -58t74 -153q0 -112 -78.5 -179t-210.5 -67q-71 0 -147.5 25t-132.5 66l82 157q78 -92 174 -92q44 0 67 19.5t22 56.5q0 70 -89 70q-111 0 -195 -2v410h476v-162h-285v-91z" />
    <glyph glyph-name="six.lf" horiz-adv-x="641" 
d="M528 504q-60 46 -143 46q-74 0 -111.5 -38t-36.5 -110q53 63 154 63q103 0 165 -63t62 -166q0 -112 -74 -178.5t-195 -66.5q-145 0 -228 94.5t-83 256.5q0 167 91 267.5t243 100.5q62 0 126 -16.5t109 -43.5zM343 313q-42 0 -64.5 -21t-22.5 -57t21.5 -57t63.5 -21
q84 0 84 80q0 76 -82 76z" />
    <glyph glyph-name="seven.lf" horiz-adv-x="607" 
d="M31 701h564v-141l-249 -560h-220l240 539h-152v-98h-183v260z" />
    <glyph glyph-name="eight.lf" horiz-adv-x="650" 
d="M324 710q118 0 189 -52.5t71 -140.5q0 -42 -22 -80.5t-59 -61.5q54 -25 86 -72.5t32 -104.5q0 -94 -80.5 -150.5t-215.5 -56.5t-215.5 55.5t-80.5 148.5q0 58 34.5 106.5t93.5 73.5q-42 26 -66.5 66t-24.5 82q0 85 70.5 136t187.5 51zM325 573q-84 0 -84 -67
q0 -65 84 -65t84 65q0 67 -84 67zM325 293q-100 0 -100 -77q0 -75 100 -75t100 75q0 77 -100 77z" />
    <glyph glyph-name="nine.lf" horiz-adv-x="642" 
d="M114 197q60 -46 143 -46q74 0 111.5 38t36.5 110q-53 -63 -154 -63q-103 0 -165 63t-62 166q0 112 74 178.5t195 66.5q145 0 228 -94.5t83 -256.5q0 -167 -91 -267.5t-243 -100.5q-62 0 -126 16.5t-109 43.5zM299 388q42 0 64.5 21t22.5 57t-21.5 57t-63.5 21
q-84 0 -84 -80q0 -76 82 -76z" />
    <glyph glyph-name="zero.osf" horiz-adv-x="708" 
d="M355 607q143 0 229.5 -84t86.5 -222q0 -139 -86.5 -223t-229.5 -84t-230 84t-87 223q0 138 87 222t230 84zM355 455q-48 0 -76 -41t-28 -113t28 -113.5t76 -41.5q47 0 74.5 41t27.5 114q0 72 -27.5 113t-74.5 41z" />
    <glyph glyph-name="one.osf" horiz-adv-x="425" 
d="M4 601h334v-601h-209v435h-125v166z" />
    <glyph glyph-name="two.osf" horiz-adv-x="551" 
d="M254 344q43 45 43 71q0 27 -38 27q-66 0 -166 -78l-77 150q139 95 276 95q96 0 159.5 -45.5t63.5 -117.5q0 -88 -120 -204l-88 -81h216v-161h-483v130z" />
    <glyph glyph-name="three.osf" horiz-adv-x="567" 
d="M381 314q73 -14 117.5 -64.5t44.5 -127.5q0 -103 -75 -167t-200 -64q-75 0 -148.5 24.5t-124.5 64.5l83 158q80 -92 174 -92q87 0 87 74q0 73 -87 73h-121v110l143 142h-243v154h480v-117l-161 -161z" />
    <glyph glyph-name="four.osf" horiz-adv-x="650" 
d="M238 601h199l-199 -405h119v141h193v-141h92v-153h-92v-143h-193v143h-331v138z" />
    <glyph glyph-name="five.osf" horiz-adv-x="604" 
d="M260 348h45q124 0 198 -58t74 -153q0 -112 -78.5 -179t-210.5 -67q-71 0 -147.5 25t-132.5 66l82 158q78 -93 174 -93q89 0 89 76q0 70 -89 70q-112 0 -194 -2v410h475l1 -162h-286v-91z" />
    <glyph glyph-name="six.osf" horiz-adv-x="641" 
d="M528 504q-60 46 -143 46q-74 0 -111.5 -38t-36.5 -110q53 63 154 63q103 0 165 -63t62 -166q0 -112 -74 -178.5t-195 -66.5q-145 0 -228 94.5t-83 256.5q0 167 91 267.5t243 100.5q62 0 126 -16.5t109 -43.5zM343 313q-42 0 -64.5 -21t-22.5 -57t21.5 -57t63.5 -21
q84 0 84 80q0 76 -82 76z" />
    <glyph glyph-name="seven.osf" horiz-adv-x="607" 
d="M31 601h564v-141l-249 -560h-220l240 539h-152v-98h-183v260z" />
    <glyph glyph-name="eight.osf" horiz-adv-x="650" 
d="M324 710q118 0 189 -52.5t71 -140.5q0 -42 -22 -80.5t-59 -61.5q54 -25 86 -72.5t32 -104.5q0 -94 -80.5 -150.5t-215.5 -56.5t-215.5 55.5t-80.5 148.5q0 58 34.5 106.5t93.5 73.5q-42 26 -66.5 66t-24.5 82q0 85 70.5 136t187.5 51zM325 573q-84 0 -84 -67
q0 -65 84 -65t84 65q0 67 -84 67zM325 293q-100 0 -100 -77q0 -75 100 -75t100 75q0 77 -100 77z" />
    <glyph glyph-name="nine.osf" horiz-adv-x="641" 
d="M114 97q60 -46 143 -46q74 0 111.5 38t36.5 110q-53 -63 -154 -63q-103 0 -165 63t-62 166q0 112 74 178.5t195 66.5q145 0 228 -94.5t83 -256.5q0 -167 -91 -267.5t-243 -100.5q-62 0 -126 16.5t-109 43.5zM299 288q42 0 64.5 21t22.5 57t-21.5 57t-63.5 21
q-84 0 -84 -80q0 -76 82 -76z" />
    <glyph glyph-name="zero.tosf" horiz-adv-x="617" 
d="M309 607q129 0 206.5 -84t77.5 -222t-77.5 -222t-206.5 -84t-207 84t-78 222t78 222t207 84zM309 468q-44 0 -70 -45t-26 -122q0 -78 26 -123t70 -45t69.5 45t25.5 123t-25.5 122.5t-69.5 44.5z" />
    <glyph glyph-name="one.tosf" horiz-adv-x="617" 
d="M90 601h336v-601h-208v435h-128v166z" />
    <glyph glyph-name="two.tosf" horiz-adv-x="617" 
d="M290 344q51 44 51 71q0 28 -51 28q-75 0 -181 -78l-77 150q146 95 291 95q102 0 169 -45.5t67 -117.5q0 -88 -127 -205l-109 -81h248v-161h-515v131z" />
    <glyph glyph-name="three.tosf" horiz-adv-x="617" 
d="M402 315q79 -14 127.5 -64.5t48.5 -128.5q0 -103 -78.5 -167t-208.5 -64q-78 0 -155 24.5t-130 64.5l83 158q84 -92 185 -92t101 74t-101 74h-125v109l148 143h-254v154h501v-117l-176 -162z" />
    <glyph glyph-name="four.tosf" horiz-adv-x="617" 
d="M220 602h196l-181 -406h99v142h190v-142h85v-152h-85v-144h-190v144h-308v136z" />
    <glyph glyph-name="five.tosf" horiz-adv-x="617" 
d="M264 349h47q126 0 201 -58t75 -154q0 -112 -79.5 -179t-212.5 -67q-72 0 -149.5 25t-135.5 66l83 158q79 -93 177 -93q93 0 93 76q0 71 -93 71q-113 0 -197 -2v410h482v-162h-291v-91z" />
    <glyph glyph-name="six.tosf" horiz-adv-x="617" 
d="M511 511q-58 46 -141 46q-73 0 -110.5 -41.5t-36.5 -118.5q52 67 153 67t161.5 -63t60.5 -166q0 -111 -72 -177.5t-190 -66.5q-141 0 -222 94t-81 256q0 168 88.5 268.5t236.5 100.5q132 0 229 -59zM331 319q-42 0 -65 -23t-23 -62q0 -38 21.5 -61t64.5 -23q40 0 62 22
t22 64q0 39 -21.5 61t-60.5 22z" />
    <glyph glyph-name="seven.tosf" horiz-adv-x="617" 
d="M33 602h569v-141l-252 -561h-220l243 540h-157v-98h-183v260z" />
    <glyph glyph-name="eight.tosf" horiz-adv-x="617" 
d="M307 711q115 0 184 -52.5t69 -140.5q0 -42 -21 -80.5t-56 -61.5q52 -26 83 -73.5t31 -103.5q0 -95 -78.5 -151.5t-210.5 -56.5q-131 0 -209 55.5t-78 148.5q0 58 33.5 106.5t89.5 74.5q-40 26 -63.5 66t-23.5 82q0 85 68 136t182 51zM308 575q-78 0 -78 -68q0 -65 78 -65
q79 0 79 65q0 68 -79 68zM309 294q-94 0 -94 -78q0 -76 93 -76q46 0 70.5 19.5t24.5 56.5t-24.5 57.5t-69.5 20.5z" />
    <glyph glyph-name="nine.tosf" horiz-adv-x="617" 
d="M107 90q57 -45 140 -45q73 0 110.5 41t36.5 118q-52 -67 -153 -67q-100 0 -160.5 63t-60.5 167q0 111 72 177t190 66q141 0 221.5 -93.5t80.5 -255.5q0 -168 -88.5 -269t-236.5 -101q-132 0 -228 60zM289 452q-40 0 -61.5 -22t-21.5 -64q0 -83 81 -83q42 0 65 23t22 62
q1 38 -21 61t-64 23z" />
    <glyph glyph-name="zero.dnom" horiz-adv-x="456" 
d="M229 423q92 0 146 -58t54 -155q0 -98 -54 -156t-146 -58t-146.5 58t-54.5 156t54.5 155.5t146.5 57.5zM229 316q-34 0 -54 -28.5t-20 -77.5q0 -50 20 -78.5t54 -28.5t53.5 29t19.5 78t-19.5 77.5t-53.5 28.5z" />
    <glyph glyph-name="one.dnom" horiz-adv-x="281" 
d="M7 419h218v-419h-141v312h-77v107z" />
    <glyph glyph-name="two.dnom" horiz-adv-x="392" 
d="M183 236q33 35 33 56q0 23 -32 23q-50 0 -118 -53l-53 97q100 66 194 66q68 0 112.5 -31.5t44.5 -81.5q0 -60 -85 -142l-69 -66h161v-104h-341v85z" />
    <glyph glyph-name="three.dnom" horiz-adv-x="370" 
d="M254 249q44 -9 71 -39.5t27 -76.5q0 -61 -48 -100t-127 -39q-49 0 -96.5 15t-78.5 40l56 103q49 -58 107 -58q48 0 48 39q0 37 -48 37h-78v71l85 79h-148v97h308v-76l-97 -88z" />
    <glyph glyph-name="four.dnom" horiz-adv-x="424" 
d="M150 419h135l-121 -241h64v82h131v-82h56v-96h-56v-82h-131v82h-207v89z" />
    <glyph glyph-name="five.dnom" horiz-adv-x="392" 
d="M177 268h22q79 0 126 -34t47 -91q0 -68 -50 -108.5t-134 -40.5q-100 0 -180 55l56 104q48 -59 107 -59q49 0 49 40q0 35 -50 35h-123v250h305v-104h-175v-47z" />
    <glyph glyph-name="six.dnom" horiz-adv-x="415" 
d="M338 293q-36 27 -89 27q-43 0 -65 -18.5t-21 -55.5q31 33 92 33q64 0 103 -38t39 -100q0 -67 -47 -107t-124 -40q-92 0 -145 57t-53 154q0 100 58 160t155 60q88 0 150 -37zM221 181q-46 0 -46 -40q0 -39 46 -39q45 0 45 41q0 38 -45 38z" />
    <glyph glyph-name="seven.dnom" horiz-adv-x="395" 
d="M24 419h360v-91l-153 -328h-149l146 315h-80v-59h-124v163z" />
    <glyph glyph-name="eight.dnom" horiz-adv-x="421" 
d="M209 425q76 0 121 -32t45 -85q0 -50 -47 -84q32 -15 51.5 -43.5t19.5 -61.5q0 -57 -51.5 -91t-137.5 -34t-137 33.5t-51 89.5q0 34 21 63t57 44q-25 16 -40 40t-15 49q0 51 45 81.5t119 30.5zM210 337q-47 0 -47 -36q0 -34 47 -34t47 34q0 36 -47 36zM210 171
q-55 0 -55 -40q0 -39 55 -39q56 0 56 39q0 40 -56 40z" />
    <glyph glyph-name="nine.dnom" horiz-adv-x="416" 
d="M78 126q34 -27 88 -27q44 0 66 18t21 55q-35 -33 -93 -33q-64 0 -102.5 38.5t-38.5 100.5q0 67 46.5 107t124.5 40q92 0 145 -57t53 -154q0 -100 -58.5 -160t-155.5 -60q-89 0 -150 37zM195 317q-45 0 -45 -40q0 -39 44 -39q46 0 46 39q0 40 -45 40z" />
    <glyph glyph-name="zero.numr" horiz-adv-x="456" 
d="M229 704q92 0 146 -57.5t54 -154.5q0 -98 -54.5 -156.5t-145.5 -58.5q-92 0 -146.5 58.5t-54.5 156.5q0 97 54.5 154.5t146.5 57.5zM229 598q-34 0 -54 -28.5t-20 -77.5q0 -50 20 -78.5t54 -28.5t53.5 29t19.5 78t-19.5 77.5t-53.5 28.5z" />
    <glyph glyph-name="one.numr" horiz-adv-x="281" 
d="M7 701h218v-420h-141v312h-77v108z" />
    <glyph glyph-name="two.numr" horiz-adv-x="392" 
d="M183 518q33 35 33 56q0 23 -32 23q-51 0 -118 -54l-53 98q98 65 194 65q68 0 112.5 -31.5t44.5 -81.5q0 -59 -85 -141l-69 -66h161v-105h-341v85z" />
    <glyph glyph-name="three.numr" horiz-adv-x="370" 
d="M254 530q44 -9 71 -39.5t27 -76.5q0 -61 -48 -100t-127 -39q-107 0 -175 56l56 103q48 -58 107 -58q48 0 48 38t-48 38h-78v71l85 78h-148v98h308v-76l-97 -88z" />
    <glyph glyph-name="four.numr" horiz-adv-x="424" 
d="M150 701h135l-121 -241h64v82h131v-82h56v-97h-56v-82h-131v82h-207v89z" />
    <glyph glyph-name="five.numr" horiz-adv-x="392" 
d="M177 549h22q79 0 126 -33.5t47 -91.5q0 -68 -50 -108.5t-134 -40.5q-98 0 -180 55l56 104q48 -58 107 -58q49 0 49 39q0 36 -50 36q-97 0 -123 -1v251h305v-104h-175v-48z" />
    <glyph glyph-name="six.numr" horiz-adv-x="415" 
d="M338 574q-35 28 -89 28q-43 0 -65 -18.5t-21 -55.5q32 32 92 32q64 0 103 -37.5t39 -99.5q0 -67 -47 -107.5t-124 -40.5q-92 0 -145 57t-53 154q0 100 58 160t155 60q90 0 150 -37zM221 463q-46 0 -46 -40q0 -39 46 -39q45 0 45 40q0 39 -45 39z" />
    <glyph glyph-name="seven.numr" horiz-adv-x="395" 
d="M24 701h360v-91l-153 -329h-149l146 316h-80v-59h-124v163z" />
    <glyph glyph-name="eight.numr" horiz-adv-x="421" 
d="M209 706q76 0 121 -32t45 -85q0 -51 -47 -83q32 -16 51.5 -44.5t19.5 -60.5q0 -58 -51.5 -92t-137.5 -34t-137 33.5t-51 89.5q0 34 21 63t57 45q-55 35 -55 88q0 51 45 81.5t119 30.5zM210 618q-47 0 -47 -36q0 -33 47 -33t47 33q0 36 -47 36zM210 452q-55 0 -55 -40
q0 -39 55 -39q56 0 56 39q0 40 -56 40z" />
    <glyph glyph-name="nine.numr" horiz-adv-x="416" 
d="M78 407q35 -27 88 -27q44 0 66 18.5t21 55.5q-33 -33 -93 -33q-64 0 -102.5 38t-38.5 100q0 67 46.5 107t124.5 40q92 0 145 -57t53 -154q0 -100 -58.5 -160t-155.5 -60q-87 0 -150 38zM195 598q-45 0 -45 -40q0 -38 44 -38q46 0 46 39t-45 39z" />
    </font>
</defs>
</svg>
